<svg width="613" height="181" xmlns="http://www.w3.org/2000/svg" data-name="图层_1">

 <g>
  <title>Layer 1</title>
  <g id="svg_1">
   <path id="svg_2" fill-rule="evenodd" d="m237.65,138.7l0,26.36l-6.42,0l0,-26.36l-10.34,0l0,-6.16l27.34,0l0,6.16l-10.58,0zm28.31,24.9c-0.76,0.37 -1.52,0.72 -2.29,1.03c-0.78,0.32 -1.79,0.52 -3.02,0.61c-1.58,0.14 -3.04,-0.03 -4.38,-0.52c-1.33,-0.48 -2.36,-1.21 -3.08,-2.2c-0.73,-0.99 -1.06,-2.17 -0.99,-3.54c0.05,-1.02 0.32,-1.93 0.83,-2.76c0.51,-0.82 1.16,-1.52 1.94,-2.09c0.79,-0.57 1.69,-1.05 2.7,-1.43c1.02,-0.39 1.87,-0.67 2.55,-0.86c0.67,-0.18 1.79,-0.47 3.34,-0.88l2.08,-0.54l0,-0.78c0,-0.31 -0.17,-0.62 -0.49,-0.94c-0.32,-0.31 -0.77,-0.55 -1.35,-0.7c-0.58,-0.16 -1.19,-0.21 -1.84,-0.16c-0.84,0.08 -1.55,0.32 -2.1,0.73c-0.56,0.4 -0.91,0.88 -1.06,1.44l-0.27,0.85l-5.73,0c0.14,-0.68 0.3,-1.33 0.49,-1.96c0.18,-0.63 0.53,-1.35 1.05,-2.16c0.51,-0.8 1.17,-1.48 1.97,-2.03c0.8,-0.54 1.79,-0.96 2.97,-1.25c1.17,-0.28 2.25,-0.43 3.22,-0.45c1.28,-0.02 2.53,0.16 3.75,0.52c1.23,0.36 2.22,0.82 2.95,1.39c0.74,0.56 1.27,1.18 1.58,1.85c0.31,0.67 0.47,1.29 0.49,1.86l0,10.71c0,0.48 0.02,1.07 0.08,1.78c0.05,0.71 0.13,1.17 0.22,1.39l0.39,1.08l-5.64,1.64l-0.37,-1.64l0,0l0.01,0.01zm-0.3,-8.34c-0.88,0.24 -1.73,0.49 -2.55,0.73c-0.82,0.25 -1.67,0.55 -2.55,0.91c-0.88,0.35 -1.58,0.75 -2.13,1.2c-0.54,0.45 -0.77,0.86 -0.68,1.24c0.09,0.38 0.37,0.69 0.87,0.92c0.49,0.24 1.12,0.32 1.89,0.22c1.02,-0.11 1.95,-0.39 2.79,-0.86c0.85,-0.46 1.45,-1 1.81,-1.62c0.35,-0.62 0.53,-1.23 0.52,-1.83c0,-0.59 0,-0.89 0.03,-0.91l0,0zm11.35,-12.05l5.59,0l0,21.87l-5.59,0l0,-21.87l0,0zm0,-10.76l5.59,0l0,5.77l-5.59,0l0,-5.77l0,0zm18.53,27.02l11.85,0l0,5.59l-19.56,0l0,-5.59l10.67,-10.68l-9.82,0l0,-5.59l17.53,0l0,5.59l-10.67,10.68l0,0zm20.89,-14.51c0.54,-0.43 1.15,-0.86 1.84,-1.28c0.68,-0.42 1.81,-0.69 3.38,-0.82c1.68,-0.1 3.16,0.13 4.46,0.71c1.29,0.57 2.3,1.38 3.04,2.41c0.73,1.03 1.14,1.93 1.24,2.69c0.1,0.76 0.15,1.66 0.15,2.7l0,13.72l-5.22,0l0,-13.24c0,-0.66 -0.1,-1.29 -0.31,-1.87c-0.21,-0.58 -0.59,-1.08 -1.16,-1.48c-0.56,-0.39 -1.4,-0.53 -2.52,-0.39c-0.86,0.1 -1.62,0.37 -2.3,0.8c-0.67,0.42 -1.23,0.93 -1.65,1.53l-0.95,1.28l0,13.37l-5.12,0l0,-32.55l5.12,0l0,12.43l0,0l0,-0.01zm38.36,9.77c-0.05,1.54 -0.27,2.92 -0.63,4.14c-0.36,1.21 -1,2.38 -1.91,3.48c-0.91,1.11 -2.07,1.94 -3.48,2.48c-1.42,0.54 -3.03,0.75 -4.83,0.61c-1.99,-0.14 -3.69,-0.66 -5.08,-1.57c-1.39,-0.91 -2.43,-2.14 -3.12,-3.71c-0.69,-1.56 -1.07,-3.24 -1.14,-5.05c-0.06,-1.8 0.16,-3.48 0.68,-5.05c0.4,-1.22 0.99,-2.33 1.75,-3.32c0.77,-0.99 1.77,-1.83 2.98,-2.51c1.22,-0.68 2.68,-1.06 4.39,-1.13c1.45,-0.05 2.84,0.18 4.17,0.68c1.33,0.5 2.52,1.32 3.56,2.44c1.05,1.13 1.77,2.38 2.15,3.77c0.39,1.39 0.55,2.97 0.5,4.73l0,0l0.01,0.01zm-14.76,-0.53c-0.03,0.95 0.06,1.88 0.27,2.76c0.21,0.88 0.66,1.67 1.32,2.36c0.68,0.69 1.66,0.99 2.96,0.94c1.55,-0.06 2.67,-0.6 3.39,-1.61c0.71,-1.01 1.08,-2.25 1.1,-3.72c0.01,-1.47 -0.08,-2.55 -0.28,-3.24c-0.29,-0.88 -0.77,-1.6 -1.44,-2.18c-0.67,-0.57 -1.56,-0.86 -2.66,-0.87c-1.1,0 -2.03,0.27 -2.76,0.84c-0.76,0.59 -1.26,1.32 -1.51,2.18c-0.24,0.88 -0.38,1.71 -0.39,2.53l0,0l0,0.01zm32.58,8.71c-0.6,0.52 -1.1,0.91 -1.5,1.17c-0.39,0.25 -0.94,0.48 -1.62,0.69c-0.69,0.21 -1.54,0.31 -2.55,0.31c-1.36,0.02 -2.6,-0.19 -3.74,-0.62c-1.14,-0.43 -2.04,-1.04 -2.71,-1.83c-0.67,-0.78 -1.13,-1.68 -1.37,-2.7c-0.24,-1.02 -0.37,-2.12 -0.37,-3.3l0,-13.42l5.45,0l0,12.5c-0.01,0.86 0.04,1.55 0.17,2.07c0.12,0.53 0.39,1.01 0.82,1.46c0.42,0.45 1.21,0.6 2.39,0.46c0.94,-0.09 1.84,-0.48 2.68,-1.16c0.85,-0.69 1.45,-1.47 1.81,-2.33c0.36,-0.87 0.55,-1.7 0.57,-2.48l0,-10.51l5.57,0l0,21.87l-5.54,0l-0.02,-2.17l0,0l-0.04,-0.01zm28.66,-10.12l0,-20.35l6.08,0l0,20.35c0,1.47 0.13,2.61 0.4,3.43c0.27,0.83 0.73,1.53 1.4,2.11c0.66,0.59 1.44,0.95 2.33,1.1c0.88,0.14 1.89,0.21 3.04,0.19c1,0 1.84,-0.05 2.51,-0.16c0.67,-0.11 1.42,-0.4 2.25,-0.89c0.84,-0.48 1.48,-1.23 1.96,-2.23c0.46,-1 0.7,-2.18 0.7,-3.56l0,-20.35l6.23,0l0,19.84c0,1.8 -0.17,3.49 -0.53,5.05c-0.35,1.56 -1,2.95 -1.93,4.17c-0.93,1.21 -2.28,2.18 -4.03,2.87c-1.76,0.7 -3.93,1.07 -6.54,1.1c-2.39,0.03 -4.42,-0.19 -6.1,-0.65c-1.68,-0.46 -3.15,-1.2 -4.43,-2.21c-1.28,-1.01 -2.15,-2.32 -2.62,-3.93c-0.47,-1.61 -0.7,-3.58 -0.7,-5.91l0,0l-0.02,0.03zm36.5,-7.96c0.5,-0.32 1.05,-0.65 1.67,-0.98c0.62,-0.33 1.62,-0.55 3,-0.66c1.12,-0.08 2.25,0.02 3.38,0.29c1.13,0.27 2.14,0.75 3.03,1.44c0.88,0.69 1.52,1.43 1.9,2.2c0.39,0.78 0.62,1.43 0.69,1.96c0.08,0.54 0.12,1.18 0.12,1.96l0,14.02l-5.52,0l0,-12.75c0,-0.66 -0.06,-1.25 -0.18,-1.77c-0.13,-0.53 -0.5,-1.02 -1.14,-1.47c-0.63,-0.46 -1.39,-0.68 -2.29,-0.66c-0.79,0.02 -1.52,0.21 -2.22,0.57c-0.69,0.37 -1.17,0.75 -1.44,1.14l-1.02,1.34l0,13.6l-5.45,0l0,-21.85l5.45,0l0,1.62l0,0l0.02,0zm19.09,-1.62l5.59,0l0,21.87l-5.59,0l0,-21.87l0,0zm0,-10.76l5.59,0l0,5.77l-5.59,0l0,-5.77l0,0zm26.16,10.75l5.91,-0.02l-7.16,21.88l-7.11,0l-7,-21.86l5.98,0l4.6,15.69l4.78,-15.69l0,0zm15.14,12.39c0.05,0.49 0.13,1.02 0.23,1.57c0.09,0.56 0.32,1.13 0.7,1.71c0.38,0.58 0.92,1.03 1.63,1.34c0.71,0.31 1.46,0.46 2.26,0.44c0.92,0 1.7,-0.2 2.34,-0.61c0.64,-0.41 1.03,-0.91 1.17,-1.49l0.24,-0.85l5.77,0c-0.18,0.84 -0.43,1.76 -0.74,2.77c-0.31,1 -0.9,1.91 -1.77,2.71c-0.88,0.81 -1.92,1.4 -3.11,1.78c-1.2,0.38 -2.54,0.55 -4.04,0.52c-2.38,-0.03 -4.34,-0.54 -5.85,-1.51c-1.52,-0.98 -2.59,-2.29 -3.2,-3.93c-0.62,-1.64 -0.92,-3.34 -0.92,-5.09s0.15,-3.21 0.46,-4.37c0.31,-1.14 0.86,-2.29 1.66,-3.44c0.79,-1.16 1.89,-2.11 3.3,-2.88c1.4,-0.77 2.97,-1.15 4.7,-1.17c2.17,0 4.05,0.57 5.64,1.69c1.58,1.14 2.63,2.44 3.14,3.92c0.51,1.47 0.79,2.91 0.84,4.3l0.09,2.59l-14.52,0l-0.02,0zm0.39,-3.93l8.53,0c-0.16,-0.65 -0.33,-1.21 -0.54,-1.69c-0.2,-0.49 -0.57,-0.96 -1.13,-1.44c-0.56,-0.47 -1.24,-0.71 -2.05,-0.73c-0.8,-0.02 -1.51,0.11 -2.1,0.38c-0.59,0.27 -1.13,0.67 -1.59,1.2c-0.47,0.54 -0.77,1.04 -0.89,1.51l-0.24,0.77l0,0l0.01,0zm18.24,-8.45l5.5,0l0,2.14c0.71,-0.42 1.35,-0.78 1.92,-1.05c0.58,-0.27 1.36,-0.5 2.37,-0.7c1.01,-0.2 2,-0.31 2.97,-0.35l2.73,-0.07l0,5.61c-1.21,-0.06 -2.33,-0.09 -3.36,-0.07c-1.02,0.02 -2.07,0.2 -3.13,0.58c-1.06,0.37 -1.87,0.83 -2.41,1.36l-1.09,1.02l0,13.4l-5.5,0l0,-21.87l0,0zm38.05,6.76l-5.75,0c-0.2,-0.32 -0.41,-0.62 -0.62,-0.89c-0.22,-0.27 -0.57,-0.49 -1.06,-0.65c-0.48,-0.17 -1.15,-0.26 -2,-0.26c-1.08,0.02 -1.9,0.2 -2.47,0.54c-0.57,0.35 -0.84,0.71 -0.8,1.1c0.01,0.31 0.19,0.58 0.53,0.81c0.34,0.23 0.87,0.39 1.58,0.5c0.72,0.1 1.82,0.34 3.31,0.72c1.5,0.38 2.74,0.8 3.74,1.28c1,0.48 1.86,1.18 2.58,2.11c0.71,0.92 1.03,2.16 0.95,3.72c-0.11,1.65 -0.64,2.98 -1.61,3.96c-0.96,0.98 -2.03,1.63 -3.23,1.96c-1.19,0.33 -2.22,0.52 -3.07,0.57c-0.86,0.05 -1.69,0.05 -2.48,0c-0.76,-0.03 -1.49,-0.1 -2.2,-0.21c-0.7,-0.1 -1.44,-0.32 -2.22,-0.65c-0.76,-0.32 -1.43,-0.8 -1.99,-1.43c-0.55,-0.63 -0.97,-1.33 -1.25,-2.11c-0.28,-0.77 -0.45,-1.44 -0.5,-2.03l-0.17,-1.18l5.76,0.05c0.05,0.46 0.13,0.83 0.23,1.1c0.09,0.27 0.27,0.54 0.54,0.83c0.27,0.29 0.59,0.5 0.98,0.63c0.39,0.13 0.88,0.2 1.48,0.21c0.68,0.03 1.24,0 1.69,-0.08c0.44,-0.09 0.85,-0.26 1.23,-0.52c0.38,-0.26 0.61,-0.61 0.7,-1.07c0.09,-0.46 -0.03,-0.88 -0.36,-1.29c-0.24,-0.28 -0.73,-0.53 -1.46,-0.76c-0.73,-0.24 -1.39,-0.42 -1.99,-0.58l-3.26,-0.67c-1.28,-0.28 -2.33,-0.67 -3.14,-1.2c-0.82,-0.52 -1.39,-1.2 -1.74,-2.02c-0.34,-0.83 -0.48,-1.76 -0.42,-2.81c0.03,-0.73 0.18,-1.43 0.44,-2.14c0.26,-0.7 0.73,-1.37 1.41,-2c0.68,-0.63 1.56,-1.15 2.66,-1.57c1.1,-0.42 2.51,-0.65 4.22,-0.69c1.29,-0.02 2.66,0.14 4.11,0.46c1.45,0.32 2.61,0.95 3.49,1.87c0.88,0.92 1.46,1.94 1.75,3.05l0.37,1.34l0,0l0.04,0zm5.5,-6.76l5.59,0l0,21.87l-5.59,0l0,-21.87l0,0zm0,-10.76l5.59,0l0,5.77l-5.59,0l0,-5.77l0,0zm21.59,10.14l5.43,0l0,5.42l-5.43,0l0,9.29c0,0.47 0.04,0.87 0.13,1.17c0.09,0.3 0.25,0.53 0.5,0.68c0.24,0.16 0.75,0.25 1.51,0.29c0.75,0.04 1.16,0.05 1.22,0.03l2.08,-0.09l-0.04,5.71c-0.99,0 -1.93,0 -2.83,0c-0.91,0 -1.8,-0.02 -2.68,-0.09c-0.88,-0.07 -1.75,-0.28 -2.58,-0.61c-0.84,-0.34 -1.46,-0.81 -1.85,-1.4c-0.39,-0.59 -0.66,-1.22 -0.82,-1.89c-0.15,-0.66 -0.23,-1.28 -0.23,-1.87l0,-11.23l-5.12,0l0,-5.42l5.12,0l0,-6.47l5.61,0l0,6.47l0,0l-0.02,0.01zm20.72,13.69l4.37,-13.1l5.89,0.02l-8.92,24.74c-0.38,1.05 -0.76,1.95 -1.13,2.69c-0.37,0.75 -0.79,1.35 -1.26,1.81c-0.46,0.46 -1.03,0.77 -1.69,0.94c-0.65,0.17 -1.2,0.25 -1.62,0.25l-4.87,0l0,-5.66l2.42,0c0.53,0 0.92,-0.02 1.21,-0.07c0.28,-0.05 0.5,-0.11 0.66,-0.2c0.17,-0.08 0.39,-0.29 0.66,-0.63c0.27,-0.34 0.53,-0.82 0.77,-1.43l0.72,-1.87l-8.45,-20.56l6.12,-0.02l5.12,13.1l0,-0.01z" class="g"/>
   <path id="svg_3" fill="#3e3a39" fill-rule="evenodd" d="m365.32,40.18c3.44,0.13 5.24,0.69 7.78,2.18c0.01,4.29 1.58,4.88 2.49,7.46l0,16.8c0.3,0.97 0.95,1.27 1.24,2.8c0.1,0.1 0.21,0.21 0.31,0.31c-0.1,2.7 -0.21,5.39 -0.31,8.09c0.76,2.58 3.5,12.82 2.49,15.55c-0.96,2.09 -4.05,4.73 -5.91,5.91c-1.45,0.42 -2.9,0.83 -4.35,1.24c-3.73,-3.1 -9.04,-5.7 -10.27,-11.2c4.14,-3.38 4.8,-13.75 3.73,-20.22c-0.21,-0.1 -0.41,-0.21 -0.62,-0.31c-0.41,0.1 -0.83,0.21 -1.25,0.31c-0.9,2.15 -1.66,3.13 -3.42,4.35c-7.13,-1.41 -3.58,-13.09 -9.02,-9.64c-1.23,7.26 3.74,16.13 0.93,23.33c-1.04,1.14 -2.07,2.28 -3.11,3.42c-0.83,-0.1 -1.66,-0.21 -2.49,-0.31c-1.14,-0.93 -2.28,-1.87 -3.42,-2.8l0,-25.51c0.55,-1.8 2.26,-3.31 1.55,-6.22c-0.54,-2.2 -2.44,-3.04 -2.8,-5.91c1.55,-1.45 3.11,-2.9 4.67,-4.36c0.93,0.1 1.87,0.21 2.8,0.31c4.42,3.64 0.8,11.02 3.42,14.93c1.96,-1.11 3.87,-1.98 6.22,-3.11c0.52,-2.2 2.16,-2.37 2.8,-4.04c2.44,-6.4 1.11,-9.78 6.53,-13.38l0,0l0.01,0.02zm82.16,-22.04c1.45,0.83 2.9,1.66 4.35,2.49c-0.18,3.75 1.51,3.06 3.73,4.98l0,3.42c-1.68,1.07 -2.64,2.08 -3.73,3.73c0.1,0.41 0.21,0.83 0.31,1.24l1.24,0c2.87,-2.89 5.71,-7.62 10.58,-7.46c0.41,0.93 0.83,1.87 1.24,2.8c-1.46,2.56 -4.52,14.26 -1.87,16.18c8.19,2.26 12.38,0.02 19.91,5.91c0.03,6.76 -5.61,11.56 -9.95,14c-5.67,-2.36 -6.88,1.82 -10.58,3.11c-8.08,2.82 -8.09,0.25 -12.44,7.15l0,1.24c0.31,0.21 0.62,0.41 0.93,0.62c1.87,-0.93 3.73,-1.87 5.6,-2.8c2.15,-0.5 2.71,1.2 4.04,1.56c5.86,1.57 9.41,-1.94 9.95,5.29c-4.41,6.34 -6.98,2.93 -12.44,6.53c-0.36,12.96 -4.31,18.76 -16.48,16.48c-1.07,1.14 -1.59,2.03 -3.42,2.49c-1.76,-3.32 -3.53,-6.64 -5.29,-9.95c-0.41,-1.52 0.29,-2.72 -0.31,-4.04c-0.31,-0.1 -0.62,-0.21 -0.93,-0.31c-2.17,1.21 -4,3.67 -6.22,2.8c-0.1,-0.21 -0.21,-0.41 -0.31,-0.62c-0.03,-9.63 6.84,-8.37 10.26,-13.06c1.75,-3.94 3.95,-5.15 5.91,-8.4c-0.31,-0.41 -0.62,-0.83 -0.93,-1.24c-2.69,0.93 -5.39,1.87 -8.09,2.8c-0.62,-0.21 -1.24,-0.41 -1.87,-0.62l0,-1.55c1.24,-1.66 2.49,-3.32 3.73,-4.98c2.6,-2.28 17.59,-10.7 21.77,-9.33c1.92,0.97 1.64,2.73 2.49,4.67l0.93,0c3.57,-4.66 10.77,-5.62 14.62,-9.96c-0.4,-0.93 -0.19,-0.7 -0.93,-1.24c-1.97,-0.62 -3.94,-1.25 -5.91,-1.87c-6.27,5.35 -18.46,4.36 -26.13,8.4c-9.1,4.79 -18.12,12.84 -21.15,23.64l0,9.02c-1.85,1.31 -3.32,1.48 -5.29,2.49c0.03,1.85 -0.06,2.27 -0.93,3.11c-1.14,-0.41 -2.28,-0.83 -3.42,-1.24c-0.12,-8.18 1.2,-13.49 3.11,-18.66c-0.1,-5.39 -0.21,-10.78 -0.31,-16.18c1.24,-1.55 2.49,-3.11 3.73,-4.67c4.79,-1.98 6.91,2.83 10.58,3.42c0.62,-0.73 1.24,-1.45 1.87,-2.18c-0.13,-8.83 -3.85,-14.16 0.62,-21.15c0.62,0.1 1.25,0.21 1.87,0.31c1.56,6.93 -0.48,12.48 2.8,17.73c0.73,0.1 1.45,0.21 2.18,0.31c0.1,-0.31 0.21,-0.62 0.31,-0.93c-2.31,-4.41 -2.09,-17.64 -0.93,-23.64c0.62,-0.1 1.24,-0.21 1.87,-0.31c0.52,0.31 1.04,0.62 1.55,0.93c0.1,7.05 0.21,14.1 0.31,21.15c0.41,0.1 0.83,0.21 1.24,0.31c5.57,-5.08 -0.24,-14.71 2.49,-22.71c0.93,-0.93 1.87,-1.87 2.8,-2.8c1,-2.87 -0.55,-6.06 0.31,-8.09c0.21,-0.1 0.41,-0.21 0.62,-0.31l0,0l0.01,-0.01zm0.93,72.17c-0.73,0.73 -1.45,1.45 -2.18,2.18c0.1,0.52 0.21,1.04 0.31,1.56c0.62,0.1 1.24,0.21 1.87,0.31c0.62,-0.52 1.24,-1.03 1.87,-1.55c-0.07,-1.4 -0.22,-1.68 -0.62,-2.49l-1.24,0l-0.01,-0.01zm-176.69,-23.15c4.31,-0.18 7.25,0.21 9.33,2.18c1.04,6.3 -6.55,10.82 -7.46,17.42c2.07,0.97 5.29,4.75 5.6,7.46c-0.41,0.83 -0.83,1.66 -1.24,2.49c-1.04,0.52 -2.07,1.04 -3.11,1.55l-7.46,0c-4.48,1.47 -8.74,4.16 -14.31,4.98c-0.49,-1.1 -0.91,-2.83 -1.56,-3.73l-1.55,0c-1.35,1.89 -1.44,3.58 -2.49,5.6c-3.18,1.03 -7.1,0.74 -9.02,3.11c-0.31,-0.1 -0.62,-0.21 -0.93,-0.31c-1.95,-2.96 -6.17,-5.58 -7.47,-8.71l0,-9.02c-2.51,-8.51 -0.34,-11.72 8.71,-13.38l0.62,0.62c-0.36,2.72 -0.39,4.1 1.55,5.29c1.63,-1.21 2.25,-3.82 3.73,-4.98c1.66,-0.62 3.32,-1.24 4.98,-1.87c2.93,-1.94 5.42,-4.69 8.09,-6.84c2.26,0.55 11.66,0.19 14,-1.87l0,0l-0.01,0.01zm-15.55,10.58c-2.47,3.57 -11.99,6.68 -9.64,12.44c0.31,0.1 0.62,0.21 0.93,0.31c2.9,-1.87 5.81,-3.73 8.71,-5.6c0.06,-2.7 0.8,-4.03 1.55,-6.22c-0.21,-0.31 -0.41,-0.62 -0.62,-0.93l-0.93,0zm-6.53,-51.95c-2.27,12.72 -16.36,33.09 -27.68,38.26c-0.1,2.28 -0.21,4.56 -0.31,6.84c1.14,1.35 2.28,2.69 3.42,4.04c6.77,-0.66 17.62,-2.41 20.53,-6.22c1.04,0.41 2.07,0.83 3.11,1.24c4.35,-3.92 10.5,-3.71 15.24,-6.84c2.21,-1.46 5.05,-4.1 7.78,-4.98l7.78,0c5.38,-7.49 -2.19,-12.29 -2.18,-19.91c-2,-1.53 -4.82,-3.89 -8.09,-3.11c-4.17,1.68 -6.83,7.78 -8.09,12.13c-1.45,0.62 -2.9,1.24 -4.36,1.87c-0.5,-0.61 -0.42,-0.42 -0.62,-1.55c3.11,-4.09 6.81,-8.79 7.46,-15.24c-1.72,-1.93 -5.09,-3.98 -5.91,-6.53c-2.33,-0.14 -2.84,-0.16 -3.42,1.56c-2.16,-0.59 -1.69,-1.48 -4.67,-1.56l0,0l0.01,0zm276.71,13.51c1.87,0.21 3.73,0.41 5.6,0.62c0.21,1.55 0.41,3.11 0.62,4.67c-0.97,2.57 -2.9,4.14 -4.67,5.91c0.2,5.1 1.83,5.97 2.8,9.02c1.3,4.09 -1.55,5.44 -2.49,7.15c-1.77,3.24 -1.18,7.37 -5.29,4.67c-0.1,-1.14 -0.21,-2.28 -0.31,-3.42l-0.31,0c-0.41,0.1 -0.83,0.21 -1.24,0.31c-0.41,0.73 -0.83,1.45 -1.25,2.18c0.52,2.59 1.04,5.19 1.56,7.78c-0.22,1.02 -1.64,1.34 -1.24,3.11c1.24,5.56 2.79,12.84 2.8,19.29c-2.18,1.55 -4.36,3.11 -6.53,4.66c-0.52,-0.1 -1.04,-0.21 -1.56,-0.31c-0.75,-1.48 -1.48,-3.06 -3.11,-3.73l0,-18.04c0.62,-0.31 1.24,-0.62 1.87,-0.93c-0.1,-5.29 -0.21,-10.58 -0.31,-15.86c0.52,-0.62 1.04,-1.25 1.55,-1.87l0,-5.29c1.56,-1.45 3.11,-2.9 4.67,-4.35c1.14,0.31 2.28,0.62 3.42,0.93c0.52,-0.83 1.04,-1.66 1.55,-2.49c-0.37,-1.15 -0.29,-1.56 -1.24,-2.17c-0.31,-0.11 -0.62,-0.21 -0.93,-0.31c-0.75,1.37 -0.63,1.75 -2.8,1.87c-1.68,-0.66 -3.11,-2.27 -1.87,-4.67c1.77,-3.69 5.85,-6.02 8.71,-8.71l0,0l0,-0.02zm59.1,28.3c2.94,1.51 2.38,4.99 3.73,8.09c2.84,-0.45 3.39,-0.7 3.11,3.11c-0.77,0.63 -1.16,18.84 -4.67,23.02c-6.84,8.14 -24.1,2.4 -32.66,4.98c-1.17,-2.32 -4,-4.54 -4.67,-6.53c-2.85,-8.51 8.87,-26.44 12.44,-29.55c0.41,0.1 0.83,0.21 1.24,0.31c0.21,0.31 0.42,0.62 0.62,0.93c0.3,6.67 -4.03,8.64 -5.29,13.69c-0.57,2.29 -0.08,3.87 -0.93,5.91c1.07,0.87 1.78,1.49 3.42,1.87c0.41,-0.62 0.83,-1.24 1.24,-1.87c3.02,1.08 14.16,1.76 13.38,-2.49c1.18,-3.21 3.03,-5.16 4.04,-7.78c2.45,-6.28 0.09,-9.11 4.98,-13.69l0,0l0.02,0zm-62.21,-9.95c-0.31,0.31 -0.62,0.62 -0.93,0.93l0,1.24c0.78,0.73 0.59,0.84 1.87,1.24l0,-0.62c0.65,-1.47 0.48,-2.27 -0.93,-2.8l0,0l-0.01,0.01zm34.53,-24.89c-1.73,1.62 -4.81,2.78 -5.91,4.97c-1.23,3.19 1.15,5.3 0.93,8.71c-3.06,1.76 -5.63,3.15 -7.15,6.53c-0.41,0.1 -0.83,0.21 -1.24,0.31l-0.31,0c-0.74,-1.38 -1.28,-4.86 -2.49,-5.91l-2.49,0c-3.51,1.93 -4.31,18.37 -5.91,23.02c0.43,0.59 0.29,0.51 0.93,0.93c0.73,0.1 1.45,0.21 2.18,0.31c5.88,-4.54 7.15,-12.27 11.82,-18.04c3.11,-3.84 8.16,-3.3 12.75,-5.91c2.49,-1.42 6.86,-5.82 10.89,-4.35c0.86,0.49 0.74,0.45 1.25,1.24c-1.4,2.56 -5.16,6.24 -7.78,7.47c-2.37,1 -4.1,-0.43 -5.91,-0.93c-8.91,4.53 -6.64,5.47 -10.27,14.62c-2.61,6.6 -8.33,3.23 -8.09,16.8c0.21,0.21 0.41,0.41 0.62,0.62l1.24,0c1.14,-1.14 2.28,-2.28 3.42,-3.42l1.55,0c0.1,0.1 0.21,0.21 0.31,0.31l0,0.93c-5.78,5.88 -20.82,15.42 -19.91,25.82c0.93,0.1 1.87,0.21 2.8,0.31c1.56,-2.18 3.11,-4.35 4.67,-6.53c3.91,-5.1 9.84,-9.03 13.69,-14.31c2.28,-3.73 4.56,-7.47 6.84,-11.2c1.09,-1.27 2.22,-3.1 3.42,-4.35c2.41,-2.53 7.01,-1.93 8.71,-5.29c0.1,-0.83 0.21,-1.66 0.31,-2.49c-0.62,-0.52 -1.24,-1.04 -1.87,-1.55l-2.18,0c-4.92,2.43 -8.36,8.47 -14.62,9.33c-0.31,-0.21 -0.62,-0.41 -0.93,-0.62l0,-1.24c3.15,-3.22 12.11,-9.41 13.38,-13.38c1.47,-0.72 2.45,-0.5 4.04,0c0.31,0.83 0.62,1.66 0.93,2.49c0.41,0.1 0.83,0.21 1.24,0.31c3.96,-2.1 7.97,-3.73 11.51,-6.22c1.04,-1.45 2.07,-2.9 3.11,-4.36c-0.65,-2.37 -1.61,-3.02 -1.56,-6.53c-6.44,-4.83 -8.97,-2.99 -15.24,0c-3.83,-2.56 -3.17,-6.96 -8.71,-8.4l0,0l0.03,0zm-227.91,30.75c1.97,0.1 3.94,0.21 5.91,0.31l0,0.31c-1.56,4.07 0.74,7.37 1.56,11.51c-0.62,1.14 -1.24,2.28 -1.87,3.42c-1.14,-0.1 -2.28,-0.21 -3.42,-0.31c-3.27,-1.51 -5.07,-10.3 -2.8,-14.93c0.21,-0.1 0.41,-0.21 0.62,-0.31l0,0zm-18.04,0c1.99,0.28 2.21,0.94 3.42,1.87c0.02,2.77 0.39,6.28 -0.62,8.4l-0.31,0c-0.41,-0.1 -0.83,-0.21 -1.24,-0.31c-0.62,-0.52 -1.24,-1.04 -1.87,-1.55c-0.08,-2.8 -0.26,-6.55 0.62,-8.4l0,0l0,-0.01zm9.64,-13.07c-0.21,0.1 -0.41,0.21 -0.62,0.31c-3.15,4.44 2.39,17.73 -0.31,26.13c-1.2,3.74 -1.36,9.27 -2.49,12.75c-1.46,4.49 -5.43,7.17 -5.6,13.06c0.31,0.21 0.62,0.42 0.93,0.62c1.35,1.58 5.27,0.87 7.78,-0.31c3.03,-1.42 2.05,-2.61 3.11,-5.29c2.65,-6.66 3,-15.02 1.55,-23.64c-0.1,-2.8 -0.21,-5.6 -0.31,-8.4c0.46,-1.5 2.48,-5.18 2.8,-6.84c0.37,-1.95 -1.5,-2.84 -0.93,-5.29c-1.11,-1.35 -4.1,-2.64 -5.91,-3.11l0,0.01z" class="f"/>
  </g>
  <g id="svg_4">
   <g id="svg_5">
    <path id="svg_6" fill="#fff" fill-rule="evenodd" d="m90.3,0.81c49.43,0 89.5,40.07 89.5,89.49s-40.07,89.49 -89.5,89.49s-89.49,-40.06 -89.49,-89.49s40.07,-89.49 89.49,-89.49z" class="c"/>
    <path id="svg_7" fill="#231815" d="m90.3,180.61c-49.79,0 -90.3,-40.51 -90.3,-90.31s40.51,-90.3 90.3,-90.3s90.3,40.51 90.3,90.3s-40.51,90.31 -90.3,90.31zm0,-178.99c-48.9,0 -88.68,39.78 -88.68,88.68s39.78,88.68 88.68,88.68s88.68,-39.78 88.68,-88.68s-39.78,-88.68 -88.68,-88.68z" class="i"/>
   </g>
   <path id="svg_8" fill="#e60012" fill-rule="evenodd" d="m118.44,48.55c-0.75,0.58 -12.86,14.05 -30.24,12.04c19.99,11.26 31.87,-13.3 30.24,-12.04z" class="d"/>
   <polygon id="svg_9" fill="#dcdddd" fill-rule="evenodd" points="126.07 120.58 131.41 123.05 90.37 144.39 48.37 123.05 53.82 120.28 90.38 138.17 126.07 120.58" class="e"/>
   <path id="svg_10" fill="#e60012" fill-rule="evenodd" d="m119.03,40.5c0.29,-0.19 -15.27,13.44 -43,11.03c0.19,0.36 9.51,16.86 15.03,32.6c-7.87,-1.89 -19.51,-1.87 -28.31,5.4c10.82,-0.9 18.7,-2.51 30.27,0.75c1.25,4.43 2.04,8.61 2.05,12.12c0.01,5.26 -1.94,9.02 -6.43,9.88c-10.35,1.93 -25.32,-11.14 -29.46,-20.62c-0.18,17.31 22.53,40.62 39.16,28.91c8.76,-5.66 7,-22.27 4.36,-30.61c7.33,-0.19 14.55,-3.99 19.62,-8.74c0,0 -12.4,3.65 -21.95,3.48c-4.23,-10.96 -10.4,-20.28 -17.15,-27.84c10.23,1.85 31.41,-1.93 35.81,-16.36z" class="d"/>
   <path id="svg_11" fill-rule="evenodd" fill="#005bac" d="m90.42,100.66c1.11,0.47 2.21,0.96 3.32,1.45c0.11,2.23 -0.79,4.84 -2.55,6.6c-2.04,2.05 -4.31,2.17 -7.04,1.73c-2.67,-0.43 -5.32,-1.69 -7.55,-3.03l13.82,-6.75l0,0zm16.25,7.61c-0.81,10.48 -7.85,17.8 -18.74,17.46c-8.92,-0.28 -17.52,-6.4 -22.37,-13.07c-3.88,1.85 -8.13,3.94 -12.06,5.85l0.19,0.09l-0.23,0.11l0.46,0l36.45,17.64l36.95,-17.84l-4.08,-1.97l0.05,-0.02c-5.51,-2.64 -11.06,-5.48 -16.63,-8.25l0.01,0z" class="b"/>
   <path id="svg_12" fill="#231815" fill-rule="evenodd" d="m139.02,138.11l1.19,-1.41l6.21,5.21c0.88,0.74 1.61,1.12 2.17,1.15c0.57,0.03 1.12,-0.28 1.65,-0.91c0.51,-0.6 0.69,-1.18 0.55,-1.72c-0.14,-0.54 -0.65,-1.18 -1.52,-1.91l-6.21,-5.21l1.18,-1.41l6.2,5.2c0.66,0.56 1.14,1.02 1.43,1.39c0.29,0.37 0.49,0.75 0.61,1.13c0.2,0.67 0.23,1.31 0.09,1.91c-0.14,0.61 -0.45,1.19 -0.93,1.76c-0.53,0.63 -1.07,1.07 -1.64,1.32c-0.57,0.25 -1.21,0.35 -1.92,0.28c-0.4,-0.04 -0.8,-0.16 -1.19,-0.36c-0.38,-0.2 -0.94,-0.6 -1.68,-1.21l-6.2,-5.2l0,0l0.01,-0.01zm18.07,-1.98l-8.48,-5.16l11.81,-0.16l0.94,-1.5l-10.8,-6.75l-0.96,1.54l8.22,5.04l-11.49,0.19l-1.01,1.61l10.8,6.75l0.98,-1.57l0,0l-0.01,0.01zm6.6,-11.26l-0.81,1.66l-11.45,-5.58l0.81,-1.66l11.45,5.58l0,0zm3.12,-7.26l-0.39,1.02l-13.65,0.02l0.7,-1.82l10.12,0.13l-7.61,-6.67l0.69,-1.81l10.14,9.13l0,0zm3.92,-13.56l-1.71,-0.39l-1.07,4.65l-3.72,-0.86l1.07,-4.65l-1.62,-0.37l-1.07,4.65l-3.71,-0.86l1.07,-4.65l-1.65,-0.38l-1.49,6.44l12.41,2.87l1.49,-6.44l0,0l0,-0.01zm-5.27,-5.83l0.11,-0.94c0.16,-1.27 0.07,-2.24 -0.27,-2.91c-0.34,-0.67 -0.92,-1.05 -1.76,-1.16c-0.81,-0.1 -1.45,0.09 -1.9,0.57c-0.45,0.49 -0.74,1.31 -0.88,2.46l-0.17,1.37l4.86,0.6l0,0l0.01,0.01zm6.08,0.75l-0.22,1.83l-12.64,-1.55l0.45,-3.65c0.19,-1.52 0.68,-2.63 1.48,-3.34c0.8,-0.71 1.86,-0.99 3.19,-0.82c1.03,0.13 1.85,0.57 2.46,1.32c0.61,0.76 0.87,1.66 0.8,2.72l5.29,-2.99l-0.28,2.29l-6.39,3.47l5.87,0.72l0,0l-0.01,0zm-2.75,-8.48l-0.06,-1.65c0.66,-0.05 1.18,-0.26 1.56,-0.64c0.38,-0.38 0.56,-0.85 0.54,-1.43c-0.02,-0.64 -0.24,-1.13 -0.64,-1.5c-0.41,-0.37 -0.94,-0.54 -1.6,-0.52c-0.58,0.02 -1.02,0.18 -1.32,0.47c-0.31,0.29 -0.58,0.89 -0.82,1.79c0,0.05 -0.03,0.13 -0.05,0.24c-0.25,1.07 -0.69,1.86 -1.33,2.36c-0.28,0.22 -0.58,0.4 -0.9,0.52c-0.32,0.12 -0.66,0.18 -1.03,0.2c-1.09,0.04 -1.98,-0.25 -2.68,-0.88c-0.69,-0.62 -1.06,-1.46 -1.1,-2.51c-0.03,-0.97 0.24,-1.77 0.82,-2.39c0.58,-0.62 1.4,-0.98 2.44,-1.08l0.06,1.72c-0.51,0.05 -0.91,0.23 -1.21,0.55c-0.3,0.32 -0.44,0.72 -0.43,1.2c0.02,0.51 0.21,0.91 0.56,1.22c0.36,0.31 0.81,0.45 1.36,0.43c0.19,0 0.37,-0.04 0.54,-0.11c0.17,-0.07 0.32,-0.16 0.46,-0.29c0.29,-0.26 0.53,-0.81 0.71,-1.64c0.09,-0.38 0.16,-0.68 0.22,-0.88c0.28,-0.85 0.72,-1.51 1.31,-1.96c0.59,-0.46 1.3,-0.7 2.14,-0.73c1.23,-0.04 2.23,0.27 3.01,0.95c0.78,0.67 1.19,1.59 1.23,2.74c0.04,1.09 -0.29,1.98 -0.99,2.68c-0.7,0.7 -1.63,1.08 -2.81,1.13l0,0l0.01,0.01zm2.78,-12.12l0.26,1.83l-12.61,1.77l-0.26,-1.83l12.61,-1.77l0,0zm-0.88,-6.37l-10.82,2.1l-0.45,-2.34l-1.68,0.33l1.26,6.48l1.68,-0.33l-0.45,-2.34l10.82,-2.1l-0.35,-1.81l0,0l-0.01,0.01zm-7.25,-8.64l4.31,-1.57l0.63,1.73l-4.41,1.61l-6.22,6.42l-0.7,-1.93l4.8,-4.73l-6.71,-0.53l-0.7,-1.92l9.01,0.92l-0.01,0z" class="h"/>
   <path id="svg_13" fill="#231815" fill-rule="evenodd" d="m61.45,156.15l2.71,-0.36l0.23,0.08l-2.35,8.13c-0.15,0.54 -0.23,0.88 -0.23,1.03c0,0.14 0.07,0.28 0.2,0.4c0.12,0.12 0.4,0.25 0.84,0.41l-0.08,0.26l-3.67,-1.2l0.07,-0.26c0.46,0.14 0.77,0.2 0.93,0.17c0.15,-0.03 0.27,-0.09 0.36,-0.19c0.09,-0.1 0.21,-0.44 0.38,-1.01l1.51,-5.2c0.2,-0.7 0.31,-1.16 0.32,-1.37c0.01,-0.17 -0.02,-0.3 -0.09,-0.4c-0.07,-0.1 -0.16,-0.17 -0.29,-0.21c-0.18,-0.06 -0.44,-0.07 -0.8,-0.02l-0.04,-0.26z" class="h"/>
   <path id="svg_14" fill="#231815" fill-rule="evenodd" d="m78.36,170.39l-0.02,-0.28c0.65,-0.02 1.24,-0.18 1.78,-0.48c0.54,-0.3 1.05,-0.82 1.53,-1.56c0.48,-0.74 0.8,-1.54 0.95,-2.42c-0.75,0.51 -1.45,0.78 -2.08,0.79c-0.71,0 -1.34,-0.26 -1.88,-0.8c-0.54,-0.54 -0.84,-1.27 -0.89,-2.18c-0.05,-0.89 0.16,-1.68 0.63,-2.38c0.56,-0.85 1.34,-1.29 2.32,-1.3c0.83,-0.01 1.56,0.32 2.19,1c0.78,0.84 1.2,1.89 1.27,3.14c0.06,1.13 -0.15,2.18 -0.65,3.17c-0.5,0.98 -1.22,1.81 -2.17,2.46c-0.77,0.54 -1.63,0.82 -2.58,0.83l-0.43,0l0.03,0.01zm4.33,-5.29c0.05,-0.65 0.07,-1.17 0.05,-1.56c-0.03,-0.48 -0.14,-1 -0.33,-1.56c-0.2,-0.56 -0.46,-0.99 -0.77,-1.28c-0.32,-0.3 -0.67,-0.44 -1.05,-0.43c-0.44,0 -0.82,0.21 -1.13,0.62c-0.31,0.4 -0.44,1 -0.4,1.79c0.06,1.05 0.33,1.87 0.8,2.46c0.35,0.42 0.76,0.63 1.23,0.63c0.23,0 0.5,-0.06 0.81,-0.18c0.31,-0.11 0.57,-0.27 0.8,-0.48l-0.01,-0.01z" class="h"/>
   <path id="svg_15" fill="#231815" fill-rule="evenodd" d="m95.9,164.46c0,-1.16 0.19,-2.14 0.55,-2.96c0.36,-0.81 0.82,-1.41 1.41,-1.79c0.45,-0.3 0.92,-0.44 1.4,-0.42c0.78,0.04 1.47,0.47 2.08,1.29c0.77,1.02 1.14,2.37 1.12,4.05c0,1.18 -0.19,2.16 -0.53,2.97c-0.35,0.81 -0.78,1.38 -1.31,1.73c-0.53,0.34 -1.04,0.5 -1.53,0.48c-0.96,-0.05 -1.76,-0.66 -2.4,-1.83c-0.54,-0.99 -0.8,-2.16 -0.79,-3.51l0,0l0,-0.01zm1.46,0.27c-0.01,1.39 0.15,2.54 0.49,3.44c0.28,0.76 0.7,1.15 1.26,1.18c0.27,0.01 0.55,-0.1 0.84,-0.32c0.29,-0.23 0.51,-0.62 0.67,-1.18c0.24,-0.84 0.36,-2.05 0.38,-3.61c0,-1.16 -0.1,-2.13 -0.34,-2.91c-0.17,-0.58 -0.4,-1 -0.68,-1.25c-0.2,-0.17 -0.45,-0.27 -0.74,-0.28c-0.34,-0.02 -0.64,0.12 -0.91,0.41c-0.36,0.4 -0.61,1.03 -0.75,1.91c-0.14,0.88 -0.21,1.75 -0.22,2.61z" class="h"/>
   <path id="svg_16" fill="#231815" fill-rule="evenodd" d="m112.99,156.55l5.06,-1.78l0.1,0.27l0.54,10.62l-0.78,0.27l-0.53,-9.63l-2.6,0.91c-0.52,0.18 -0.87,0.38 -1.05,0.59c-0.3,0.35 -0.49,0.8 -0.55,1.33l-0.23,0s0.03,-2.6 0.03,-2.6l0.01,0.02z" class="h"/>
   <path id="svg_17" fill="#231815" fill-rule="evenodd" d="m9.56,63.84l0.6,-1.74l10.42,3.59l0.77,-2.25l1.62,0.56l-2.15,6.25l-1.62,-0.56l0.77,-2.25l-10.42,-3.59l0,0l0.01,-0.01zm2.31,14.3l5.09,-0.84l-4.4,-2.72l-0.69,3.56l0,0zm-0.94,-4.55l-0.94,4.85l-3.91,0.66l-0.39,1.99l13.45,-2.46l0.34,-1.76l-11.56,-7.32l-0.37,1.92l3.37,2.12l0,0l0.01,0zm-5.06,15.06l0.07,-1.84l12.73,0.44l-0.07,1.85l-12.73,-0.45l0,0zm1.13,14.09l-0.95,-7.75l1.8,-0.22l9.75,4.42l-0.64,-5.18l1.78,-0.22l0.89,7.29l-1.6,0.2l-10,-4.59l0.72,5.84l-1.75,0.21l0,0zm1.76,7.96l-0.6,-1.74l12.04,-4.15l0.6,1.74l-5.11,1.76l1.69,4.92l5.11,-1.76l0.6,1.74l-12.05,4.15l-0.6,-1.75l5.22,-1.8l-1.69,-4.91l-5.22,1.8l0,0l0.01,0zm11.12,11.35c-0.58,0.33 -1.06,0.74 -1.47,1.23c-0.4,0.49 -0.69,1.02 -0.85,1.59c-0.18,0.61 -0.23,1.22 -0.16,1.84c0.07,0.62 0.25,1.19 0.55,1.7c0.66,1.14 1.62,1.86 2.87,2.16c1.26,0.3 2.48,0.1 3.68,-0.59c0.51,-0.29 0.94,-0.67 1.3,-1.12c0.36,-0.45 0.63,-0.97 0.81,-1.55c0.21,-0.68 0.28,-1.32 0.22,-1.92c-0.06,-0.6 -0.26,-1.19 -0.59,-1.77c-0.3,-0.52 -0.69,-0.96 -1.15,-1.31c-0.47,-0.36 -0.99,-0.61 -1.58,-0.76c-0.61,-0.15 -1.23,-0.19 -1.87,-0.1c-0.64,0.09 -1.22,0.28 -1.76,0.59l0,0l0,0.01zm-0.95,-1.67c0.77,-0.45 1.59,-0.72 2.45,-0.83c0.86,-0.11 1.73,-0.04 2.61,0.21c0.84,0.23 1.58,0.6 2.22,1.1c0.65,0.5 1.19,1.12 1.62,1.87c0.44,0.77 0.72,1.56 0.83,2.38c0.11,0.81 0.06,1.65 -0.16,2.5c-0.23,0.88 -0.6,1.66 -1.12,2.33c-0.52,0.68 -1.17,1.24 -1.96,1.7c-0.78,0.45 -1.57,0.75 -2.37,0.88c-0.8,0.14 -1.6,0.12 -2.4,-0.06c-0.95,-0.22 -1.78,-0.59 -2.5,-1.11c-0.72,-0.53 -1.32,-1.2 -1.79,-2.02c-0.48,-0.83 -0.76,-1.68 -0.84,-2.57c-0.09,-0.89 0.02,-1.78 0.33,-2.7c0.25,-0.77 0.63,-1.47 1.16,-2.09c0.52,-0.63 1.16,-1.16 1.92,-1.59l0,0zm14.79,11.45l-6.2,5.2c-0.73,0.61 -1.23,1.09 -1.48,1.44c-0.26,0.35 -0.44,0.72 -0.56,1.11c-0.19,0.69 -0.21,1.34 -0.06,1.94c0.15,0.61 0.49,1.22 1.01,1.85c0.48,0.57 1,0.98 1.58,1.22c0.57,0.24 1.2,0.32 1.9,0.24c0.4,-0.05 0.81,-0.18 1.22,-0.4c0.42,-0.23 0.95,-0.61 1.61,-1.17l6.19,-5.2l-1.19,-1.41l-6.21,5.21c-0.87,0.73 -1.59,1.12 -2.15,1.16c-0.56,0.04 -1.1,-0.24 -1.6,-0.84c-0.53,-0.63 -0.74,-1.23 -0.61,-1.78c0.12,-0.55 0.63,-1.2 1.51,-1.94l6.21,-5.21l-1.19,-1.41l0.02,-0.01z" class="h"/>
   <path id="svg_18" fill="#231815" fill-rule="evenodd" d="m109.36,22.21c0.28,-0.29 0.97,-0.17 0.86,0.05c0.03,0.02 0.05,0.06 0.06,0.11c-0.05,0.01 -0.1,0.03 -0.14,0.04c-0.07,0.05 -0.13,0.09 -0.18,0.19c-0.05,0.01 -0.1,0.03 -0.14,0.04c-0.19,-0.1 -0.38,-0.2 -0.53,-0.28c-0.01,-0.05 -0.03,-0.1 -0.04,-0.14c0.05,-0.01 0.1,-0.03 0.13,-0.01l0,0l-0.02,0zm-2.14,1.88l4.24,-0.55l0,0s0,0 0,0l0,0s0.04,-0.03 0.06,-0.04c0.01,0 0.03,0 0.05,-0.01c0.12,-0.22 0.23,-0.44 0.33,-0.63c0.05,-0.02 0.1,-0.03 0.13,-0.01c0.05,-0.09 0.1,-0.19 0.13,-0.25c0.02,-0.03 0.07,-0.05 0.1,-0.03c0.11,0.02 0.22,0.04 0.36,0.07c0.05,-0.01 0.1,-0.03 0.13,-0.01c0.33,0.13 0.69,0.29 1.05,0.44c0.05,-0.01 0.1,-0.03 0.13,-0.01c0.21,-0.09 0.4,-0.15 0.59,-0.21c0.05,-0.01 0.1,-0.03 0.13,-0.01c0.1,-0.11 0.21,-0.17 0.32,-0.23c-0.01,-0.05 -0.03,-0.1 -0.04,-0.14c0.05,-0.01 0.1,-0.03 0.13,-0.01c0.02,-0.03 0.03,-0.06 0.05,-0.09c-0.01,-0.05 -0.03,-0.1 -0.06,-0.11c0.03,-0.06 0.07,-0.13 0.08,-0.16c-0.01,-0.05 -0.03,-0.1 -0.01,-0.13c0.02,-0.11 0.02,-0.19 0.02,-0.27c-0.14,-0.12 -0.28,-0.23 -0.42,-0.34c-0.01,-0.05 -0.03,-0.1 -0.03,-0.1c-0.53,-0.36 -1.06,-0.73 -1.58,-1.04c-0.01,-0.05 -0.03,-0.1 -0.01,-0.13c-0.43,-0.03 -1.32,-0.54 -1.3,-0.58c0.02,-0.03 0.03,-0.06 0.05,-0.09c0.02,-0.03 0.03,-0.06 0.03,-0.06c0.02,-0.03 0.06,-0.05 0.11,-0.06c0.02,-0.03 0.03,-0.06 0.03,-0.06c0.05,-0.01 0.1,-0.03 0.14,-0.04c0.08,-0.08 0.18,-0.11 0.27,-0.14c0.02,-0.03 0.07,-0.05 0.11,-0.06c0.07,-0.05 0.16,-0.07 0.24,-0.07c0.05,-0.01 0.1,-0.03 0.13,-0.01c0.05,-0.01 0.13,-0.01 0.21,-0.01c0.02,-0.03 0.06,-0.04 0.1,-0.03c0.24,0.09 0.5,0.19 0.77,0.29c0.02,-0.03 0.06,-0.05 0.1,-0.03c0.03,0.02 0.06,0.03 0.09,0.05c0.31,0.09 0.63,0.18 0.93,0.3c0.05,-0.02 0.1,-0.03 0.14,-0.04c0.02,-0.03 0.06,-0.05 0.1,-0.03c0.05,-0.01 0.1,-0.03 0.14,-0.04c0.28,-0.29 1.24,0.1 1.65,0.68c0.02,-0.03 0.07,-0.05 0.1,-0.03c0.03,0.02 0.09,0.05 0.16,0.08c0.05,-0.01 0.1,-0.03 0.14,-0.04c0.42,-0.18 0.84,-0.36 1.29,-0.52c0.02,-0.03 0.06,-0.05 0.1,-0.03c0.05,-0.02 0.1,-0.03 0.14,-0.04c0.02,-0.03 0.07,-0.05 0.1,-0.03c0.05,-0.01 0.1,-0.03 0.14,-0.04c0.02,-0.03 0.07,-0.05 0.1,-0.03c0.05,-0.02 0.1,-0.03 0.14,-0.04c0.02,-0.03 0.03,-0.06 0.03,-0.06c0.02,-0.03 0.06,-0.05 0.11,-0.06c0.03,-0.06 0.07,-0.13 0.08,-0.16c0.05,-0.01 0.1,-0.03 0.13,-0.01c0.22,-0.57 0.31,-0.72 0.19,-1.11c-0.01,-0.05 -0.03,-0.1 -0.04,-0.14c-0.09,-0.13 -0.15,-0.24 -0.23,-0.33c-0.01,-0.05 -0.03,-0.1 -0.03,-0.1c-0.05,-0.07 -0.09,-0.13 -0.11,-0.18c-0.01,-0.05 -0.03,-0.1 -0.06,-0.11c-0.12,-0.15 -0.25,-0.29 -0.39,-0.41c-0.01,-0.05 -0.03,-0.1 -0.01,-0.13c-0.25,-0.13 -0.5,-0.27 -0.72,-0.38c-0.01,-0.05 -0.03,-0.1 -0.03,-0.1c-0.3,-0.2 -0.56,-0.38 -0.83,-0.56c-0.01,-0.05 -0.03,-0.1 -0.03,-0.1c-0.14,-0.11 -0.25,-0.21 -0.36,-0.31c-0.01,-0.05 -0.03,-0.1 -0.03,-0.1c0.22,-0.33 0.46,-0.64 0.71,-0.95c0.02,-0.03 0.06,-0.05 0.1,-0.03c0.08,-0.16 0.15,-0.28 0.22,-0.41c0.05,-0.01 0.1,-0.03 0.13,-0.01c0.08,-0.16 0.15,-0.28 0.22,-0.41c0.02,-0.03 0.03,-0.06 0.03,-0.06c0.02,-0.03 0.06,-0.05 0.11,-0.06c0.07,-0.13 0.12,-0.22 0.17,-0.31c0.05,-0.01 0.1,-0.03 0.13,-0.01c0.05,-0.09 0.1,-0.19 0.13,-0.25c0.02,-0.03 0.06,-0.05 0.1,-0.03c0.08,-0.15 0.15,-0.28 0.22,-0.41c0.05,-0.01 0.1,-0.03 0.13,-0.01c0.02,-0.03 0.03,-0.06 0.05,-0.09c-0.02,-0.05 -0.03,-0.1 -0.06,-0.11c-0.16,-0.08 -0.33,-0.13 -0.5,-0.19c-0.05,0.02 -0.1,0.03 -0.11,0.06c-0.25,-0.06 -0.51,-0.11 -0.75,-0.12c-0.05,0.01 -0.1,0.03 -0.14,0.04c-0.08,0 -0.18,0.03 -0.24,0.07c-0.03,-0.02 -0.08,0 -0.1,0.03c-0.16,0 -0.3,0.04 -0.45,0.08c-0.03,-0.02 -0.08,0 -0.13,0.01c-0.16,0 -0.3,0.04 -0.45,0.08c-0.03,-0.02 -0.06,-0.03 -0.06,-0.03c0,-0.16 0,-0.29 0.01,-0.4c0.02,-0.03 0.06,-0.05 0.11,-0.06c0.06,-0.05 0.13,-0.09 0.18,-0.11c0.02,-0.03 0.06,-0.05 0.1,-0.03c0.05,-0.01 0.13,-0.01 0.21,-0.01c0.05,-0.01 0.1,-0.03 0.13,-0.01c0.16,0 0.32,0 0.46,0.04c0.05,-0.01 0.1,-0.03 0.14,-0.04c0.02,-0.03 0.03,-0.06 0.03,-0.06c-0.01,-0.05 -0.03,-0.09 -0.04,-0.14c-0.04,-0.38 0.02,-0.8 -0.2,-0.91c-0.02,-0.05 -0.03,-0.1 -0.06,-0.11c0.02,-0.19 0.03,-0.35 0.06,-0.49c-0.02,-0.05 -0.03,-0.09 -0.03,-0.09c-0.01,-0.05 -0.03,-0.1 -0.04,-0.15c-0.02,-0.05 -0.03,-0.1 -0.03,-0.1c-0.01,-0.05 -0.03,-0.1 -0.04,-0.14c-0.03,-0.02 -0.06,-0.03 -0.06,-0.03c-0.01,-0.05 -0.03,-0.1 -0.06,-0.11c-0.09,-0.05 -0.16,-0.08 -0.22,-0.12c-0.23,0.36 -0.46,0.72 -0.71,1.11c-0.05,0.01 -0.1,0.03 -0.11,0.06c-0.33,0.39 -1.11,0.34 -1.34,0.78c0.01,0.05 0.03,0.09 0.04,0.14c-0.02,0.03 -0.02,0.11 -0.02,0.19c0.03,0.02 0.05,0.06 0.06,0.11c-0.1,0.19 -0.2,0.38 -0.3,0.56c0,0 0.01,0.05 0.03,0.1c-0.02,0.03 -0.03,0.06 -0.05,0.09c0,0 -0.02,0.03 -0.03,0.06c-0.02,0.03 -0.05,0.09 -0.08,0.16c-0.05,0.17 -0.07,0.36 -0.09,0.56c-0.05,0.01 -0.1,0.03 -0.11,0.06c-0.15,0.12 -0.29,0.25 -0.41,0.39c-0.03,-0.02 -0.08,0 -0.13,0.01c-0.19,0.14 -0.37,0.32 -0.55,0.51c-0.05,0.01 -0.1,0.03 -0.14,0.04c-0.15,0.12 -0.29,0.25 -0.41,0.39c-0.03,-0.02 -0.08,0 -0.1,0.03c-0.08,-0.08 -0.15,-0.16 -0.25,-0.21c0.11,-0.35 0.23,-0.65 0.34,-0.94c0.02,-0.03 0.03,-0.06 0.03,-0.06c0.03,-0.06 0.07,-0.13 0.08,-0.16c0.05,-0.01 0.1,-0.03 0.14,-0.04c0.15,-0.28 0.3,-0.57 0.45,-0.85c0.02,-0.03 0.03,-0.06 0.05,-0.09c0.02,-0.03 0.06,-0.05 0.1,-0.03c0.3,-0.56 0.6,-1.13 0.89,-1.66c-0.01,-0.05 -0.03,-0.1 -0.03,-0.1c0.02,-0.11 0.04,-0.22 0.04,-0.3c-0.02,-0.05 -0.03,-0.1 -0.03,-0.1c-0.05,-0.07 -0.09,-0.13 -0.11,-0.18c-0.02,0.03 -0.03,0.06 -0.05,0.09c-0.08,0.16 -0.19,0.34 -0.29,0.53c-0.02,0.03 -0.03,0.06 -0.05,0.09c-0.03,-0.02 -0.08,0 -0.13,0.01c-0.1,0.19 -0.2,0.38 -0.3,0.56c0,0 -0.02,0.03 -0.03,0.06c-0.05,0.01 -0.1,0.03 -0.11,0.06c-0.07,0.13 -0.13,0.25 -0.2,0.38c-0.05,0.02 -0.1,0.03 -0.14,0.04c-0.12,0.22 -0.23,0.44 -0.37,0.69c-0.02,0.03 -0.03,0.06 -0.05,0.09c-0.03,-0.02 -0.08,0 -0.1,0.03c-0.1,0.19 -0.22,0.41 -0.33,0.63c-0.02,0.03 -0.03,0.06 -0.05,0.09c0,0 -0.02,0.03 -0.03,0.06c-0.05,0.01 -0.1,0.03 -0.14,0.04c0,0 -0.02,0.03 -0.03,0.06c0.02,0.05 0.03,0.1 0.04,0.14c-0.17,0.31 -0.33,0.63 -0.5,0.94c-0.03,-0.02 -0.08,0 -0.13,0.01c-0.05,-0.06 -0.09,-0.13 -0.12,-0.15c-0.01,-0.05 -0.03,-0.1 -0.01,-0.13c-0.01,-0.05 -0.03,-0.1 -0.06,-0.11c0.02,-0.11 0.04,-0.22 0.07,-0.28c-0.02,-0.05 -0.03,-0.1 -0.06,-0.11c0.16,-0.52 0.33,-0.99 0.5,-1.46c-0.01,-0.05 -0.03,-0.1 -0.06,-0.11c0.07,-0.13 0.12,-0.22 0.17,-0.31c-0.01,-0.05 -0.03,-0.1 -0.01,-0.13c0.02,-0.03 0.03,-0.06 0.03,-0.06c0.13,-0.25 0.27,-0.5 0.38,-0.72c0,-0.08 0,-0.16 0,-0.21c0.02,-0.03 0.03,-0.06 0.03,-0.06c0.07,-0.13 0.12,-0.22 0.17,-0.31c-0.05,0.01 -0.11,0.06 -0.15,0.12c-0.03,-0.02 -0.08,0 -0.13,0.01c-0.07,0.12 -0.13,0.25 -0.22,0.41c0,0 -0.02,0.03 -0.03,0.06c-0.05,0.01 -0.1,0.03 -0.11,0.06c-0.39,0.72 -0.77,1.44 -1.17,2.2c0,0 0.01,0.05 0.03,0.1c-0.02,0.03 -0.05,0.09 -0.08,0.16c-0.02,0.03 -0.03,0.06 -0.05,0.09c-0.17,0.39 -0.34,0.79 -0.53,1.21c-0.03,-0.02 -0.06,-0.03 -0.09,-0.05c-0.05,0.01 -0.1,0.03 -0.11,0.06c-0.03,-0.02 -0.06,-0.03 -0.09,-0.05c-0.03,-0.02 -0.08,0 -0.1,0.03c-0.14,-0.04 -0.27,-0.02 -0.4,-0.01c-0.05,0.02 -0.1,0.03 -0.14,0.04c-0.03,-0.02 -0.06,-0.03 -0.06,-0.03c-0.03,-0.02 -0.06,-0.03 -0.09,-0.05c-0.07,-0.16 -0.15,-0.32 -0.24,-0.45c-0.01,-0.05 -0.03,-0.1 -0.06,-0.11c-0.02,-0.05 -0.03,-0.1 -0.01,-0.13c-0.09,-0.21 -0.16,-0.37 -0.24,-0.53c-0.01,-0.05 -0.03,-0.1 -0.03,-0.1c-0.01,-0.05 -0.03,-0.1 -0.04,-0.14c-0.09,-0.13 -0.18,-0.26 -0.29,-0.36c-0.08,0.08 -0.16,0.15 -0.26,0.26c-0.05,0.01 -0.1,0.03 -0.11,0.06c0,0 -0.02,0.03 -0.03,0.06c-0.05,0.01 -0.1,0.03 -0.14,0.04c-0.15,0.12 -0.31,0.28 -0.44,0.45c-0.05,0.02 -0.1,0.03 -0.11,0.06c-0.08,0.16 -0.18,0.35 -0.28,0.53c-0.05,0.01 -0.1,0.03 -0.14,0.04c-0.15,0.28 -0.3,0.56 -0.45,0.85c-0.02,0.03 -0.03,0.06 -0.05,0.09c0,0 -0.02,0.03 -0.03,0.06c-0.02,0.03 -0.03,0.06 -0.05,0.09c-0.02,0.03 -0.05,0.09 -0.08,0.16c0,0 -0.02,0.03 -0.03,0.06c-0.2,0.38 -0.42,0.78 -0.64,1.19c0,0 -0.02,0.03 -0.03,0.06c-0.02,0.03 -0.03,0.06 -0.05,0.09c0,0 -0.02,0.03 -0.03,0.06c-0.08,0.08 -0.16,0.15 -0.23,0.28c-0.05,0.02 -0.1,0.03 -0.14,0.04c-0.03,0.06 -0.07,0.12 -0.12,0.22c-0.05,0.02 -0.1,0.03 -0.11,0.06c-0.02,0.03 -0.05,0.09 -0.08,0.16c-0.03,-0.02 -0.08,0 -0.13,0.01c-0.08,0.08 -0.16,0.15 -0.23,0.28c-0.05,0.01 -0.1,0.03 -0.14,0.04c-0.02,0.03 -0.05,0.09 -0.08,0.16c-0.03,-0.02 -0.08,0 -0.1,0.03c-0.02,0.03 -0.05,0.09 -0.08,0.16c-0.05,0.02 -0.1,0.03 -0.14,0.04c-0.05,0.09 -0.1,0.19 -0.17,0.31c0.03,0.02 0.05,0.06 0.06,0.11c-0.07,0.13 -0.1,0.27 -0.15,0.44c0.03,0.02 0.05,0.06 0.06,0.11c-0.03,0.06 -0.05,0.17 -0.07,0.28c0.03,0.02 0.06,0.03 0.09,0.05c0.08,-0.08 0.19,-0.14 0.29,-0.17c0.02,-0.03 0.07,-0.05 0.1,-0.03c0.16,-0.15 0.73,0.15 0.84,-0.07c0.08,0.08 0.15,0.16 0.25,0.3c0.35,-0.5 0.36,-1.06 0.45,-1.21c0.05,-0.01 0.1,-0.03 0.14,-0.04c0.03,-0.06 0.07,-0.13 0.08,-0.16c0.02,-0.03 0.06,-0.05 0.1,-0.03c0.23,-0.28 0.49,-0.54 0.75,-0.81c0.02,-0.03 0.06,-0.05 0.11,-0.06c0.03,-0.06 0.07,-0.13 0.08,-0.16c0.05,-0.01 0.1,-0.03 0.13,-0.01c0.07,-0.13 0.15,-0.2 0.23,-0.28c0.05,-0.01 0.1,-0.03 0.14,-0.04c0.05,-0.09 0.12,-0.14 0.18,-0.19c0.05,-0.02 0.1,-0.03 0.14,-0.04c0.11,-0.14 0.26,-0.26 0.41,-0.39c0.02,-0.03 0.06,-0.05 0.1,-0.03c0.05,-0.01 0.1,-0.03 0.14,-0.04c0.02,-0.03 0.06,-0.05 0.1,-0.03c0.34,-0.1 0.7,-0.19 1.05,-0.24c0.02,-0.03 0.07,-0.05 0.11,-0.06c0.05,-0.01 0.1,-0.03 0.13,-0.01c0.14,-0.04 0.29,-0.09 0.45,-0.08c0.02,-0.03 0.07,-0.05 0.1,-0.03c0.27,-0.06 0.56,-0.06 0.84,-0.07c0.05,-0.01 0.1,-0.03 0.13,-0.01c0.32,0 0.62,0.05 0.95,0.1c0.02,-0.03 0.06,-0.05 0.11,-0.06c0.03,0.02 0.06,0.03 0.09,0.05c0.02,-0.03 0.06,-0.05 0.1,-0.03c0.22,0.04 0.44,0.08 0.65,0.14c0.02,-0.03 0.06,-0.05 0.11,-0.06c0.03,0.02 0.06,0.03 0.09,0.05c0.02,-0.03 0.06,-0.05 0.1,-0.03c0.06,0.03 0.16,0.08 0.25,0.13c0.02,-0.03 0.06,-0.05 0.11,-0.06c0.51,0.11 1.01,0.22 1.55,0.34c0.02,-0.03 0.06,-0.05 0.11,-0.06c0.06,0.03 0.16,0.08 0.25,0.13c0.02,-0.03 0.06,-0.05 0.1,-0.03c0.06,0.03 0.16,0.08 0.25,0.13c0.02,-0.03 0.07,-0.05 0.11,-0.06c0.03,0.02 0.09,0.05 0.16,0.08c0.05,-0.01 0.1,-0.03 0.13,-0.01c0.11,0.02 0.22,0.04 0.36,0.07c0.02,-0.03 0.06,-0.05 0.1,-0.03c0.44,0.16 0.88,0.31 1.34,0.51c0.03,0.02 0.05,0.06 0.06,0.11c0.12,0.07 0.25,0.13 0.38,0.2c0.01,0.05 0.03,0.1 0.04,0.14c0.01,0.05 0.04,0.14 0.07,0.24c0,0 0.02,0.05 0.03,0.1c-0.08,0.08 -0.16,0.15 -0.23,0.28c-0.05,0.01 -0.1,0.03 -0.14,0.04c-0.4,0.07 -2.51,0.47 -2.85,0.29c-0.03,-0.02 -0.08,0 -0.13,0.01c-0.17,-0.13 -0.34,-0.26 -0.53,-0.36c0,-0.29 -0.02,-0.57 -0.03,-0.86c-0.23,-0.16 -0.44,-0.31 -0.66,-0.43c-0.05,0.01 -0.1,0.03 -0.14,0.04c-0.03,-0.02 -0.06,-0.03 -0.06,-0.03c-0.03,-0.02 -0.08,0 -0.13,0.01c-0.14,-0.04 -0.25,-0.05 -0.36,-0.07c-0.03,-0.02 -0.08,0 -0.1,0.03c-0.11,-0.02 -0.22,-0.04 -0.3,-0.04c-0.03,-0.02 -0.08,0 -0.1,0.03c-0.57,-0.06 -1.13,-0.08 -1.68,-0.09c-0.05,0.01 -0.1,0.03 -0.11,0.06c-0.33,-0.06 -0.63,-0.1 -0.95,-0.1c-0.03,-0.02 -0.08,0 -0.13,0.01c-0.16,0.07 -0.29,0.17 -0.44,0.29c-0.03,-0.02 -0.08,0 -0.13,0.01c-0.05,0.02 -0.1,0.03 -0.11,0.06c-0.03,-0.02 -0.08,0 -0.13,0.01c-0.02,0.03 -0.03,0.06 -0.05,0.09c0,0 -0.02,0.03 -0.03,0.06c-0.02,0.03 -0.05,0.09 -0.08,0.16c0.01,0.05 0.03,0.1 0.04,0.14c0.22,0.12 0.42,0.27 0.66,0.43c0.05,-0.01 0.1,-0.03 0.13,-0.01c0.17,0.05 0.35,0.11 0.52,0.16c0.02,-0.03 0.07,-0.05 0.1,-0.03c0.06,0.03 0.16,0.08 0.23,0.16c-0.03,0.06 -0.07,0.13 -0.1,0.19c-0.05,0.02 -0.1,0.03 -0.14,0.04c-0.16,0.08 -0.29,0.17 -0.42,0.26c-0.05,0.01 -0.1,0.03 -0.14,0.04c-0.19,0.14 -0.37,0.32 -0.56,0.51c-0.03,-0.02 -0.08,0 -0.13,0.01c-0.02,0.03 -0.03,0.06 -0.05,0.09c-0.03,-0.02 -0.08,0 -0.1,0.03c-0.02,0.03 -0.03,0.06 -0.05,0.09c-0.03,-0.02 -0.08,0 -0.13,0.01c-0.41,0.31 -0.94,0.18 -1.34,0.17c-0.34,0.1 -0.66,0.25 -0.98,0.4c-0.05,0.01 -0.1,0.03 -0.11,0.06c-0.03,-0.02 -0.08,0 -0.13,0.01c-0.13,0.01 -0.24,0.07 -0.35,0.13c-0.03,-0.02 -0.08,0 -0.13,0.01c-0.04,0.14 -0.07,0.28 -0.12,0.46c0,0 0.03,0.02 0.06,0.03c0.38,0.12 0.79,0.26 1.18,0.43c0.03,0.02 0.05,0.06 0.06,0.11c-0.07,0.13 -0.13,0.25 -0.19,0.42c0.09,0.05 0.17,0.13 0.25,0.21c-0.02,0.03 0,0.08 0.01,0.13c-0.04,0.22 -0.06,0.49 -0.08,0.76c0,0 0.02,0.05 0.03,0.1c-0.05,0.17 -0.07,0.36 -0.09,0.55c0.01,0.05 0.03,0.1 0.04,0.14q-0.05,0.17 0.04,0.3s0,0.08 0.01,0.13c0.06,0.03 0.14,0.11 0.22,0.2c-0.02,0.03 0,0.08 0.01,0.13l0,0l-0.08,0.08zm4.25,-0.55s-0.02,0.03 -0.03,0.06c0,0 0,0 0,0c-0.05,0.09 -0.1,0.19 -0.17,0.31c-0.05,0.02 -0.1,0.03 -0.14,0.04c-0.07,0.13 -0.13,0.25 -0.2,0.38c-0.05,0.01 -0.1,0.03 -0.11,0.06c-0.08,0.16 -0.17,0.31 -0.25,0.47c-0.03,-0.02 -0.08,0 -0.13,0.01c-0.05,0.01 -0.1,0.03 -0.11,0.06c-0.03,-0.02 -0.08,0 -0.13,0.01c-0.05,0.02 -0.1,0.03 -0.11,0.06c-0.03,-0.02 -0.06,-0.03 -0.09,-0.05c-0.03,-0.02 -0.08,0 -0.1,0.03c-0.03,-0.02 -0.06,-0.03 -0.09,-0.05c-0.05,0.02 -0.1,0.03 -0.11,0.06c-0.13,-0.07 -0.24,-0.09 -0.35,-0.11c-0.05,0.01 -0.1,0.03 -0.14,0.04c-0.24,-0.09 -0.49,-0.14 -0.71,-0.18c-0.03,-0.02 -0.08,0 -0.1,0.03c-0.39,-0.25 -0.78,-0.5 -1.16,-0.7l4.24,-0.55l0,0l-0.01,0.02zm5.02,-10.01s-0.08,0 -0.1,0.03c-0.13,0.09 -0.26,0.18 -0.37,0.32c-0.09,-0.05 -0.2,-0.07 -0.28,-0.07c0.18,-0.27 0.4,-0.52 0.59,-0.73c0.08,0 0.19,0.02 0.28,0.07c-0.05,0.09 -0.09,0.24 -0.12,0.38z" class="h"/>
   <path id="svg_19" fill="#231815" fill-rule="evenodd" d="m144.63,33.37s0.08,0 0.13,0c0.01,-0.05 0.02,-0.1 0.02,-0.1c0.3,-0.19 0.62,-0.35 0.94,-0.51c0.08,0 0.16,-0.02 0.21,0c0.1,0.02 0.2,0.04 0.29,0.07c0,-0.08 0,-0.13 -0.02,-0.16c0.18,-0.11 0.36,-0.23 0.51,-0.32c0.05,0.01 0.1,0.02 0.15,0.03c0.06,-0.04 0.12,-0.08 0.15,-0.1c0.03,-0.02 0.08,0 0.1,0.02c0.26,-0.12 0.54,-0.21 0.79,-0.29c0.05,0.01 0.1,0.02 0.12,0.05q0.56,-0.11 0.97,-0.32c0.04,0.06 0.07,0.17 0.09,0.28c-0.11,0.15 -0.22,0.31 -0.35,0.51c0.02,0.03 0,0.08 0,0.13c-0.03,0.02 -0.09,0.06 -0.15,0.09c-0.03,0.02 -0.06,0.04 -0.09,0.06c-0.07,0.09 -0.12,0.2 -0.21,0.34c0,0 0.02,0.03 0.04,0.06c0.05,0.01 0.1,0.02 0.15,0.03c0.21,0.07 0.4,0.17 0.59,0.26c0.03,-0.02 0.08,0 0.1,0.02c0.21,0.07 0.4,0.17 0.59,0.26c0.05,0.01 0.1,0.02 0.15,0.03c0,0 0.02,0.03 0.04,0.06c0.05,0.01 0.1,0.02 0.12,0.05c0.05,0.01 0.12,0.05 0.19,0.09c0.03,-0.02 0.08,0 0.1,0.02c0.13,0 0.27,0.04 0.39,0.09c0.03,-0.02 0.06,-0.04 0.06,-0.04c0.03,-0.02 0.06,-0.04 0.09,-0.06c0.03,-0.02 0.08,0 0.1,0.02c0.03,-0.02 0.06,-0.04 0.09,-0.06c0,-0.05 0.02,-0.1 0.02,-0.1c0.09,-0.06 0.18,-0.11 0.24,-0.15c0,-0.05 0.02,-0.1 0,-0.13c0.09,-0.06 0.18,-0.11 0.24,-0.15c0.01,-0.05 0.02,-0.1 0.02,-0.1c0.09,-0.06 0.18,-0.11 0.24,-0.15c0.01,-0.05 0.02,-0.1 0,-0.13c0.15,-0.09 0.27,-0.17 0.39,-0.25c0.05,0.01 0.1,0.02 0.12,0.05c0.06,-0.04 0.14,-0.05 0.19,-0.03c0.05,0.01 0.1,0.02 0.15,0.03c0.29,0.19 0.68,0.28 0.72,0.68c0.02,0.03 0,0.08 0,0.13c-0.03,0.02 -0.04,0.07 -0.05,0.12c0.02,0.03 0,0.08 0,0.13c0.03,0.19 0.06,0.43 0.08,0.66c0.02,0.03 0,0.08 0,0.13c-0.06,0.04 -0.13,0.12 -0.2,0.21c0.02,0.03 0,0.08 0,0.13c-0.08,0.14 -0.16,0.27 -0.28,0.43c0.17,0.27 0.45,0.51 0.83,0.78c0.05,0.01 0.1,0.02 0.12,0.05c0.23,0.36 0.46,0.72 0.7,1.11c0.02,0.03 0,0.08 0,0.13c0.03,0.11 0.02,0.24 0.04,0.4c-0.03,0.02 -0.04,0.07 -0.05,0.12q0.03,0.11 -0.5,0.87s-0.01,0.05 -0.02,0.1c-0.16,0.14 -0.33,0.34 -0.51,0.53c-0.05,-0.01 -0.1,-0.02 -0.13,0c-0.26,-0.09 -0.56,-0.15 -0.85,-0.22c-0.05,-0.01 -0.1,-0.02 -0.13,0c-0.25,-0.13 -0.51,-0.27 -0.74,-0.37c-0.05,-0.01 -0.1,-0.02 -0.15,-0.03c-0.09,-0.07 -0.18,-0.09 -0.28,-0.11c-0.02,-0.03 -0.07,-0.04 -0.12,-0.05c-0.47,-0.34 -0.89,-0.95 -0.89,-1.21c0.01,-0.05 0.02,-0.1 0.03,-0.15c0,-0.13 0.03,-0.23 0.02,-0.31c0.01,-0.05 0.02,-0.1 0,-0.13c-0.03,-0.11 -0.03,-0.19 -0.04,-0.27c-0.05,-0.01 -0.1,-0.02 -0.15,-0.03c-0.04,-0.06 -0.08,-0.12 -0.1,-0.15c-0.22,0.05 -0.47,0.13 -0.7,0.23c-0.02,-0.03 -0.07,-0.04 -0.1,-0.02c-0.14,-0.08 -0.28,-0.12 -0.43,-0.15c-0.02,-0.03 -0.07,-0.04 -0.12,-0.05c-0.09,-0.07 -0.15,-0.11 -0.22,-0.15c-0.02,-0.03 -0.07,-0.04 -0.12,-0.05c-0.05,-0.01 -0.1,-0.02 -0.13,0c-0.02,-0.03 -0.07,-0.04 -0.12,-0.05c-0.09,-0.07 -0.19,-0.09 -0.28,-0.12c-0.05,0 -0.1,-0.02 -0.15,-0.03c-0.11,-0.1 -0.22,-0.15 -0.34,-0.21c-0.02,-0.03 -0.07,-0.04 -0.1,-0.02c-0.02,-0.03 -0.04,-0.06 -0.06,-0.09c-0.04,-0.06 -0.08,-0.12 -0.09,-0.15c-0.06,-0.09 -0.09,-0.15 -0.13,-0.21c0.29,-0.14 0.57,-0.23 0.85,-0.32c0.03,-0.02 0.08,0 0.1,0.02c0.25,-0.07 0.51,-0.11 0.75,-0.14c0.03,-0.02 0.08,0 0.13,0c0.18,0.01 0.33,0.05 0.49,0.11c0.05,0.01 0.1,0.02 0.12,0.05c0.17,0.06 0.33,0.13 0.47,0.21c0.05,0.01 0.1,0.02 0.12,0.05c0.09,0.07 0.17,0.14 0.28,0.24c0.03,-0.02 0.08,0 0.1,0.02q0.11,0.31 0.04,0.39s0,0.08 0,0.13c-0.12,0.08 -0.1,0.23 -0.05,0.45c0.03,-0.02 0.08,0 0.13,0c0.14,0.08 0.27,0.16 0.4,0.3c0.03,-0.02 0.08,0 0.1,0.02c0.05,0.01 0.12,0.05 0.18,0.09c0.05,0.01 0.1,0.02 0.12,0.05c0.39,0.09 0.78,0.18 1.16,0.31c0.03,-0.02 0.08,0 0.1,0.02c0.05,0.01 0.1,0.02 0.15,0.03c0.15,-0.09 0.32,-0.16 0.49,-0.22c0.01,-0.05 0.02,-0.1 0.02,-0.1c0.11,-0.49 -0.04,-0.52 -0.14,-0.75c-0.05,0 -0.1,-0.02 -0.15,-0.03c-0.08,-0.12 -0.16,-0.19 -0.25,-0.26c-0.05,-0.01 -0.1,-0.02 -0.13,0c-0.16,-0.11 -0.31,-0.22 -0.5,-0.32c-0.05,0 -0.1,-0.02 -0.15,-0.03c-0.04,-0.06 -0.11,-0.1 -0.15,-0.11c-0.05,-0.01 -0.1,-0.02 -0.13,0c-0.02,-0.03 -0.04,-0.06 -0.06,-0.09c-0.02,-0.03 -0.07,-0.04 -0.1,-0.02c-0.09,-0.07 -0.17,-0.14 -0.24,-0.18c-0.02,-0.03 -0.07,-0.04 -0.1,-0.02c-0.16,-0.19 -0.33,-0.38 -0.47,-0.54c-0.02,-0.03 -0.07,-0.04 -0.12,-0.05c-0.14,-0.16 -0.32,-0.3 -0.47,-0.42c-0.05,0 -0.1,-0.02 -0.15,-0.03c-0.02,-0.03 -0.04,-0.06 -0.04,-0.06c-0.02,-0.03 -0.07,-0.04 -0.12,-0.05c-0.07,-0.04 -0.14,-0.08 -0.18,-0.09c-0.02,-0.03 -0.07,-0.04 -0.1,-0.02c-0.33,-0.13 -0.57,-0.23 -0.88,-0.2c-0.02,-0.03 -0.07,-0.04 -0.1,-0.02c-0.03,0.02 -0.06,0.04 -0.09,0.06c-0.56,0.18 -1.25,-0.38 -1.72,0.08c-0.38,0 -0.75,0.01 -1.14,0.05c-0.02,-0.03 -0.07,-0.04 -0.12,-0.05c-0.05,-0.01 -0.1,-0.02 -0.13,0c-0.02,-0.03 -0.07,-0.04 -0.12,-0.05c-0.14,-0.08 -0.28,-0.12 -0.43,-0.15c-0.02,-0.03 -0.07,-0.04 -0.1,-0.02c-0.11,-0.1 -0.19,-0.17 -0.28,-0.24c0.12,-0.08 0.21,-0.13 0.3,-0.19l0,0l-0.01,-0.02zm-3.83,9.37c0.52,0.76 1.07,1.55 1.58,2.36c0.03,-0.02 0.08,0 0.13,0c0.16,0.19 0.35,0.41 0.5,0.65c0.03,-0.02 0.08,0 0.13,0c0.02,0.03 0.06,0.09 0.09,0.15c0.05,0.01 0.1,0.02 0.12,0.05c0.24,0.05 0.46,0.13 0.67,0.2c0.03,-0.02 0.08,0 0.1,0.02c0.14,-0.05 0.27,-0.04 0.4,-0.04c0.05,0.01 0.1,0.02 0.15,0.03c0.17,-0.07 0.36,-0.1 0.55,-0.14c0.06,-0.04 0.14,-0.05 0.19,-0.03c0.26,-0.12 0.49,-0.23 0.72,-0.33c0.03,-0.02 0.08,0 0.13,0c0.2,-0.08 0.4,-0.17 0.57,-0.23c0.03,-0.02 0.08,0 0.13,0c0.15,-0.09 0.3,-0.19 0.45,-0.28c0.05,0.01 0.1,0.02 0.12,0.05c0.3,-0.19 0.57,-0.36 0.84,-0.53c0,-0.05 0.02,-0.1 0,-0.13c0.18,-0.11 0.36,-0.23 0.54,-0.34c0.01,-0.05 0.02,-0.1 0.02,-0.1c0.42,-0.47 0.2,-0.68 0.5,-0.87c0.01,-0.05 0.02,-0.1 0.05,-0.12c0.03,-0.02 0.06,-0.04 0.06,-0.04c0.1,-0.11 0.17,-0.19 0.24,-0.28c0.01,-0.05 0.02,-0.1 0.05,-0.12c0.09,-0.18 0.19,-0.37 0.28,-0.56c-0.23,-0.03 -0.45,-0.05 -0.66,-0.05c-0.05,0 -0.1,-0.02 -0.15,-0.03c-0.03,0.02 -0.09,0.06 -0.15,0.09c-0.02,-0.03 -0.07,-0.04 -0.1,-0.02c-0.03,0.02 -0.09,0.06 -0.15,0.09c-0.05,0 -0.1,-0.02 -0.15,-0.03c-0.12,0.08 -0.24,0.15 -0.36,0.23c-0.05,-0.01 -0.1,-0.02 -0.13,0c-0.06,0.04 -0.12,0.08 -0.21,0.13c-0.05,-0.01 -0.1,-0.02 -0.15,-0.03c0,0 -0.03,0.02 -0.06,0.04c-0.05,-0.01 -0.1,-0.02 -0.13,0c-0.88,0.26 -1.76,0.4 -2.79,0.59c-0.02,-0.03 -0.07,-0.04 -0.1,-0.02c-0.81,-0.41 -1.25,-1.18 -1.68,-1.79c0.01,-0.05 0.02,-0.1 0.05,-0.12c-0.08,-0.12 -0.13,-0.21 -0.19,-0.3c-0.02,-0.03 -0.04,-0.06 -0.06,-0.09c-0.06,-0.09 -0.09,-0.15 -0.13,-0.21c0.01,-0.05 0.02,-0.1 0,-0.13c-0.02,-0.03 -0.04,-0.06 -0.04,-0.06c0,-0.05 0.02,-0.1 0.03,-0.15c0.05,-0.12 0.07,-0.21 0.11,-0.28c0.01,-0.05 0.02,-0.1 0.05,-0.12c0.03,-0.02 0.08,0 0.1,0.02c0.12,-0.08 0.21,-0.13 0.3,-0.19c0.05,0.01 0.1,0.02 0.15,0.03c0.09,-0.06 0.15,-0.09 0.21,-0.13c0.03,-0.02 0.08,0 0.13,0c0.14,-0.05 0.28,-0.09 0.42,-0.14c0.03,-0.02 0.08,0 0.13,0c0.03,-0.02 0.06,-0.04 0.06,-0.04c0.05,0.01 0.1,0.02 0.15,0.03c0.27,-0.04 0.53,-0.09 0.79,-0.08c0.03,-0.02 0.08,0 0.1,0.02c0.06,-0.04 0.12,-0.08 0.15,-0.1c0.05,0.01 0.1,0.02 0.15,0.03c0.09,-0.06 0.17,-0.07 0.25,-0.07c0.05,0.01 0.1,0.02 0.15,0.03c0.12,-0.07 0.24,-0.15 0.36,-0.23c0.03,-0.02 0.08,0 0.13,0q0.43,-0.31 0.54,-0.55c-0.11,-0.1 -0.19,-0.17 -0.31,-0.22c-0.02,-0.03 -0.07,-0.04 -0.1,-0.02c-0.08,0 -0.19,0.04 -0.3,0.06c-0.02,-0.03 -0.07,-0.04 -0.1,-0.02c-0.03,0.02 -0.06,0.04 -0.09,0.06c-0.02,-0.03 -0.07,-0.04 -0.12,-0.05c-0.2,-0.04 -0.37,-0.06 -0.58,-0.05c-0.02,-0.03 -0.07,-0.04 -0.1,-0.02c-0.05,-0.01 -0.1,-0.02 -0.15,-0.03c-0.23,-0.02 -0.48,-0.03 -0.74,-0.04c-0.05,-0.01 -0.1,-0.02 -0.15,-0.03c-0.21,0 -0.43,0.06 -0.64,0.11c-0.05,-0.01 -0.1,-0.02 -0.15,-0.03c-0.19,0.03 -0.41,0.09 -0.6,0.17c-0.05,-0.01 -0.1,-0.02 -0.13,0c-0.03,0.02 -0.09,0.06 -0.15,0.09c-0.02,-0.03 -0.07,-0.04 -0.12,-0.05c-0.06,0.04 -0.15,0.09 -0.24,0.15c-0.02,-0.03 -0.07,-0.04 -0.1,-0.02c-0.15,0.1 -0.3,0.19 -0.45,0.28c-0.05,-0.01 -0.1,-0.02 -0.15,-0.03q-0.73,0.51 -0.96,0.81s0,0.08 0,0.13c-0.1,0.11 -0.18,0.24 -0.3,0.4c0,0 0,0.05 -0.02,0.1c-0.04,0.2 -0.09,0.39 -0.14,0.64c0,0 -0.01,0.05 -0.02,0.1c0,0.05 -0.02,0.1 -0.03,0.15c0.06,0.09 0.08,0.2 0.13,0.34c-0.03,0.02 -0.04,0.07 -0.05,0.12c0.04,0.06 0.09,0.15 0.15,0.24c0,0 -0.01,0.05 -0.02,0.1c0.04,0.06 0.09,0.15 0.15,0.24c-0.03,0.02 -0.04,0.07 -0.05,0.12c0.06,0.09 0.11,0.18 0.19,0.3c0.02,0.03 0,0.08 0,0.13l0,0l0.01,0.03zm-3.5,-6.33c0.11,0.1 0.21,0.2 0.34,0.33c0.03,-0.02 0.08,0 0.1,0.02c0.08,0 0.18,0.01 0.25,0.05c0.05,0.01 0.1,0.02 0.15,0.03c0.03,-0.02 0.08,0 0.1,0.02c0.2,0.04 0.36,0.11 0.55,0.2c0.03,-0.02 0.08,0 0.13,0c0.2,0.04 0.39,0.09 0.61,0.16c0.03,-0.02 0.08,0 0.13,0c0.16,-0.02 0.3,0.02 0.45,0.05c0.03,-0.02 0.08,0 0.1,0.02c0.16,-0.02 0.3,0.02 0.45,0.05c0.03,-0.02 0.08,0 0.13,0c0.05,0.01 0.1,0.02 0.12,0.05c0.16,-0.02 0.29,-0.01 0.43,0.02c0.05,0.01 0.1,0.02 0.15,0.03c0.16,-0.02 0.29,-0.01 0.43,0.02c0.05,0.01 0.1,0.02 0.12,0.05c0.11,-0.03 0.24,-0.02 0.34,0c0.03,-0.02 0.08,0 0.1,0.02c0.66,0.05 1.32,0.09 1.98,0.14c0.03,-0.02 0.08,0 0.13,0c0.08,0 0.16,-0.02 0.21,0c0.03,-0.02 0.08,0 0.1,0.02c0.08,0 0.16,-0.02 0.21,0c0.03,-0.02 0.08,0 0.13,0c0.2,0.04 0.39,0.09 0.61,0.16c0.03,-0.02 0.08,0 0.13,0c0.05,0.01 0.1,0.02 0.12,0.05c0.03,-0.02 0.08,0 0.13,0c0.05,0.01 0.1,0.02 0.12,0.05c0.03,-0.02 0.08,0 0.13,0c0.03,-0.02 0.06,-0.04 0.06,-0.04c0.05,0.01 0.1,0.02 0.15,0.03c0.08,0 0.18,0.01 0.25,0.05c0.03,-0.02 0.08,0 0.1,0.02c0.03,-0.02 0.06,-0.04 0.09,-0.06c0.05,0.01 0.1,0.02 0.12,0.05c0.02,0.03 0.06,0.09 0.09,0.15c0.03,-0.02 0.08,0 0.13,0c0.02,0.03 0.04,0.06 0.06,0.09c0.03,-0.02 0.08,0 0.1,0.02c0.02,0.03 0.04,0.06 0.06,0.09c0.03,-0.02 0.08,0 0.13,0c0.02,0.03 0.04,0.06 0.06,0.09c0.03,-0.02 0.08,0 0.1,0.02c0.02,0.03 0.04,0.06 0.06,0.09c0.03,-0.02 0.08,0 0.13,0c0.05,0.01 0.12,0.05 0.15,0.11c0.05,0.01 0.1,0.02 0.15,0.03c0.03,-0.02 0.08,0 0.1,0.02c0.05,0.01 0.1,0.02 0.15,0.03c0.14,-0.17 0.28,-0.35 0.41,-0.47c0.01,-0.05 0.02,-0.1 0.03,-0.15c-0.05,-0.22 -0.11,-0.43 -0.17,-0.6c-0.05,-0.01 -0.1,-0.02 -0.15,-0.03c-0.02,-0.03 -0.04,-0.06 -0.04,-0.06c-0.02,-0.03 -0.07,-0.04 -0.12,-0.05q-0.27,-0.16 -1.17,-0.31s-0.07,-0.04 -0.1,-0.02c-0.05,0 -0.1,-0.02 -0.15,-0.03c-0.04,-0.06 -0.11,-0.1 -0.15,-0.11c-0.05,-0.01 -0.1,-0.02 -0.13,0c-0.11,-0.1 -0.22,-0.15 -0.34,-0.21c-0.02,-0.03 -0.07,-0.04 -0.12,-0.05c-0.02,-0.03 -0.04,-0.06 -0.04,-0.06c-0.05,-0.01 -0.1,-0.02 -0.15,-0.03c-0.21,-0.2 -0.41,-0.37 -0.63,-0.53c-0.05,-0.01 -0.1,-0.02 -0.15,-0.03c-0.08,-0.12 -0.16,-0.19 -0.25,-0.26c-0.02,-0.03 -0.04,-0.06 -0.04,-0.06c-0.04,-0.06 0.31,-0.24 0.49,-0.22c0.05,0 0.1,0.02 0.12,0.05c0.13,0 0.26,0 0.37,0.06c-0.11,-0.1 -0.24,-0.18 -0.38,-0.27c-0.05,-0.01 -0.1,-0.02 -0.15,-0.03c-0.2,-0.04 -0.37,-0.06 -0.55,-0.07c-0.05,-0.01 -0.1,-0.02 -0.13,0c-0.22,0.05 -0.47,0.13 -0.7,0.23c-0.02,-0.03 -0.07,-0.04 -0.12,-0.05c-0.03,0.02 -0.09,0.06 -0.15,0.1c-0.05,-0.01 -0.1,-0.02 -0.13,0c-0.22,0.05 -0.47,0.13 -0.7,0.23c0,0 -0.03,0.02 -0.06,0.04c-0.03,0.02 -0.06,0.04 -0.09,0.06c0.08,0.33 0.4,0.5 0.76,0.87c0.02,0.03 0.04,0.06 0.06,0.09c-0.11,0.15 -0.62,0.01 -0.85,0c-0.02,-0.03 -0.07,-0.04 -0.1,-0.02c-0.06,-0.09 -0.21,0 -0.24,-0.06c-0.05,-0.01 -0.1,-0.02 -0.15,-0.03c-0.2,-0.04 -0.37,-0.06 -0.55,-0.07c-0.05,-0.01 -0.1,-0.02 -0.13,0c-0.02,-0.03 -0.07,-0.04 -0.12,-0.05c-0.05,-0.01 -0.1,-0.02 -0.13,0c-0.02,-0.03 -0.07,-0.04 -0.12,-0.05c-0.05,-0.01 -0.1,-0.02 -0.13,0c-0.07,-0.04 -0.17,-0.06 -0.24,-0.05c-0.02,-0.03 -0.07,-0.04 -0.12,-0.05c-0.2,-0.04 -0.37,-0.06 -0.58,-0.05c-0.02,-0.03 -0.07,-0.04 -0.1,-0.02c-0.77,-0.15 -1.42,-0.32 -2.16,-0.23c-0.02,-0.03 -0.07,-0.04 -0.1,-0.02c-0.03,0.02 -0.06,0.04 -0.09,0.06c-0.02,-0.03 -0.07,-0.04 -0.12,-0.05c-0.03,0.02 -0.09,0.06 -0.15,0.09c-0.05,0 -0.1,-0.02 -0.13,0c-0.06,0.04 -0.12,0.08 -0.21,0.13c-0.03,0.02 -0.04,0.07 -0.05,0.12l0,0l-0.03,-0.01zm-1.07,-2.69c0,0.13 0.01,0.29 0.03,0.44c0.14,0.08 0.29,0.19 0.45,0.31c0.05,0.01 0.1,0.02 0.15,0.03c0.03,-0.02 0.08,0 0.1,0.02c0.05,0.01 0.1,0.02 0.15,0.03c0.03,-0.02 0.06,-0.04 0.06,-0.04c0.03,-0.02 0.08,0 0.13,0c0.09,-0.06 0.15,-0.09 0.21,-0.13c0.05,0.01 0.1,0.02 0.15,0.03c0.31,-0.24 0.62,-0.48 0.9,-0.7c0,-0.05 0.02,-0.1 0.05,-0.12c0.42,-0.27 0.84,-0.53 1.26,-0.8c0.01,-0.05 0.02,-0.1 0.03,-0.15c0.03,-0.02 0.06,-0.04 0.06,-0.04c0.03,-0.02 0.06,-0.04 0.09,-0.06c0.67,-0.47 1.31,-0.92 1.97,-1.33c0.03,-0.02 0.06,-0.04 0.09,-0.06c0.03,-0.02 0.06,-0.04 0.06,-0.04c0.09,-0.06 0.2,-0.08 0.28,-0.09c0.01,-0.05 0.02,-0.1 0.02,-0.1c0.03,-0.02 0.08,0 0.13,0c0.2,-0.08 0.4,-0.17 0.57,-0.23c0.03,-0.02 0.08,0 0.13,0c0.04,0.06 0.09,0.15 0.15,0.24c-0.18,0.11 -0.39,0.25 -0.6,0.38c-0.03,0.02 -0.04,0.07 -0.05,0.12c-0.03,0.02 -0.09,0.06 -0.15,0.09c0.02,0.03 0,0.08 0,0.13c0.11,0.1 0.21,0.2 0.29,0.32c0.05,0.01 0.1,0.02 0.15,0.03c0.4,-0.04 0.79,-0.08 1.19,-0.12c0.03,-0.02 0.08,0 0.1,0.02c0.03,-0.02 0.06,-0.04 0.09,-0.06c0.05,0.01 0.1,0.02 0.12,0.05c0.17,-0.07 0.36,-0.1 0.55,-0.13c0.03,-0.02 0.06,-0.04 0.09,-0.06c0.03,-0.02 0.08,0 0.1,0.02c0.15,-0.1 0.27,-0.17 0.39,-0.25c0.01,-0.05 0.02,-0.1 0.02,-0.1c0.2,-0.34 0.43,-0.65 0.65,-0.96c0.01,-0.05 0.02,-0.1 0.05,-0.12c0.03,-0.02 0.06,-0.04 0.06,-0.04c0.01,-0.05 0.02,-0.1 0.03,-0.15c0.01,-0.05 0.02,-0.1 0.02,-0.1c0.17,-0.06 0.33,-0.08 0.49,-0.1c0.03,-0.02 0.08,0 0.1,0.02c0.27,0.04 0.55,0.07 0.83,0.11c0.05,0.01 0.1,0.02 0.12,0.05c0.48,-0.1 0.76,-0.19 1.03,-0.36c0.01,-0.05 0.02,-0.1 0.05,-0.12q0.15,-0.3 0.11,-0.62s0.02,-0.1 0.05,-0.12c-0.04,-0.06 -0.08,-0.12 -0.09,-0.15c-0.05,-0.01 -0.1,-0.02 -0.15,-0.03c-0.13,-0.13 -1.01,-0.54 -1.17,-0.52c-0.02,-0.03 -0.07,-0.04 -0.1,-0.02q-0.37,-0.06 -1.13,0.08s-0.07,-0.04 -0.12,-0.05c-0.12,0.07 -0.24,0.15 -0.39,0.25c0.06,0.09 0.08,0.2 0.13,0.34c0.02,0.03 0.04,0.06 0.06,0.09q0.22,0.49 0.17,0.61s-0.1,-0.02 -0.13,0c-0.33,0.21 -0.69,0.44 -1.05,0.67c0,0 -0.03,0.02 -0.06,0.04c-0.05,-0.01 -0.13,0 -0.21,0c-0.09,0.06 -0.18,0.11 -0.3,0.19c-0.05,-0.01 -0.1,-0.02 -0.13,0c0.1,-0.11 0.17,-0.19 0.24,-0.28c0,-0.05 0.02,-0.1 0.05,-0.12q0.32,-0.29 0.45,-0.62c0.01,-0.05 0.02,-0.1 0.02,-0.1c-0.1,-0.15 -0.2,-0.25 -0.31,-0.35c-0.05,-0.01 -0.1,-0.02 -0.13,0c-0.18,-0.01 -0.36,-0.03 -0.51,-0.01c-0.05,-0.01 -0.1,-0.02 -0.13,0s-0.09,0.06 -0.15,0.1c-0.02,-0.03 -0.07,-0.04 -0.12,-0.05c-0.15,0.1 -0.3,0.19 -0.45,0.28c-0.03,0.02 -0.06,0.04 -0.09,0.06c0,0 -0.03,0.02 -0.06,0.04c-0.03,0.02 -0.06,0.04 -0.09,0.06c-0.03,0.02 -0.09,0.06 -0.15,0.1c-0.02,-0.03 -0.07,-0.04 -0.1,-0.02c-0.71,0.41 -1.42,0.81 -2.16,1.24c-0.05,-0.01 -0.1,-0.02 -0.13,0c-0.12,0.08 -0.24,0.15 -0.36,0.23c-0.05,0 -0.1,-0.02 -0.15,-0.03c-0.06,0.04 -0.12,0.08 -0.21,0.13c-0.05,-0.01 -0.1,-0.02 -0.13,0c-0.06,0.04 -0.12,0.08 -0.21,0.13c-0.05,-0.01 -0.1,-0.02 -0.15,-0.03c-0.03,0.02 -0.09,0.06 -0.15,0.09c-0.08,0 -0.16,0.02 -0.25,0.07c-0.18,0.11 -0.39,0.25 -0.6,0.38c-0.03,0.02 -0.06,0.04 -0.09,0.06c0,0 -0.03,0.02 -0.06,0.04c-0.03,0.02 -0.06,0.04 -0.09,0.06c0,0 -0.03,0.02 -0.06,0.04c-0.05,-0.01 -0.1,-0.02 -0.15,-0.03c-0.39,0.25 -0.78,0.49 -1.2,0.76c0.02,0.03 0,0.08 0,0.13c-0.03,0.02 -0.06,0.04 -0.09,0.06c-0.06,0.04 -0.12,0.08 -0.21,0.13c-0.03,0.02 -0.04,0.07 -0.05,0.12c0,0 -0.03,0.02 -0.06,0.04c-0.11,0.16 -0.21,0.34 -0.3,0.53c-0.03,0.02 -0.04,0.07 -0.05,0.12l0.01,0z" class="h"/>
   <path id="svg_20" fill="#231815" fill-rule="evenodd" d="m31.66,42.79c-0.07,0.03 -0.15,0.06 -0.2,0.06c-0.43,0.42 -0.86,0.85 -1.24,1.27c-0.87,-0.26 -0.95,-0.43 -1.29,-0.69c0,-0.05 0,-0.1 0,-0.15c-0.28,-0.49 -0.19,-0.27 -0.11,-0.67c0,-0.05 0,-0.1 0.02,-0.13c-0.03,-0.5 -0.03,-1.03 -0.03,-1.56c0,-0.05 0,-0.1 0,-0.15c-0.05,-0.43 -0.09,-0.85 -0.12,-1.3c-0.03,-0.02 -0.03,-0.07 -0.03,-0.12c-0.07,-0.3 -0.13,-0.6 -0.17,-0.87c0,-0.05 0,-0.1 0.02,-0.13c-0.06,-0.1 -0.09,-0.22 -0.09,-0.32c-0.03,-0.02 -0.03,-0.07 0,-0.1c-0.06,-0.15 -0.07,-0.3 -0.07,-0.45c-0.03,-0.02 -0.03,-0.07 -0.03,-0.12c-0.06,-0.1 -0.06,-0.2 -0.07,-0.3c0,-0.05 0,-0.1 0,-0.15c-0.03,-0.02 -0.03,-0.07 0,-0.1c-0.05,-0.1 -0.09,-0.22 -0.09,-0.32c0,-0.05 0,-0.1 0.02,-0.13c-0.06,-0.15 -0.09,-0.27 -0.1,-0.42c0,-0.05 0,-0.1 0,-0.15c-0.11,-0.2 -0.22,-0.39 -0.28,-0.59c0,-0.05 0,-0.1 0,-0.15c-0.03,-0.02 -0.05,-0.05 -0.05,-0.05c-0.24,-0.21 -0.43,-0.43 -0.61,-0.65c0,-0.05 0,-0.1 0,-0.15c-0.3,-0.56 -0.29,-0.31 -0.04,-0.85c0,-0.05 0,-0.1 0,-0.15c0.22,-0.19 0.43,-0.38 0.68,-0.59c0,0 0.05,0 0.1,0c0.02,-0.03 0.05,-0.05 0.07,-0.08c0.03,0.02 0.08,0.02 0.13,0.02c0.27,-0.09 0.57,-0.21 0.86,-0.32c0.03,0.02 0.08,0.02 0.13,0.02c0.02,-0.03 0.07,-0.03 0.12,-0.03c0.03,0.02 0.05,0.05 0.08,0.07c0,0 0.05,0 0.1,0c0.18,0.17 0.4,0.36 0.61,0.55c-0.02,0.03 -0.02,0.08 0,0.1c0.03,0.07 0.08,0.17 0.14,0.27c-0.02,0.03 -0.02,0.08 0,0.1c0.03,0.02 0.05,0.05 0.08,0.07c-0.03,0.03 -0.02,0.08 -0.02,0.13c0.03,0.03 0.05,0.05 0.08,0.07c-0.02,0.03 -0.02,0.08 0,0.1c0.03,0.12 0.06,0.25 0.14,0.37c0,0.05 0,0.1 0,0.15c0,0.05 0.03,0.13 0.08,0.17c-0.02,0.03 -0.02,0.08 -0.02,0.13c0,0.05 0,0.1 0.03,0.12c0.05,0.43 0.04,0.8 0.31,1.24c0,0 0.05,0 0.1,0c0.12,-0.13 0.24,-0.26 0.36,-0.4c0,-0.05 0,-0.1 0.02,-0.13c0.07,-0.18 0.16,-0.39 0.27,-0.57c-0.05,-0.1 -0.11,-0.2 -0.14,-0.27c-0.03,-0.02 -0.03,-0.07 0,-0.1c-0.31,-0.61 -0.62,-1.23 -0.9,-1.87c0.11,-0.23 0.23,-0.46 0.34,-0.7c-0.03,-0.02 -0.03,-0.07 -0.03,-0.13c0.12,-0.08 0.24,-0.16 0.39,-0.27c0,0 0.05,0 0.1,0c0.07,-0.03 0.2,-0.06 0.32,-0.09c0.03,0.02 0.08,0.02 0.13,0.02c0.02,-0.03 0.07,-0.03 0.12,-0.03c0.03,0.02 0.08,0.02 0.13,0.02c0.02,-0.03 0.07,-0.03 0.12,-0.03c0.03,0.02 0.08,0.02 0.13,0.02c0.18,0.07 0.38,0.11 0.59,0.15c0,0 0.05,0 0.1,0c0.08,0.02 0.18,0.07 0.28,0.11c0,0 0.05,0 0.1,0c0.03,0.02 0.05,0.05 0.08,0.07c0.02,-0.03 0.07,-0.03 0.12,-0.03c0.03,0.02 0.05,0.05 0.08,0.07c0,0 0.05,0 0.1,0c0.03,0.02 0.08,0.07 0.13,0.12c0.05,0 0.1,0 0.15,0c0.05,0.05 0.11,0.09 0.18,0.17c0.03,0.02 0.08,0.02 0.13,0.02c0.4,0.36 0.79,0.71 1.21,1.04c0.01,0.3 0.03,0.6 0.07,0.93c-0.07,0.03 -0.15,0.06 -0.17,0.08c-0.05,0 -0.1,0 -0.12,0.03c-0.1,0.11 -0.19,0.21 -0.28,0.32c-0.05,0 -0.1,0 -0.15,0c-0.13,0.31 -0.25,0.59 -0.33,0.9c0,0.05 0,0.1 0.03,0.12c-0.2,0.49 -0.35,0.97 -0.5,1.46c0,0.05 0,0.1 0,0.15c-0.02,0.03 -0.05,0.05 -0.05,0.05c-0.02,0.03 -0.02,0.08 -0.02,0.13c-0.05,0.05 -0.1,0.1 -0.12,0.13c0,0.05 0,0.1 0.03,0.12c-0.05,0.05 -0.1,0.11 -0.12,0.13c-0.02,0.03 -0.02,0.08 -0.02,0.13c-0.02,0.03 -0.05,0.05 -0.05,0.05c0,0.05 0,0.1 0,0.15c-0.1,0.11 -0.14,0.21 -0.19,0.31c0,0.05 0,0.1 0.03,0.12c-0.09,0.15 -0.16,0.33 -0.23,0.51c-0.02,0.03 -0.02,0.08 -0.02,0.13c-0.04,0.1 -0.04,0.2 -0.04,0.3c0,0.05 0,0.1 0,0.15c-0.06,0.28 -0.12,0.56 -0.16,0.81c-0.08,-0.07 -0.13,-0.12 -0.18,-0.17c-0.05,0 -0.1,0 -0.13,-0.02c-0.14,0.26 -0.25,0.54 -0.33,0.8c-0.03,0.03 -0.02,0.08 0,0.1c-0.02,0.03 -0.05,0.05 -0.07,0.08c0,0.05 0,0.1 0.03,0.12c-0.1,0.1 -0.14,0.21 -0.19,0.31c0,0.05 0,0.1 0,0.15c-0.21,0.39 -0.41,0.78 -0.57,1.16l0,0zm5.86,3.85c0.19,-0.21 0.38,-0.42 0.6,-0.66c0,-0.05 0,-0.1 0,-0.15c0.36,-0.77 0.02,-1.13 -0.46,-1.66c0.15,-0.06 0.32,-0.14 0.49,-0.23c0.03,0.03 0.08,0.02 0.13,0.02c0.15,0.04 0.38,0 0.57,-0.11c0,0 0.02,-0.03 0.05,-0.05c0.02,-0.03 0.05,-0.05 0.07,-0.08c0,0 0.02,-0.03 0.05,-0.05c0.02,-0.03 0.05,-0.05 0.07,-0.08c0.19,-0.21 0.38,-0.42 0.6,-0.66c-0.03,-0.02 -0.03,-0.07 -0.03,-0.12c0.02,-0.03 0.07,-0.08 0.12,-0.13c0,-0.05 0,-0.1 0.02,-0.13c0,0 0.02,-0.03 0.05,-0.05c0,-0.05 0,-0.1 0,-0.15q0.29,-0.79 0.57,-1.16c0,-0.05 0.02,-0.13 0.07,-0.18c0.17,-0.19 0.33,-0.37 0.52,-0.58c0,-0.05 0,-0.1 0,-0.15c0.07,-0.08 0.14,-0.16 0.24,-0.26c-0.03,-0.02 -0.03,-0.07 0,-0.1c0.07,-0.18 0.13,-0.36 0.23,-0.51c-0.03,-0.02 -0.05,-0.05 -0.08,-0.07c-0.05,-0.05 -0.11,-0.1 -0.13,-0.12c0,-0.05 0,-0.1 0.02,-0.13c-0.21,-0.14 -0.42,-0.28 -0.6,-0.4c-0.05,0 -0.1,0 -0.13,-0.02c-0.17,0.08 -0.32,0.14 -0.44,0.22c-0.05,0 -0.1,0 -0.1,0c-0.08,-0.07 -0.16,-0.14 -0.21,-0.19c-0.05,0 -0.1,0 -0.12,0.03c-0.03,-0.02 -0.05,-0.05 -0.08,-0.07c-0.05,-0.05 -0.1,-0.09 -0.13,-0.12c-0.05,0 -0.1,0 -0.1,0c-0.03,-0.02 -0.05,-0.05 -0.08,-0.07c-0.05,0 -0.1,0 -0.12,0.03c-0.08,-0.02 -0.15,-0.04 -0.18,-0.07c-0.03,-0.02 -0.03,-0.07 -0.03,-0.12c-0.11,-0.19 -0.2,-0.42 -0.26,-0.62c-0.03,-0.02 -0.03,-0.07 -0.03,-0.12c-0.03,-0.07 -0.06,-0.15 -0.06,-0.2c-0.03,-0.02 -0.03,-0.07 0,-0.1c-0.03,-0.02 -0.05,-0.05 -0.08,-0.07c0,-0.05 0,-0.1 0.02,-0.13c-0.03,-0.02 -0.05,-0.05 -0.08,-0.07c-0.03,-0.02 -0.03,-0.07 0,-0.1c-0.08,-0.12 -0.11,-0.25 -0.14,-0.37c0,-0.05 0,-0.1 0,-0.15c-0.06,-0.15 -0.09,-0.27 -0.1,-0.42c0,-0.05 0,-0.1 0.02,-0.13c-0.18,-0.17 -0.34,-0.36 -0.48,-0.53c-0.05,0 -0.1,0 -0.13,-0.02c-0.1,0 -0.2,0 -0.25,0.01c-0.05,0 -0.1,0 -0.12,0.03c-0.03,0.03 -0.05,0.05 -0.05,0.05c-0.05,0 -0.1,0 -0.15,0c-0.54,0.23 -0.67,0.64 -0.89,0.88c-0.05,0 -0.1,0 -0.13,-0.02c-0.04,0.1 -0.09,0.21 -0.11,0.28c-0.02,0.03 -0.02,0.08 0,0.1c-0.02,0.03 -0.05,0.05 -0.07,0.08c-0.05,0 -0.1,0 -0.1,0c-0.44,0.32 -0.38,0.37 -0.54,0.71c0,0.05 0,0.1 0,0.15c-0.02,0.03 -0.05,0.05 -0.05,0.05c-0.02,0.03 -0.02,0.08 -0.02,0.13c-0.02,0.03 -0.05,0.05 -0.05,0.05c0,0.05 0,0.1 0,0.15c-0.07,0.13 -0.11,0.28 -0.15,0.44c-0.02,0.03 -0.02,0.08 -0.02,0.13c-0.28,0.47 -0.31,0.44 -0.43,0.9c-0.02,0.03 -0.02,0.08 -0.02,0.13c-0.02,0.08 -0.04,0.15 -0.04,0.2c-0.02,0.03 -0.02,0.08 0,0.1c-0.1,0.48 -0.18,0.99 -0.23,1.47c-0.02,0.03 -0.02,0.08 -0.02,0.13c-0.05,0.43 -0.08,0.88 -0.11,1.34c-0.02,0.03 -0.05,0.05 -0.05,0.05c-0.05,0.05 -0.09,0.11 -0.12,0.13c-0.05,0 -0.1,0 -0.15,0c-0.02,0.03 -0.05,0.05 -0.05,0.05c-0.05,0 -0.1,0 -0.13,0.03c-0.05,0 -0.1,0 -0.13,-0.02c-0.05,0 -0.1,0 -0.12,0.03c-0.47,-0.28 -0.33,-0.54 -0.39,-0.78q-0.12,0.08 -0.41,0.88s-0.02,0.08 -0.02,0.13c-0.05,0 -0.1,0 -0.1,0c-0.02,0.03 -0.05,0.05 -0.07,0.08c-0.05,0 -0.1,0 -0.13,-0.02c-0.09,0.31 -0.06,0.33 0.03,0.65c-0.02,0.03 -0.02,0.08 0,0.1c0.03,0.02 0.05,0.05 0.08,0.07c-0.02,0.03 -0.02,0.08 -0.02,0.13c-0.03,0.03 -0.05,0.05 -0.05,0.05c0,0.05 0,0.1 0,0.15c0,0 0.03,0.02 0.05,0.05c0.05,0 0.1,0 0.15,0c-0.03,0.03 -0.02,0.08 -0.02,0.13c0,0.05 0,0.1 0.03,0.12c0.06,0.1 0.11,0.19 0.19,0.32c0.05,0 0.13,0.02 0.2,0.04c0,0 0.03,0.02 0.05,0.05c0.03,0.02 0.05,0.05 0.08,0.07c0,0 0.03,0.02 0.05,0.05c0.03,0.02 0.05,0.05 0.08,0.07c0.42,0.33 0.89,0.66 1.36,0.99c0.03,0.02 0.08,0.02 0.13,0.02c0.05,0.05 0.1,0.09 0.18,0.17c0.05,0 0.1,0 0.15,0c0.05,0.05 0.13,0.07 0.23,0.11c0.05,0 0.1,0 0.15,0c0,0 0.05,0 0.1,0c0.08,0.02 0.2,0.04 0.33,0.06c0.02,-0.03 0.07,-0.03 0.12,-0.03c0.13,0.07 0.28,0.11 0.46,0.18c0,0 0.05,0 0.1,0c0.05,0 0.1,0 0.15,0c0.15,0 0.3,-0.02 0.5,-0.03c0,0 0.05,0 0.1,0c0.05,-0.05 0.12,-0.13 0.19,-0.21c0.03,0.02 0.08,0.02 0.13,0.02l0,0l0.01,-0.02zm-4.91,-2.52s0.05,-0.05 0.07,-0.08c-0.03,-0.02 -0.05,-0.05 -0.08,-0.07c-0.02,0.03 -0.05,0.05 -0.07,0.08c0.03,0.02 0.05,0.05 0.08,0.07l0,0zm3.03,-0.86c0.05,0.05 0.13,0.12 0.21,0.19c0.07,-0.18 0.13,-0.36 0.23,-0.52c0,-0.05 0,-0.1 0,-0.15c0,-0.15 -0.02,-0.3 0,-0.48c0.35,-0.5 0.47,-0.68 0.16,-1.29c-0.03,-0.02 -0.03,-0.07 0,-0.1c-0.08,-0.07 -0.16,-0.14 -0.21,-0.19c0,-0.05 0,-0.1 0.02,-0.13c-0.05,-0.05 -0.11,-0.09 -0.13,-0.12c-0.03,-0.02 -0.03,-0.07 -0.03,-0.12c-0.18,-0.17 -0.34,-0.31 -0.5,-0.45c0,0.15 0.04,0.27 0.07,0.4c0,0.05 0,0.1 0,0.15c-0.02,0.03 -0.02,0.08 0,0.1c0.02,0.35 -0.3,1.07 -0.44,1.28q0.36,0.56 0.34,0.69s0,0.1 0.03,0.12c0.03,0.07 0.06,0.15 0.11,0.25c0,0.05 0,0.1 0.03,0.12c0.03,0.02 0.08,0.07 0.13,0.12c-0.02,0.03 -0.02,0.08 -0.02,0.13z" class="h"/>
   <path id="svg_21" fill="#231815" fill-rule="evenodd" d="m60.7,19.11s-0.02,-0.07 -0.02,-0.07c-0.07,-0.2 -0.14,-0.4 -0.21,-0.6q0.39,-0.06 0.46,0.03s0.09,0.04 0.13,0.06c0,0 0.01,0.03 0.02,0.07c0.01,0.03 0.06,0.05 0.1,0.08c0.03,0.1 0.07,0.2 0.12,0.33c0,0 0.01,0.03 0.02,0.07c0.1,0.19 0.21,0.38 0.31,0.57c-0.21,0.04 -0.39,0.06 -0.57,0.09c-0.15,-0.21 -0.26,-0.43 -0.37,-0.62l0,0l0.01,-0.01zm2.38,5.75c-0.02,0.27 0.08,0.65 0.54,1.13c0.37,-0.13 0.74,-0.26 1.11,-0.39c0.02,-0.05 0.04,-0.09 0.08,-0.1c0.09,-0.18 0.19,-0.33 0.29,-0.48c0.02,-0.05 0.04,-0.09 0.07,-0.14c-0.02,-0.07 -0.05,-0.13 -0.06,-0.17c-0.01,-0.03 0.01,-0.08 0.04,-0.09c-0.02,-0.07 -0.05,-0.13 -0.06,-0.17c0.02,-0.05 0.04,-0.09 0.07,-0.14c-0.07,-0.31 -0.11,-0.64 -0.15,-0.96c-0.01,-0.03 -0.02,-0.07 -0.03,-0.1c-0.01,-0.03 -0.02,-0.07 -0.02,-0.07c-0.01,-0.03 -0.02,-0.07 -0.04,-0.1c-0.01,-0.03 -0.02,-0.07 -0.02,-0.07c-0.01,-0.03 -0.02,-0.07 -0.03,-0.1s-0.02,-0.07 -0.02,-0.07c-0.01,-0.03 0,-0.08 0.03,-0.12c-0.07,-0.2 -0.14,-0.4 -0.2,-0.57c0.02,-0.05 0.04,-0.09 0.07,-0.14c-0.03,-0.1 -0.06,-0.17 -0.08,-0.23c-0.05,-0.02 -0.09,-0.04 -0.14,-0.07c0.02,-0.04 0.04,-0.09 0.08,-0.1c-0.01,-0.03 -0.02,-0.07 -0.04,-0.1c-0.06,-0.06 -0.11,-0.11 -0.16,-0.13c-0.02,-0.07 -0.05,-0.13 -0.06,-0.17c-0.01,-0.03 -0.02,-0.07 -0.02,-0.07c-0.01,-0.03 -0.02,-0.07 -0.03,-0.1c0.02,-0.05 0.04,-0.09 0.08,-0.1c-0.01,-0.03 -0.02,-0.07 -0.03,-0.1c-0.01,-0.03 -0.02,-0.07 -0.02,-0.07c-0.1,-0.3 -0.2,-0.57 -0.29,-0.84c-0.03,0.01 -0.07,0.02 -0.1,0.03c0.08,0.35 0.17,0.7 0.28,1.03c-0.03,0.01 -0.06,0.06 -0.08,0.1c-0.07,0.02 -0.13,0.05 -0.17,0.06c-0.29,-0.84 -0.59,-1.68 -0.88,-2.52c-0.05,-0.02 -0.09,-0.04 -0.09,-0.04c-0.01,-0.03 -0.02,-0.07 -0.03,-0.1c-0.08,-0.23 -0.16,-0.47 -0.23,-0.67c0.13,-0.05 0.35,-0.08 0.46,-0.31q0.34,-0.12 0.55,-0.04s0.06,0.06 0.1,0.08c0.07,0.09 0.14,0.18 0.22,0.3c0,0 0.01,0.03 0.02,0.07c-0.02,0.04 -0.03,0.12 -0.04,0.2c-0.02,0.05 -0.04,0.09 -0.03,0.12c0.01,0.03 0.03,0.1 0.06,0.17c-0.03,0.01 -0.05,0.06 -0.08,0.1c0.01,0.03 0.02,0.07 0.04,0.1c0.03,-0.01 0.08,0.01 0.12,0.03c0.16,0.24 0.32,0.49 0.53,0.76c0.05,0.02 0.09,0.04 0.14,0.07c0.13,0.07 0.27,0.13 0.45,0.22c0,0 0.05,0.02 0.09,0.04c0.11,0 0.24,0.03 0.39,0.05c0.05,0.02 0.09,0.04 0.14,0.07c0.07,-0.02 0.13,-0.05 0.23,-0.08c0.02,-0.05 0.04,-0.09 0.07,-0.13c-0.01,-0.03 0,-0.08 0.04,-0.09c0.02,-0.05 0.04,-0.09 0.07,-0.14c-0.15,-0.44 -0.29,-0.84 -0.44,-1.24c-0.05,-0.02 -0.09,-0.04 -0.13,-0.07c-0.07,-0.09 -0.13,-0.14 -0.15,-0.21c-0.04,-0.02 -0.09,-0.04 -0.14,-0.07c-0.08,-0.12 -0.15,-0.21 -0.18,-0.31c-0.05,-0.02 -0.09,-0.04 -0.13,-0.03c-0.12,-0.33 -0.22,-0.64 -0.33,-0.94c-0.03,0.01 -0.07,0.02 -0.07,0.02c-0.04,0.09 -0.07,0.21 -0.07,0.33c-0.03,0.01 -0.06,0.06 -0.08,0.1c-0.06,0.06 -0.11,0.11 -0.13,0.16c-0.05,-0.02 -0.09,-0.04 -0.1,-0.08c-0.57,0.09 -1.07,0.18 -1.29,0.07c-0.01,-0.03 0.01,-0.08 0.04,-0.09c0,-0.11 0,-0.22 0,-0.3c-0.01,-0.03 0,-0.08 0.04,-0.09c-0.02,-0.07 -0.05,-0.13 -0.06,-0.17c0.02,-0.05 0.04,-0.09 0.06,-0.14c-0.06,-0.17 -0.12,-0.33 -0.18,-0.5c-0.01,-0.03 -0.02,-0.07 -0.02,-0.07c-0.02,-0.07 -0.05,-0.13 -0.06,-0.17c-0.04,-0.02 -0.09,-0.04 -0.14,-0.07c-0.08,-0.12 -0.15,-0.21 -0.18,-0.31c-0.04,-0.02 -0.09,-0.04 -0.12,-0.03c-0.29,-0.09 -0.57,-0.14 -0.82,-0.2c-0.04,-0.02 -0.09,-0.04 -0.09,-0.04c-0.15,0.01 -0.26,0.01 -0.37,0.02c0.01,0.03 0.02,0.07 0.04,0.1c0.02,0.07 0.08,0.12 0.15,0.21c0.05,0.02 0.09,0.04 0.14,0.07c0.08,0.23 0.16,0.47 0.26,0.74c0.01,0.03 0.02,0.07 0.04,0.1c0,0 0.01,0.03 0.02,0.07c0.01,0.03 0.02,0.07 0.03,0.1c0,0 0.01,0.03 0.02,0.07c0.01,0.03 0.02,0.07 0.03,0.1c0.01,0.03 0.04,0.1 0.06,0.17c0,0 0.01,0.03 0.02,0.07c0.01,0.03 0.02,0.07 0.04,0.1c0,0 0.01,0.03 0.02,0.07c0.01,0.03 0.02,0.07 0.03,0.1c0,0 0.01,0.03 0.02,0.07c0.01,0.03 0.02,0.07 0.04,0.1c0,0 0.01,0.03 0.02,0.07c-0.02,0.04 -0.04,0.09 -0.07,0.13l0.02,0.07s0.1,0.08 0.16,0.13c0.01,0.03 0.02,0.07 0.03,0.1c-0.02,0.05 -0.03,0.12 -0.04,0.2c0.18,0.5 0.35,1.01 0.53,1.51c0,0 0.01,0.03 0.02,0.07c0.02,0.07 0.06,0.17 0.09,0.27c-0.03,0.01 -0.06,0.06 -0.04,0.09c0.13,0.37 0.27,0.77 0.41,1.18c-0.02,0.04 -0.04,0.09 -0.06,0.14c0.01,0.03 0.03,0.1 0.06,0.17c-0.03,0.01 -0.05,0.06 -0.04,0.09c0.02,0.07 0.06,0.17 0.09,0.27c-0.03,0.01 -0.06,0.06 -0.08,0.1c0.01,0.03 0.03,0.1 0.06,0.17c-0.02,0.05 -0.04,0.09 -0.03,0.13c0.01,0.03 0.03,0.1 0.06,0.17c-0.03,0.01 -0.06,0.06 -0.08,0.1c0.02,0.07 0.06,0.17 0.09,0.27c-0.03,0.01 -0.06,0.06 -0.04,0.09c0,0.42 0.03,0.85 0.07,1.29c-0.02,0.04 -0.04,0.09 -0.07,0.14c-0.03,0.01 -0.05,0.06 -0.04,0.09c-0.02,0.05 -0.04,0.09 -0.07,0.14c-0.03,0.01 -0.05,0.06 -0.04,0.09c-0.01,0.08 0,0.19 0,0.3c-0.03,0.01 -0.06,0.06 -0.04,0.09l0,0l-0.02,-0.02zm9.72,-3.65s-0.09,-0.04 -0.1,-0.08c-0.11,-0.11 -0.21,-0.19 -0.28,-0.28c-0.05,-0.02 -0.09,-0.04 -0.12,-0.03c-0.3,-0.2 -0.59,-0.4 -0.85,-0.61q0.48,-0.77 0.49,-0.96s0.04,-0.09 0.06,-0.14c-0.11,-0.3 -0.2,-0.57 -0.29,-0.84c-0.04,-0.02 -0.09,-0.04 -0.12,-0.03c-0.18,-0.5 -0.35,-1.01 -0.53,-1.51c-0.01,-0.03 -0.02,-0.07 -0.04,-0.1c-0.01,-0.03 -0.02,-0.07 -0.02,-0.07c-0.09,-0.15 -0.18,-0.31 -0.24,-0.48c-0.04,-0.02 -0.09,-0.04 -0.13,-0.06c-0.1,0.03 -0.19,0.1 -0.25,0.16c0,0.08 -0.02,0.16 0,0.22c-0.03,0.01 -0.05,0.06 -0.04,0.09c0,0.08 0,0.19 0,0.3q-0.22,0.12 -0.54,0.08s-0.09,-0.04 -0.09,-0.04c-0.03,0.01 -0.07,0.02 -0.1,0.03c-0.05,-0.02 -0.09,-0.04 -0.1,-0.08c-0.05,-0.02 -0.09,-0.04 -0.12,-0.03c-0.05,-0.02 -0.09,-0.04 -0.1,-0.08c-0.05,-0.02 -0.09,-0.04 -0.12,-0.03c-0.01,-0.03 -0.02,-0.07 -0.03,-0.1c-0.05,-0.02 -0.09,-0.04 -0.09,-0.04c-0.04,-0.1 -0.07,-0.2 -0.09,-0.27c-0.05,-0.02 -0.09,-0.04 -0.12,-0.03c-0.04,-0.1 -0.07,-0.2 -0.09,-0.27l-0.09,-0.04c-0.2,-0.15 -0.38,-0.32 -0.55,-0.49c-0.04,-0.02 -0.09,-0.04 -0.12,-0.03c-0.03,0.01 -0.06,0.06 -0.04,0.09c-0.17,0.06 -0.33,0.15 -0.45,0.23c0.05,0.25 0.13,0.48 0.21,0.72c0,0 0.01,0.03 0.02,0.07c0.01,0.03 0.02,0.07 0.04,0.1c0,0 0.01,0.03 0.02,0.07c0.01,0.03 0.02,0.07 0.03,0.1c0,0 0.01,0.03 0.02,0.07c0.01,0.03 0.04,0.1 0.06,0.17c0.13,0.37 0.29,0.73 0.45,1.08c0,0 0.01,0.03 0.02,0.07c0.01,0.03 0.02,0.07 0.04,0.1l0.02,0.07s0.02,0.07 0.03,0.1c0.03,-0.01 0.08,0.01 0.12,0.03c0.07,0.2 0.15,0.44 0.23,0.67c0.01,0.03 0.02,0.07 0.04,0.1c0,0 0.04,0.02 0.09,0.04c0.01,0.03 0.03,0.07 0.04,0.1c-0.03,0.01 -0.06,0.06 -0.04,0.09c0.01,0.03 0.02,0.07 0.04,0.1c0,0 0.01,0.03 0.02,0.07c0.01,0.03 0.02,0.07 0.03,0.1c0.05,0.25 0.1,0.49 0.16,0.77c-0.02,0.05 -0.04,0.09 -0.03,0.12c-0.03,0.12 -0.06,0.25 -0.05,0.4c-0.03,0.01 -0.05,0.06 -0.08,0.1c-0.02,0.04 -0.04,0.09 -0.03,0.12c-0.13,0.05 -0.23,0.08 -0.33,0.12c-0.05,-0.02 -0.09,-0.04 -0.14,-0.07c-0.05,-0.02 -0.09,-0.04 -0.09,-0.04c-0.23,-0.11 -0.41,-0.2 -0.59,-0.28c-0.04,-0.02 -0.09,-0.04 -0.09,-0.04c-0.01,-0.03 -0.02,-0.07 -0.04,-0.1c-0.04,-0.02 -0.09,-0.04 -0.12,-0.03c-0.03,-0.1 -0.07,-0.2 -0.09,-0.27c-0.04,-0.02 -0.09,-0.04 -0.09,-0.04c-0.04,-0.1 -0.07,-0.2 -0.09,-0.27c-0.01,-0.03 -0.02,-0.07 -0.02,-0.07c-0.01,-0.03 -0.02,-0.07 -0.04,-0.1c-0.11,-0.3 -0.21,-0.6 -0.32,-0.91c-0.01,-0.03 0.01,-0.08 0.03,-0.12c-0.15,-0.44 -0.29,-0.84 -0.43,-1.24c0.02,-0.04 0.04,-0.09 0.07,-0.13c-0.02,-0.07 -0.05,-0.13 -0.06,-0.17c-0.01,-0.03 -0.02,-0.07 -0.02,-0.07c-0.01,-0.03 -0.02,-0.07 -0.04,-0.1c-0.01,-0.03 -0.02,-0.07 -0.02,-0.07c-0.01,-0.03 -0.02,-0.07 -0.03,-0.1c-0.11,-0.3 -0.2,-0.57 -0.29,-0.84c-0.01,-0.03 0,-0.08 0.04,-0.09c-0.01,-0.03 -0.02,-0.07 -0.04,-0.1c0.02,-0.04 0.04,-0.09 0.08,-0.1c-0.12,-0.33 -0.22,-0.64 -0.33,-0.94c-0.01,-0.03 -0.02,-0.07 -0.02,-0.07c-0.08,-0.23 -0.16,-0.47 -0.23,-0.67c-0.02,-0.07 -0.05,-0.13 -0.06,-0.17c-0.06,-0.17 -0.11,-0.3 -0.15,-0.44c-0.05,-0.02 -0.09,-0.04 -0.12,-0.03c-0.01,-0.03 -0.02,-0.07 -0.04,-0.1c-0.04,-0.02 -0.09,-0.04 -0.09,-0.04c-0.03,-0.18 0,-0.34 0.01,-0.5c-0.01,-0.03 0.01,-0.08 0.04,-0.09c0.17,-0.17 0.37,-0.35 0.58,-0.5c0.05,0.02 0.09,0.04 0.14,0.07c0.17,-0.06 0.29,0.09 0.45,0.22c0,0 0.05,0.02 0.09,0.04c0.01,0.03 0.02,0.07 0.04,0.1c0.03,-0.01 0.08,0.01 0.12,0.03c0.09,0.27 0.22,0.53 0.36,0.81c0.04,0.02 0.09,0.04 0.13,0.07c0,0 0.01,0.03 0.02,0.07q-0.1,0.04 -0.04,0.2s0.07,-0.02 0.1,-0.04c0.01,0.03 0.02,0.07 0.03,0.1c-0.03,0.01 -0.05,0.06 -0.08,0.1c0.05,0.02 0.09,0.04 0.14,0.07c0,0.41 0.04,0.85 0.08,1.29c0.05,-0.06 0.11,-0.11 0.2,-0.18c0.02,-0.04 0.04,-0.09 0.08,-0.1c0.02,-0.05 0.08,-0.1 0.13,-0.16c-0.01,-0.03 0,-0.08 0.04,-0.09c0.22,-0.45 0.65,-0.41 1.02,-0.85c0.06,-0.25 0.13,-0.5 0.24,-0.72c-0.01,-0.03 0,-0.08 0.03,-0.12c-0.04,-0.1 -0.06,-0.17 -0.08,-0.23c0.02,-0.05 0.04,-0.09 0.07,-0.14c-0.02,-0.07 -0.05,-0.13 -0.06,-0.17c-0.01,-0.03 0,-0.08 0.04,-0.09c-0.06,-0.28 -0.09,-0.57 -0.1,-0.83c0.02,-0.05 0.04,-0.09 0.08,-0.1c-0.02,-0.07 -0.05,-0.13 -0.06,-0.17c-0.01,-0.03 0,-0.08 0.03,-0.12c0.02,-0.38 0.08,-0.74 0.14,-1.1c0.37,-0.13 0.77,-0.5 1.45,-0.28c0.03,-0.01 0.08,0.01 0.13,0.03c0.15,0.1 0.3,0.2 0.49,0.32c0,0 0.05,0.02 0.09,0.04c0.17,0.17 0.35,0.37 0.57,0.55c0.05,0.02 0.09,0.04 0.14,0.07c0.04,0.1 0.07,0.2 0.12,0.34c0,0 0.05,0.02 0.09,0.04c0.23,0.67 0.47,1.34 0.7,2.01c-0.02,0.05 -0.04,0.09 -0.03,0.12c0,0 0.01,0.03 0.02,0.07c0.01,0.03 0.02,0.07 0.03,0.1c0,0 0.01,0.03 0.02,0.07c0.01,0.03 0.02,0.07 0.04,0.1c0,0 0.04,0.02 0.09,0.04c0.01,0.03 0.02,0.07 0.04,0.1c-0.03,0.01 -0.06,0.06 -0.04,0.09c0.01,0.03 0.02,0.07 0.04,0.1c0,0 0.01,0.03 0.02,0.07c0.01,0.03 0.02,0.07 0.04,0.1c0,0 0.01,0.03 0.02,0.07c0.01,0.03 0.02,0.07 0.04,0.1c0.01,0.03 0.03,0.1 0.06,0.17c0,0 0.01,0.03 0.02,0.07c0.01,0.03 0.02,0.07 0.03,0.1c0,0 0.01,0.03 0.02,0.07c0.01,0.03 0.02,0.07 0.04,0.1c0,0 0.05,0.02 0.09,0.04c0.04,0.1 0.07,0.2 0.12,0.34c0.01,0.03 0.03,0.07 0.04,0.1c0.03,-0.01 0.08,0.01 0.12,0.03c0.02,0.07 0.06,0.17 0.09,0.27c0,0 0.01,0.03 0.02,0.07c0.01,0.03 0.02,0.07 0.03,0.1c0,0 0.01,0.03 0.02,0.07c0.01,0.03 0.06,0.06 0.1,0.08c0,0 0.01,0.03 0.02,0.07c0.01,0.03 0.02,0.07 0.04,0.1c0,0 0.01,0.03 0.02,0.07c0.04,0.02 0.09,0.04 0.13,0.07c0,0 0.01,0.03 0.02,0.07c-0.02,0.04 -0.04,0.09 -0.07,0.13c0,0 0.01,0.03 0.02,0.07c0.05,0.13 0.09,0.27 0.15,0.44c0.03,-0.01 0.08,0 0.12,0.03c0.07,0.2 0.15,0.44 0.23,0.67c0.01,0.03 0.06,0.05 0.1,0.08c0.06,0.17 0.13,0.37 0.2,0.57c0.01,0.03 0.02,0.07 0.04,0.1c0.07,0.2 0.15,0.43 0.23,0.67c0.03,-0.01 0.08,0.01 0.12,0.03c0.05,0.13 0.08,0.54 -0.03,0.77c-0.02,0.04 -0.04,0.09 -0.03,0.12c0,0.08 -0.02,0.16 -0.02,0.27c-0.02,0.04 -0.04,0.09 -0.03,0.12c-0.1,0.03 -0.2,0.07 -0.27,0.09c-0.03,0.01 -0.06,0.06 -0.04,0.09c-0.02,0.05 -0.04,0.09 -0.07,0.14c0,0 0.01,0.03 0.02,0.07c0.12,0.78 -1.58,0.44 -1.58,0.44c-0.23,-0.11 -0.45,-0.22 -0.63,-0.3l-0.01,-0.03z" class="h"/>
   <path id="svg_22" fill="#231815" d="m90.3,154.49c-35.39,0 -64.19,-28.79 -64.19,-64.19s28.8,-64.18 64.19,-64.18s64.19,28.79 64.19,64.19s-28.79,64.19 -64.19,64.19l0,-0.01zm0,-127.41c-34.86,0 -63.22,28.36 -63.22,63.23s28.36,63.22 63.22,63.22s63.22,-28.36 63.22,-63.22s-28.36,-63.23 -63.22,-63.23z" class="i"/>
  </g>
 </g>
</svg>