<?xml version="1.0" encoding="UTF-8"?>
<svg id="a" data-name="logo" xmlns="http://www.w3.org/2000/svg" viewBox="0 0 1141.79 543.05">
  <defs>
    <style>
      .b {
        fill: #005bac;
      }

      .b, .c, .d, .e, .f {
        fill-rule: evenodd;
      }

      .c {
        fill: #fff;
      }

      .d {
        fill: #e60012;
      }

      .g, .f {
        fill: #231815;
      }

      .e {
        fill: #dcdddd;
      }
    </style>
  </defs>
  <g>
    <path class="c" d="M90.3.81c49.43,0,89.5,40.07,89.5,89.49s-40.07,89.49-89.5,89.49S.81,139.73.81,90.3,40.88.81,90.3.81Z"/>
    <path class="g" d="M90.3,180.61C40.51,180.61,0,140.1,0,90.3S40.51,0,90.3,0s90.3,40.51,90.3,90.3-40.51,90.31-90.3,90.31ZM90.3,1.62C41.4,1.62,1.62,41.4,1.62,90.3s39.78,88.68,88.68,88.68,88.68-39.78,88.68-88.68S139.2,1.62,90.3,1.62Z"/>
  </g>
  <path class="d" d="M118.44,48.55c-.75.58-12.86,14.05-30.24,12.04,19.99,11.26,31.87-13.3,30.24-12.04Z"/>
  <polygon class="e" points="126.07 120.58 131.41 123.05 90.37 144.39 48.37 123.05 53.82 120.28 90.38 138.17 126.07 120.58"/>
  <path class="d" d="M119.03,40.5c.29-.19-15.27,13.44-43,11.03.19.36,9.51,16.86,15.03,32.6-7.87-1.89-19.51-1.87-28.31,5.4,10.82-.9,18.7-2.51,30.27.75,1.25,4.43,2.04,8.61,2.05,12.12.01,5.26-1.94,9.02-6.43,9.88-10.35,1.93-25.32-11.14-29.46-20.62-.18,17.31,22.53,40.62,39.16,28.91,8.76-5.66,7-22.27,4.36-30.61,7.33-.19,14.55-3.99,19.62-8.74,0,0-12.4,3.65-21.95,3.48-4.23-10.96-10.4-20.28-17.15-27.84,10.23,1.85,31.41-1.93,35.81-16.36Z"/>
  <path class="b" d="M90.42,100.66c1.11.47,2.21.96,3.32,1.45.11,2.23-.79,4.84-2.55,6.6-2.04,2.05-4.31,2.17-7.04,1.73-2.67-.43-5.32-1.69-7.55-3.03l13.82-6.75h0ZM106.67,108.27c-.81,10.48-7.85,17.8-18.74,17.46-8.92-.28-17.52-6.4-22.37-13.07-3.88,1.85-8.13,3.94-12.06,5.85l.19.09-.23.11h.46l36.45,17.64,36.95-17.84-4.08-1.97.05-.02c-5.51-2.64-11.06-5.48-16.63-8.25Z"/>
  <path class="f" d="M139.02,138.11l1.19-1.41,6.21,5.21c.88.74,1.61,1.12,2.17,1.15.57.03,1.12-.28,1.65-.91.51-.6.69-1.18.55-1.72-.14-.54-.65-1.18-1.52-1.91l-6.21-5.21,1.18-1.41,6.2,5.2c.66.56,1.14,1.02,1.43,1.39.29.37.49.75.61,1.13.2.67.23,1.31.09,1.91-.14.61-.45,1.19-.93,1.76-.53.63-1.07,1.07-1.64,1.32-.57.25-1.21.35-1.92.28-.4-.04-.8-.16-1.19-.36-.38-.2-.94-.6-1.68-1.21l-6.2-5.2h0ZM157.09,136.13l-8.48-5.16,11.81-.16.94-1.5-10.8-6.75-.96,1.54,8.22,5.04-11.49.19-1.01,1.61,10.8,6.75.98-1.57h0ZM163.69,124.87l-.81,1.66-11.45-5.58.81-1.66,11.45,5.58h0ZM166.81,117.61l-.39,1.02-13.65.02.7-1.82,10.12.13-7.61-6.67.69-1.81,10.14,9.13h0ZM170.73,104.05l-1.71-.39-1.07,4.65-3.72-.86,1.07-4.65-1.62-.37-1.07,4.65-3.71-.86,1.07-4.65-1.65-.38-1.49,6.44,12.41,2.87,1.49-6.44h0ZM165.46,98.22l.11-.94c.16-1.27.07-2.24-.27-2.91-.34-.67-.92-1.05-1.76-1.16-.81-.1-1.45.09-1.9.57-.45.49-.74,1.31-.88,2.46l-.17,1.37,4.86.6h0ZM171.54,98.97l-.22,1.83-12.64-1.55.45-3.65c.19-1.52.68-2.63,1.48-3.34.8-.71,1.86-.99,3.19-.82,1.03.13,1.85.57,2.46,1.32.61.76.87,1.66.8,2.72l5.29-2.99-.28,2.29-6.39,3.47,5.87.72h0ZM168.79,90.49l-.06-1.65c.66-.05,1.18-.26,1.56-.64.38-.38.56-.85.54-1.43-.02-.64-.24-1.13-.64-1.5-.41-.37-.94-.54-1.6-.52-.58.02-1.02.18-1.32.47-.31.29-.58.89-.82,1.79,0,.05-.03.13-.05.24-.25,1.07-.69,1.86-1.33,2.36-.28.22-.58.4-.9.52-.32.12-.66.18-1.03.2-1.09.04-1.98-.25-2.68-.88-.69-.62-1.06-1.46-1.1-2.51-.03-.97.24-1.77.82-2.39.58-.62,1.4-.98,2.44-1.08l.06,1.72c-.51.05-.91.23-1.21.55-.3.32-.44.72-.43,1.2.02.51.21.91.56,1.22.36.31.81.45,1.36.43.19,0,.37-.04.54-.11.17-.07.32-.16.46-.29.29-.26.53-.81.71-1.64.09-.38.16-.68.22-.88.28-.85.72-1.51,1.31-1.96.59-.46,1.3-.7,2.14-.73,1.23-.04,2.23.27,3.01.95.78.67,1.19,1.59,1.23,2.74.04,1.09-.29,1.98-.99,2.68-.7.7-1.63,1.08-2.81,1.13h0ZM171.57,78.37l.26,1.83-12.61,1.77-.26-1.83,12.61-1.77h0ZM170.69,72l-10.82,2.1-.45-2.34-1.68.33,1.26,6.48,1.68-.33-.45-2.34,10.82-2.1-.35-1.81h0ZM163.44,63.36l4.31-1.57.63,1.73-4.41,1.61-6.22,6.42-.7-1.93,4.8-4.73-6.71-.53-.7-1.92,9.01.92Z"/>
  <path class="f" d="M61.45,156.15l2.71-.36.23.08-2.35,8.13c-.15.54-.23.88-.23,1.03,0,.14.07.28.2.4.12.12.4.25.84.41l-.08.26-3.67-1.2.07-.26c.46.14.77.2.93.17.15-.03.27-.09.36-.19.09-.1.21-.44.38-1.01l1.51-5.2c.2-.7.31-1.16.32-1.37.01-.17-.02-.3-.09-.4-.07-.1-.16-.17-.29-.21-.18-.06-.44-.07-.8-.02l-.04-.26Z"/>
  <path class="f" d="M78.36,170.39l-.02-.28c.65-.02,1.24-.18,1.78-.48.54-.3,1.05-.82,1.53-1.56.48-.74.8-1.54.95-2.42-.75.51-1.45.78-2.08.79-.71,0-1.34-.26-1.88-.8-.54-.54-.84-1.27-.89-2.18-.05-.89.16-1.68.63-2.38.56-.85,1.34-1.29,2.32-1.3.83-.01,1.56.32,2.19,1,.78.84,1.2,1.89,1.27,3.14.06,1.13-.15,2.18-.65,3.17-.5.98-1.22,1.81-2.17,2.46-.77.54-1.63.82-2.58.83h-.43ZM82.69,165.1c.05-.65.07-1.17.05-1.56-.03-.48-.14-1-.33-1.56-.2-.56-.46-.99-.77-1.28-.32-.3-.67-.44-1.05-.43-.44,0-.82.21-1.13.62-.31.4-.44,1-.4,1.79.06,1.05.33,1.87.8,2.46.35.42.76.63,1.23.63.23,0,.5-.06.81-.18.31-.11.57-.27.8-.48Z"/>
  <path class="f" d="M95.9,164.46c0-1.16.19-2.14.55-2.96.36-.81.82-1.41,1.41-1.79.45-.3.92-.44,1.4-.42.78.04,1.47.47,2.08,1.29.77,1.02,1.14,2.37,1.12,4.05,0,1.18-.19,2.16-.53,2.97-.35.81-.78,1.38-1.31,1.73-.53.34-1.04.5-1.53.48-.96-.05-1.76-.66-2.4-1.83-.54-.99-.8-2.16-.79-3.51h0ZM97.36,164.73c-.01,1.39.15,2.54.49,3.44.28.76.7,1.15,1.26,1.18.27.01.55-.1.84-.32.29-.23.51-.62.67-1.18.24-.84.36-2.05.38-3.61,0-1.16-.1-2.13-.34-2.91-.17-.58-.4-1-.68-1.25-.2-.17-.45-.27-.74-.28-.34-.02-.64.12-.91.41-.36.4-.61,1.03-.75,1.91-.14.88-.21,1.75-.22,2.61Z"/>
  <path class="f" d="M112.99,156.55l5.06-1.78.1.27.54,10.62-.78.27-.53-9.63-2.6.91c-.52.18-.87.38-1.05.59-.3.35-.49.8-.55,1.33h-.23s.03-2.6.03-2.6Z"/>
  <path class="f" d="M9.56,63.84l.6-1.74,10.42,3.59.77-2.25,1.62.56-2.15,6.25-1.62-.56.77-2.25-10.42-3.59h0ZM11.87,78.14l5.09-.84-4.4-2.72-.69,3.56h0ZM10.93,73.59l-.94,4.85-3.91.66-.39,1.99,13.45-2.46.34-1.76-11.56-7.32-.37,1.92,3.37,2.12h0ZM5.87,88.65l.07-1.84,12.73.44-.07,1.85-12.73-.45h0ZM7,102.74l-.95-7.75,1.8-.22,9.75,4.42-.64-5.18,1.78-.22.89,7.29-1.6.2-10-4.59.72,5.84-1.75.21h0ZM8.76,110.7l-.6-1.74,12.04-4.15.6,1.74-5.11,1.76,1.69,4.92,5.11-1.76.6,1.74-12.05,4.15-.6-1.75,5.22-1.8-1.69-4.91-5.22,1.8h0ZM19.88,122.05c-.58.33-1.06.74-1.47,1.23-.4.49-.69,1.02-.85,1.59-.18.61-.23,1.22-.16,1.84.07.62.25,1.19.55,1.7.66,1.14,1.62,1.86,2.87,2.16,1.26.3,2.48.1,3.68-.59.51-.29.94-.67,1.3-1.12.36-.45.63-.97.81-1.55.21-.68.28-1.32.22-1.92-.06-.6-.26-1.19-.59-1.77-.3-.52-.69-.96-1.15-1.31-.47-.36-.99-.61-1.58-.76-.61-.15-1.23-.19-1.87-.1-.64.09-1.22.28-1.76.59h0ZM18.93,120.38c.77-.45,1.59-.72,2.45-.83.86-.11,1.73-.04,2.61.21.84.23,1.58.6,2.22,1.1.65.5,1.19,1.12,1.62,1.87.44.77.72,1.56.83,2.38.11.81.06,1.65-.16,2.5-.23.88-.6,1.66-1.12,2.33-.52.68-1.17,1.24-1.96,1.7-.78.45-1.57.75-2.37.88-.8.14-1.6.12-2.4-.06-.95-.22-1.78-.59-2.5-1.11-.72-.53-1.32-1.2-1.79-2.02-.48-.83-.76-1.68-.84-2.57-.09-.89.02-1.78.33-2.7.25-.77.63-1.47,1.16-2.09.52-.63,1.16-1.16,1.92-1.59h0ZM33.72,131.83l-6.2,5.2c-.73.61-1.23,1.09-1.48,1.44-.26.35-.44.72-.56,1.11-.19.69-.21,1.34-.06,1.94.15.61.49,1.22,1.01,1.85.48.57,1,.98,1.58,1.22.57.24,1.2.32,1.9.24.4-.05.81-.18,1.22-.4.42-.23.95-.61,1.61-1.17l6.19-5.2-1.19-1.41-6.21,5.21c-.87.73-1.59,1.12-2.15,1.16-.56.04-1.1-.24-1.6-.84-.53-.63-.74-1.23-.61-1.78.12-.55.63-1.2,1.51-1.94l6.21-5.21-1.19-1.41Z"/>
  <path class="f" d="M109.36,22.21c.28-.29.97-.17.86.05.03.02.05.06.06.11-.05.01-.1.03-.14.04-.07.05-.13.09-.18.19-.05.01-.1.03-.14.04-.19-.1-.38-.2-.53-.28-.01-.05-.03-.1-.04-.14.05-.01.1-.03.13-.01h0ZM107.22,24.09l4.24-.55h0s0,0,0,0h0s.04-.03.06-.04c.01,0,.03,0,.05-.01.12-.22.23-.44.33-.63.05-.02.1-.03.13-.01.05-.09.1-.19.13-.25.02-.03.07-.05.1-.03.11.02.22.04.36.07.05-.01.1-.03.13-.01.33.13.69.29,1.05.44.05-.01.1-.03.13-.01.21-.09.4-.15.59-.21.05-.01.1-.03.13-.01.1-.11.21-.17.32-.23-.01-.05-.03-.1-.04-.14.05-.01.1-.03.13-.01.02-.03.03-.06.05-.09-.01-.05-.03-.1-.06-.11.03-.06.07-.13.08-.16-.01-.05-.03-.1-.01-.13.02-.11.02-.19.02-.27-.14-.12-.28-.23-.42-.34-.01-.05-.03-.1-.03-.1-.53-.36-1.06-.73-1.58-1.04-.01-.05-.03-.1-.01-.13-.43-.03-1.32-.54-1.3-.58.02-.03.03-.06.05-.09.02-.03.03-.06.03-.06.02-.03.06-.05.11-.06.02-.03.03-.06.03-.06.05-.01.1-.03.14-.04.08-.08.18-.11.27-.14.02-.03.07-.05.11-.06.07-.05.16-.07.24-.07.05-.01.1-.03.13-.01.05-.01.13-.01.21-.01.02-.03.06-.04.1-.03.24.09.5.19.77.29.02-.03.06-.05.1-.03.03.02.06.03.09.05.31.09.63.18.93.3.05-.02.1-.03.14-.04.02-.03.06-.05.1-.03.05-.01.1-.03.14-.04.28-.29,1.24.1,1.65.68.02-.03.07-.05.1-.03.03.02.09.05.16.08.05-.01.1-.03.14-.04.42-.18.84-.36,1.29-.52.02-.03.06-.05.1-.03.05-.02.1-.03.14-.04.02-.03.07-.05.1-.03.05-.01.1-.03.14-.04.02-.03.07-.05.1-.03.05-.02.1-.03.14-.04.02-.03.03-.06.03-.06.02-.03.06-.05.11-.06.03-.06.07-.13.08-.16.05-.01.1-.03.13-.01.22-.57.31-.72.19-1.11-.01-.05-.03-.1-.04-.14-.09-.13-.15-.24-.23-.33-.01-.05-.03-.1-.03-.1-.05-.07-.09-.13-.11-.18-.01-.05-.03-.1-.06-.11-.12-.15-.25-.29-.39-.41-.01-.05-.03-.1-.01-.13-.25-.13-.5-.27-.72-.38-.01-.05-.03-.1-.03-.1-.3-.2-.56-.38-.83-.56-.01-.05-.03-.1-.03-.1-.14-.11-.25-.21-.36-.31-.01-.05-.03-.1-.03-.1.22-.33.46-.64.71-.95.02-.03.06-.05.1-.03.08-.16.15-.28.22-.41.05-.01.1-.03.13-.01.08-.16.15-.28.22-.41.02-.03.03-.06.03-.06.02-.03.06-.05.11-.06.07-.13.12-.22.17-.31.05-.01.1-.03.13-.01.05-.09.1-.19.13-.25.02-.03.06-.05.1-.03.08-.15.15-.28.22-.41.05-.01.1-.03.13-.01.02-.03.03-.06.05-.09-.02-.05-.03-.1-.06-.11-.16-.08-.33-.13-.5-.19-.05.02-.1.03-.11.06-.25-.06-.51-.11-.75-.12-.05.01-.1.03-.14.04-.08,0-.18.03-.24.07-.03-.02-.08,0-.1.03-.16,0-.3.04-.45.08-.03-.02-.08,0-.13.01-.16,0-.3.04-.45.08-.03-.02-.06-.03-.06-.03,0-.16,0-.29.01-.4.02-.03.06-.05.11-.06.06-.05.13-.09.18-.11.02-.03.06-.05.1-.03.05-.01.13-.01.21-.01.05-.01.1-.03.13-.01.16,0,.32,0,.46.04.05-.01.1-.03.14-.04.02-.03.03-.06.03-.06-.01-.05-.03-.09-.04-.14-.04-.38.02-.8-.2-.91-.02-.05-.03-.1-.06-.11.02-.19.03-.35.06-.49-.02-.05-.03-.09-.03-.09-.01-.05-.03-.1-.04-.15-.02-.05-.03-.1-.03-.1-.01-.05-.03-.1-.04-.14-.03-.02-.06-.03-.06-.03-.01-.05-.03-.1-.06-.11-.09-.05-.16-.08-.22-.12-.23.36-.46.72-.71,1.11-.05.01-.1.03-.11.06-.33.39-1.11.34-1.34.78.01.05.03.09.04.14-.02.03-.02.11-.02.19.03.02.05.06.06.11-.1.19-.2.38-.3.56,0,0,.01.05.03.1-.02.03-.03.06-.05.09,0,0-.02.03-.03.06-.02.03-.05.09-.08.16-.05.17-.07.36-.09.56-.05.01-.1.03-.11.06-.15.12-.29.25-.41.39-.03-.02-.08,0-.13.01-.19.14-.37.32-.55.51-.05.01-.1.03-.14.04-.15.12-.29.25-.41.39-.03-.02-.08,0-.1.03-.08-.08-.15-.16-.25-.21.11-.35.23-.65.34-.94.02-.03.03-.06.03-.06.03-.06.07-.13.08-.16.05-.01.1-.03.14-.04.15-.28.3-.57.45-.85.02-.03.03-.06.05-.09.02-.03.06-.05.1-.03.3-.56.6-1.13.89-1.66-.01-.05-.03-.1-.03-.1.02-.11.04-.22.04-.3-.02-.05-.03-.1-.03-.1-.05-.07-.09-.13-.11-.18-.02.03-.03.06-.05.09-.08.16-.19.34-.29.53-.02.03-.03.06-.05.09-.03-.02-.08,0-.13.01-.1.19-.2.38-.3.56,0,0-.02.03-.03.06-.05.01-.1.03-.11.06-.07.13-.13.25-.2.38-.05.02-.1.03-.14.04-.12.22-.23.44-.37.69-.02.03-.03.06-.05.09-.03-.02-.08,0-.1.03-.1.19-.22.41-.33.63-.02.03-.03.06-.05.09,0,0-.02.03-.03.06-.05.01-.1.03-.14.04,0,0-.02.03-.03.06.02.05.03.1.04.14-.17.31-.33.63-.5.94-.03-.02-.08,0-.13.01-.05-.06-.09-.13-.12-.15-.01-.05-.03-.1-.01-.13-.01-.05-.03-.1-.06-.11.02-.11.04-.22.07-.28-.02-.05-.03-.1-.06-.11.16-.52.33-.99.5-1.46-.01-.05-.03-.1-.06-.11.07-.13.12-.22.17-.31-.01-.05-.03-.1-.01-.13.02-.03.03-.06.03-.06.13-.25.27-.5.38-.72,0-.08,0-.16,0-.21.02-.03.03-.06.03-.06.07-.13.12-.22.17-.31-.05.01-.11.06-.15.12-.03-.02-.08,0-.13.01-.07.12-.13.25-.22.41,0,0-.02.03-.03.06-.05.01-.1.03-.11.06-.39.72-.77,1.44-1.17,2.2,0,0,.01.05.03.1-.02.03-.05.09-.08.16-.02.03-.03.06-.05.09-.17.39-.34.79-.53,1.21-.03-.02-.06-.03-.09-.05-.05.01-.1.03-.11.06-.03-.02-.06-.03-.09-.05-.03-.02-.08,0-.1.03-.14-.04-.27-.02-.4-.01-.05.02-.1.03-.14.04-.03-.02-.06-.03-.06-.03-.03-.02-.06-.03-.09-.05-.07-.16-.15-.32-.24-.45-.01-.05-.03-.1-.06-.11-.02-.05-.03-.1-.01-.13-.09-.21-.16-.37-.24-.53-.01-.05-.03-.1-.03-.1-.01-.05-.03-.1-.04-.14-.09-.13-.18-.26-.29-.36-.08.08-.16.15-.26.26-.05.01-.1.03-.11.06,0,0-.02.03-.03.06-.05.01-.1.03-.14.04-.15.12-.31.28-.44.45-.05.02-.1.03-.11.06-.08.16-.18.35-.28.53-.05.01-.1.03-.14.04-.15.28-.3.56-.45.85-.02.03-.03.06-.05.09,0,0-.02.03-.03.06-.02.03-.03.06-.05.09-.02.03-.05.09-.08.16,0,0-.02.03-.03.06-.2.38-.42.78-.64,1.19,0,0-.02.03-.03.06-.02.03-.03.06-.05.09,0,0-.02.03-.03.06-.08.08-.16.15-.23.28-.05.02-.1.03-.14.04-.03.06-.07.12-.12.22-.05.02-.1.03-.11.06-.02.03-.05.09-.08.16-.03-.02-.08,0-.13.01-.08.08-.16.15-.23.28-.05.01-.1.03-.14.04-.02.03-.05.09-.08.16-.03-.02-.08,0-.1.03-.02.03-.05.09-.08.16-.05.02-.1.03-.14.04-.05.09-.1.19-.17.31.03.02.05.06.06.11-.07.13-.1.27-.15.44.03.02.05.06.06.11-.03.06-.05.17-.07.28.03.02.06.03.09.05.08-.08.19-.14.29-.17.02-.03.07-.05.1-.03.16-.15.73.15.84-.07.08.08.15.16.25.3.35-.5.36-1.06.45-1.21.05-.01.1-.03.14-.04.03-.06.07-.13.08-.16.02-.03.06-.05.1-.03.23-.28.49-.54.75-.81.02-.03.06-.05.11-.06.03-.06.07-.13.08-.16.05-.01.1-.03.13-.01.07-.13.15-.2.23-.28.05-.01.1-.03.14-.04.05-.09.12-.14.18-.19.05-.02.1-.03.14-.04.11-.14.26-.26.41-.39.02-.03.06-.05.1-.03.05-.01.1-.03.14-.04.02-.03.06-.05.1-.03.34-.1.7-.19,1.05-.24.02-.03.07-.05.11-.06.05-.01.1-.03.13-.01.14-.04.29-.09.45-.08.02-.03.07-.05.1-.03.27-.06.56-.06.84-.07.05-.01.1-.03.13-.01.32,0,.62.05.95.1.02-.03.06-.05.11-.06.03.02.06.03.09.05.02-.03.06-.05.1-.03.22.04.44.08.65.14.02-.03.06-.05.11-.06.03.02.06.03.09.05.02-.03.06-.05.1-.03.06.03.16.08.25.13.02-.03.06-.05.11-.06.51.11,1.01.22,1.55.34.02-.03.06-.05.11-.06.06.03.16.08.25.13.02-.03.06-.05.1-.03.06.03.16.08.25.13.02-.03.07-.05.11-.06.03.02.09.05.16.08.05-.01.1-.03.13-.01.11.02.22.04.36.07.02-.03.06-.05.1-.03.44.16.88.31,1.34.51.03.02.05.06.06.11.12.07.25.13.38.2.01.05.03.1.04.14.01.05.04.14.07.24,0,0,.02.05.03.1-.08.08-.16.15-.23.28-.05.01-.1.03-.14.04-.4.07-2.51.47-2.85.29-.03-.02-.08,0-.13.01-.17-.13-.34-.26-.53-.36,0-.29-.02-.57-.03-.86-.23-.16-.44-.31-.66-.43-.05.01-.1.03-.14.04-.03-.02-.06-.03-.06-.03-.03-.02-.08,0-.13.01-.14-.04-.25-.05-.36-.07-.03-.02-.08,0-.1.03-.11-.02-.22-.04-.3-.04-.03-.02-.08,0-.1.03-.57-.06-1.13-.08-1.68-.09-.05.01-.1.03-.11.06-.33-.06-.63-.1-.95-.1-.03-.02-.08,0-.13.01-.16.07-.29.17-.44.29-.03-.02-.08,0-.13.01-.05.02-.1.03-.11.06-.03-.02-.08,0-.13.01-.02.03-.03.06-.05.09,0,0-.02.03-.03.06-.02.03-.05.09-.08.16.01.05.03.1.04.14.22.12.42.27.66.43.05-.01.1-.03.13-.01.17.05.35.11.52.16.02-.03.07-.05.1-.03.06.03.16.08.23.16-.03.06-.07.13-.1.19-.05.02-.1.03-.14.04-.16.08-.29.17-.42.26-.05.01-.1.03-.14.04-.19.14-.37.32-.56.51-.03-.02-.08,0-.13.01-.02.03-.03.06-.05.09-.03-.02-.08,0-.1.03-.02.03-.03.06-.05.09-.03-.02-.08,0-.13.01-.41.31-.94.18-1.34.17-.34.1-.66.25-.98.4-.05.01-.1.03-.11.06-.03-.02-.08,0-.13.01-.13.01-.24.07-.35.13-.03-.02-.08,0-.13.01-.04.14-.07.28-.12.46,0,0,.03.02.06.03.38.12.79.26,1.18.43.03.02.05.06.06.11-.07.13-.13.25-.19.42.09.05.17.13.25.21-.02.03,0,.08.01.13-.04.22-.06.49-.08.76,0,0,.02.05.03.1-.05.17-.07.36-.09.55.01.05.03.1.04.14q-.05.17.04.3s0,.08.01.13c.06.03.14.11.22.2-.02.03,0,.08.01.13h0ZM111.47,23.54s-.02.03-.03.06c0,0,0,0,0,0-.05.09-.1.19-.17.31-.05.02-.1.03-.14.04-.07.13-.13.25-.2.38-.05.01-.1.03-.11.06-.08.16-.17.31-.25.47-.03-.02-.08,0-.13.01-.05.01-.1.03-.11.06-.03-.02-.08,0-.13.01-.05.02-.1.03-.11.06-.03-.02-.06-.03-.09-.05-.03-.02-.08,0-.1.03-.03-.02-.06-.03-.09-.05-.05.02-.1.03-.11.06-.13-.07-.24-.09-.35-.11-.05.01-.1.03-.14.04-.24-.09-.49-.14-.71-.18-.03-.02-.08,0-.1.03-.39-.25-.78-.5-1.16-.7l4.24-.55h0ZM116.49,13.53s-.08,0-.1.03c-.13.09-.26.18-.37.32-.09-.05-.2-.07-.28-.07.18-.27.4-.52.59-.73.08,0,.19.02.28.07-.05.09-.09.24-.12.38Z"/>
  <path class="f" d="M144.63,33.37s.08,0,.13,0c.01-.05.02-.1.02-.1.3-.19.62-.35.94-.51.08,0,.16-.02.21,0,.1.02.2.04.29.07,0-.08,0-.13-.02-.16.18-.11.36-.23.51-.32.05.01.1.02.15.03.06-.04.12-.08.15-.1.03-.02.08,0,.1.02.26-.12.54-.21.79-.29.05.01.1.02.12.05q.56-.11.97-.32c.04.06.07.17.09.28-.11.15-.22.31-.35.51.02.03,0,.08,0,.13-.03.02-.09.06-.15.09-.03.02-.06.04-.09.06-.07.09-.12.2-.21.34,0,0,.02.03.04.06.05.01.1.02.15.03.21.07.4.17.59.26.03-.02.08,0,.1.02.21.07.4.17.59.26.05.01.1.02.15.03,0,0,.02.03.04.06.05.01.1.02.12.05.05.01.12.05.19.09.03-.02.08,0,.1.02.13,0,.27.04.39.09.03-.02.06-.04.06-.04.03-.02.06-.04.09-.06.03-.02.08,0,.1.02.03-.02.06-.04.09-.06,0-.05.02-.1.02-.1.09-.06.18-.11.24-.15,0-.05.02-.1,0-.13.09-.06.18-.11.24-.15.01-.05.02-.1.02-.1.09-.06.18-.11.24-.15.01-.05.02-.1,0-.13.15-.09.27-.17.39-.25.05.01.1.02.12.05.06-.04.14-.05.19-.03.05.01.1.02.15.03.29.19.68.28.72.68.02.03,0,.08,0,.13-.03.02-.04.07-.05.12.02.03,0,.08,0,.13.03.19.06.43.08.66.02.03,0,.08,0,.13-.06.04-.13.12-.2.21.02.03,0,.08,0,.13-.08.14-.16.27-.28.43.17.27.45.51.83.78.05.01.1.02.12.05.23.36.46.72.7,1.11.02.03,0,.08,0,.13.03.11.02.24.04.4-.03.02-.04.07-.05.12q.03.11-.5.87s-.01.05-.02.1c-.16.14-.33.34-.51.53-.05-.01-.1-.02-.13,0-.26-.09-.56-.15-.85-.22-.05-.01-.1-.02-.13,0-.25-.13-.51-.27-.74-.37-.05-.01-.1-.02-.15-.03-.09-.07-.18-.09-.28-.11-.02-.03-.07-.04-.12-.05-.47-.34-.89-.95-.89-1.21.01-.05.02-.1.03-.15,0-.13.03-.23.02-.31.01-.05.02-.1,0-.13-.03-.11-.03-.19-.04-.27-.05-.01-.1-.02-.15-.03-.04-.06-.08-.12-.1-.15-.22.05-.47.13-.7.23-.02-.03-.07-.04-.1-.02-.14-.08-.28-.12-.43-.15-.02-.03-.07-.04-.12-.05-.09-.07-.15-.11-.22-.15-.02-.03-.07-.04-.12-.05-.05-.01-.1-.02-.13,0-.02-.03-.07-.04-.12-.05-.09-.07-.19-.09-.28-.12-.05,0-.1-.02-.15-.03-.11-.1-.22-.15-.34-.21-.02-.03-.07-.04-.1-.02-.02-.03-.04-.06-.06-.09-.04-.06-.08-.12-.09-.15-.06-.09-.09-.15-.13-.21.29-.14.57-.23.85-.32.03-.02.08,0,.1.02.25-.07.51-.11.75-.14.03-.02.08,0,.13,0,.18.01.33.05.49.11.05.01.1.02.12.05.17.06.33.13.47.21.05.01.1.02.12.05.09.07.17.14.28.24.03-.02.08,0,.1.02q.11.31.04.39s0,.08,0,.13c-.12.08-.1.23-.05.45.03-.02.08,0,.13,0,.14.08.27.16.4.3.03-.02.08,0,.1.02.05.01.12.05.18.09.05.01.1.02.12.05.39.09.78.18,1.16.31.03-.02.08,0,.1.02.05.01.1.02.15.03.15-.09.32-.16.49-.22.01-.05.02-.1.02-.1.11-.49-.04-.52-.14-.75-.05,0-.1-.02-.15-.03-.08-.12-.16-.19-.25-.26-.05-.01-.1-.02-.13,0-.16-.11-.31-.22-.5-.32-.05,0-.1-.02-.15-.03-.04-.06-.11-.1-.15-.11-.05-.01-.1-.02-.13,0-.02-.03-.04-.06-.06-.09-.02-.03-.07-.04-.1-.02-.09-.07-.17-.14-.24-.18-.02-.03-.07-.04-.1-.02-.16-.19-.33-.38-.47-.54-.02-.03-.07-.04-.12-.05-.14-.16-.32-.3-.47-.42-.05,0-.1-.02-.15-.03-.02-.03-.04-.06-.04-.06-.02-.03-.07-.04-.12-.05-.07-.04-.14-.08-.18-.09-.02-.03-.07-.04-.1-.02-.33-.13-.57-.23-.88-.2-.02-.03-.07-.04-.1-.02-.03.02-.06.04-.09.06-.56.18-1.25-.38-1.72.08-.38,0-.75.01-1.14.05-.02-.03-.07-.04-.12-.05-.05-.01-.1-.02-.13,0-.02-.03-.07-.04-.12-.05-.14-.08-.28-.12-.43-.15-.02-.03-.07-.04-.1-.02-.11-.1-.19-.17-.28-.24.12-.08.21-.13.3-.19h0ZM140.8,42.74c.52.76,1.07,1.55,1.58,2.36.03-.02.08,0,.13,0,.16.19.35.41.5.65.03-.02.08,0,.13,0,.02.03.06.09.09.15.05.01.1.02.12.05.24.05.46.13.67.2.03-.02.08,0,.1.02.14-.05.27-.04.4-.04.05.01.1.02.15.03.17-.07.36-.1.55-.14.06-.04.14-.05.19-.03.26-.12.49-.23.72-.33.03-.02.08,0,.13,0,.2-.08.4-.17.57-.23.03-.02.08,0,.13,0,.15-.09.3-.19.45-.28.05.01.1.02.12.05.3-.19.57-.36.84-.53,0-.05.02-.1,0-.13.18-.11.36-.23.54-.34.01-.05.02-.1.02-.1.42-.47.2-.68.5-.87.01-.05.02-.1.05-.12.03-.02.06-.04.06-.04.1-.11.17-.19.24-.28.01-.05.02-.1.05-.12.09-.18.19-.37.28-.56-.23-.03-.45-.05-.66-.05-.05,0-.1-.02-.15-.03-.03.02-.09.06-.15.09-.02-.03-.07-.04-.1-.02-.03.02-.09.06-.15.09-.05,0-.1-.02-.15-.03-.12.08-.24.15-.36.23-.05-.01-.1-.02-.13,0-.06.04-.12.08-.21.13-.05-.01-.1-.02-.15-.03,0,0-.03.02-.06.04-.05-.01-.1-.02-.13,0-.88.26-1.76.4-2.79.59-.02-.03-.07-.04-.1-.02-.81-.41-1.25-1.18-1.68-1.79.01-.05.02-.1.05-.12-.08-.12-.13-.21-.19-.3-.02-.03-.04-.06-.06-.09-.06-.09-.09-.15-.13-.21.01-.05.02-.1,0-.13-.02-.03-.04-.06-.04-.06,0-.05.02-.1.03-.15.05-.12.07-.21.11-.28.01-.05.02-.1.05-.12.03-.02.08,0,.1.02.12-.08.21-.13.3-.19.05.01.1.02.15.03.09-.06.15-.09.21-.13.03-.02.08,0,.13,0,.14-.05.28-.09.42-.14.03-.02.08,0,.13,0,.03-.02.06-.04.06-.04.05.01.1.02.15.03.27-.04.53-.09.79-.08.03-.02.08,0,.1.02.06-.04.12-.08.15-.1.05.01.1.02.15.03.09-.06.17-.07.25-.07.05.01.1.02.15.03.12-.07.24-.15.36-.23.03-.02.08,0,.13,0q.43-.31.54-.55c-.11-.1-.19-.17-.31-.22-.02-.03-.07-.04-.1-.02-.08,0-.19.04-.3.06-.02-.03-.07-.04-.1-.02-.03.02-.06.04-.09.06-.02-.03-.07-.04-.12-.05-.2-.04-.37-.06-.58-.05-.02-.03-.07-.04-.1-.02-.05-.01-.1-.02-.15-.03-.23-.02-.48-.03-.74-.04-.05-.01-.1-.02-.15-.03-.21,0-.43.06-.64.11-.05-.01-.1-.02-.15-.03-.19.03-.41.09-.6.17-.05-.01-.1-.02-.13,0-.03.02-.09.06-.15.09-.02-.03-.07-.04-.12-.05-.06.04-.15.09-.24.15-.02-.03-.07-.04-.1-.02-.15.1-.3.19-.45.28-.05-.01-.1-.02-.15-.03q-.73.51-.96.81s0,.08,0,.13c-.1.11-.18.24-.3.4,0,0,0,.05-.02.1-.04.2-.09.39-.14.64,0,0-.01.05-.02.1,0,.05-.02.1-.03.15.06.09.08.2.13.34-.03.02-.04.07-.05.12.04.06.09.15.15.24,0,0-.01.05-.02.1.04.06.09.15.15.24-.03.02-.04.07-.05.12.06.09.11.18.19.3.02.03,0,.08,0,.13h0ZM137.3,36.41c.11.1.21.2.34.33.03-.02.08,0,.1.02.08,0,.18.01.25.05.05.01.1.02.15.03.03-.02.08,0,.1.02.2.04.36.11.55.2.03-.02.08,0,.13,0,.2.04.39.09.61.16.03-.02.08,0,.13,0,.16-.02.3.02.45.05.03-.02.08,0,.1.02.16-.02.3.02.45.05.03-.02.08,0,.13,0,.05.01.1.02.12.05.16-.02.29-.01.43.02.05.01.1.02.15.03.16-.02.29-.01.43.02.05.01.1.02.12.05.11-.03.24-.02.34,0,.03-.02.08,0,.1.02.66.05,1.32.09,1.98.14.03-.02.08,0,.13,0,.08,0,.16-.02.21,0,.03-.02.08,0,.1.02.08,0,.16-.02.21,0,.03-.02.08,0,.13,0,.2.04.39.09.61.16.03-.02.08,0,.13,0,.05.01.1.02.12.05.03-.02.08,0,.13,0,.05.01.1.02.12.05.03-.02.08,0,.13,0,.03-.02.06-.04.06-.04.05.01.1.02.15.03.08,0,.18.01.25.05.03-.02.08,0,.1.02.03-.02.06-.04.09-.06.05.01.1.02.12.05.02.03.06.09.09.15.03-.02.08,0,.13,0,.02.03.04.06.06.09.03-.02.08,0,.1.02.02.03.04.06.06.09.03-.02.08,0,.13,0,.02.03.04.06.06.09.03-.02.08,0,.1.02.02.03.04.06.06.09.03-.02.08,0,.13,0,.05.01.12.05.15.11.05.01.1.02.15.03.03-.02.08,0,.1.02.05.01.1.02.15.03.14-.17.28-.35.41-.47.01-.05.02-.1.03-.15-.05-.22-.11-.43-.17-.6-.05-.01-.1-.02-.15-.03-.02-.03-.04-.06-.04-.06-.02-.03-.07-.04-.12-.05q-.27-.16-1.17-.31s-.07-.04-.1-.02c-.05,0-.1-.02-.15-.03-.04-.06-.11-.1-.15-.11-.05-.01-.1-.02-.13,0-.11-.1-.22-.15-.34-.21-.02-.03-.07-.04-.12-.05-.02-.03-.04-.06-.04-.06-.05-.01-.1-.02-.15-.03-.21-.2-.41-.37-.63-.53-.05-.01-.1-.02-.15-.03-.08-.12-.16-.19-.25-.26-.02-.03-.04-.06-.04-.06-.04-.06.31-.24.49-.22.05,0,.1.02.12.05.13,0,.26,0,.37.06-.11-.1-.24-.18-.38-.27-.05-.01-.1-.02-.15-.03-.2-.04-.37-.06-.55-.07-.05-.01-.1-.02-.13,0-.22.05-.47.13-.7.23-.02-.03-.07-.04-.12-.05-.03.02-.09.06-.15.1-.05-.01-.1-.02-.13,0-.22.05-.47.13-.7.23,0,0-.03.02-.06.04-.03.02-.06.04-.09.06.08.33.4.5.76.87.02.03.04.06.06.09-.11.15-.62.01-.85,0-.02-.03-.07-.04-.1-.02-.06-.09-.21,0-.24-.06-.05-.01-.1-.02-.15-.03-.2-.04-.37-.06-.55-.07-.05-.01-.1-.02-.13,0-.02-.03-.07-.04-.12-.05-.05-.01-.1-.02-.13,0-.02-.03-.07-.04-.12-.05-.05-.01-.1-.02-.13,0-.07-.04-.17-.06-.24-.05-.02-.03-.07-.04-.12-.05-.2-.04-.37-.06-.58-.05-.02-.03-.07-.04-.1-.02-.77-.15-1.42-.32-2.16-.23-.02-.03-.07-.04-.1-.02-.03.02-.06.04-.09.06-.02-.03-.07-.04-.12-.05-.03.02-.09.06-.15.09-.05,0-.1-.02-.13,0-.06.04-.12.08-.21.13-.03.02-.04.07-.05.12h0ZM136.23,33.72c0,.13.01.29.03.44.14.08.29.19.45.31.05.01.1.02.15.03.03-.02.08,0,.1.02.05.01.1.02.15.03.03-.02.06-.04.06-.04.03-.02.08,0,.13,0,.09-.06.15-.09.21-.13.05.01.1.02.15.03.31-.24.62-.48.9-.7,0-.05.02-.1.05-.12.42-.27.84-.53,1.26-.8.01-.05.02-.1.03-.15.03-.02.06-.04.06-.04.03-.02.06-.04.09-.06.67-.47,1.31-.92,1.97-1.33.03-.02.06-.04.09-.06.03-.02.06-.04.06-.04.09-.06.2-.08.28-.09.01-.05.02-.1.02-.1.03-.02.08,0,.13,0,.2-.08.4-.17.57-.23.03-.02.08,0,.13,0,.04.06.09.15.15.24-.18.11-.39.25-.6.38-.03.02-.04.07-.05.12-.03.02-.09.06-.15.09.02.03,0,.08,0,.13.11.1.21.2.29.32.05.01.1.02.15.03.4-.04.79-.08,1.19-.12.03-.02.08,0,.1.02.03-.02.06-.04.09-.06.05.01.1.02.12.05.17-.07.36-.1.55-.13.03-.02.06-.04.09-.06.03-.02.08,0,.1.02.15-.1.27-.17.39-.25.01-.05.02-.1.02-.1.2-.34.43-.65.65-.96.01-.05.02-.1.05-.12.03-.02.06-.04.06-.04.01-.05.02-.1.03-.15.01-.05.02-.1.02-.1.17-.06.33-.08.49-.1.03-.02.08,0,.1.02.27.04.55.07.83.11.05.01.1.02.12.05.48-.1.76-.19,1.03-.36.01-.05.02-.1.05-.12q.15-.3.11-.62s.02-.1.05-.12c-.04-.06-.08-.12-.09-.15-.05-.01-.1-.02-.15-.03-.13-.13-1.01-.54-1.17-.52-.02-.03-.07-.04-.1-.02q-.37-.06-1.13.08s-.07-.04-.12-.05c-.12.07-.24.15-.39.25.06.09.08.2.13.34.02.03.04.06.06.09q.22.49.17.61s-.1-.02-.13,0c-.33.21-.69.44-1.05.67,0,0-.03.02-.06.04-.05-.01-.13,0-.21,0-.09.06-.18.11-.3.19-.05-.01-.1-.02-.13,0,.1-.11.17-.19.24-.28,0-.05.02-.1.05-.12q.32-.29.45-.62c.01-.05.02-.1.02-.1-.1-.15-.2-.25-.31-.35-.05-.01-.1-.02-.13,0-.18-.01-.36-.03-.51-.01-.05-.01-.1-.02-.13,0s-.09.06-.15.1c-.02-.03-.07-.04-.12-.05-.15.1-.3.19-.45.28-.03.02-.06.04-.09.06,0,0-.03.02-.06.04-.03.02-.06.04-.09.06-.03.02-.09.06-.15.1-.02-.03-.07-.04-.1-.02-.71.41-1.42.81-2.16,1.24-.05-.01-.1-.02-.13,0-.12.08-.24.15-.36.23-.05,0-.1-.02-.15-.03-.06.04-.12.08-.21.13-.05-.01-.1-.02-.13,0-.06.04-.12.08-.21.13-.05-.01-.1-.02-.15-.03-.03.02-.09.06-.15.09-.08,0-.16.02-.25.07-.18.11-.39.25-.6.38-.03.02-.06.04-.09.06,0,0-.03.02-.06.04-.03.02-.06.04-.09.06,0,0-.03.02-.06.04-.05-.01-.1-.02-.15-.03-.39.25-.78.49-1.2.76.02.03,0,.08,0,.13-.03.02-.06.04-.09.06-.06.04-.12.08-.21.13-.03.02-.04.07-.05.12,0,0-.03.02-.06.04-.11.16-.21.34-.3.53-.03.02-.04.07-.05.12Z"/>
  <path class="f" d="M31.66,42.79c-.07.03-.15.06-.2.06-.43.42-.86.85-1.24,1.27-.87-.26-.95-.43-1.29-.69,0-.05,0-.1,0-.15-.28-.49-.19-.27-.11-.67,0-.05,0-.1.02-.13-.03-.5-.03-1.03-.03-1.56,0-.05,0-.1,0-.15-.05-.43-.09-.85-.12-1.3-.03-.02-.03-.07-.03-.12-.07-.3-.13-.6-.17-.87,0-.05,0-.1.02-.13-.06-.1-.09-.22-.09-.32-.03-.02-.03-.07,0-.1-.06-.15-.07-.3-.07-.45-.03-.02-.03-.07-.03-.12-.06-.1-.06-.2-.07-.3,0-.05,0-.1,0-.15-.03-.02-.03-.07,0-.1-.05-.1-.09-.22-.09-.32,0-.05,0-.1.02-.13-.06-.15-.09-.27-.1-.42,0-.05,0-.1,0-.15-.11-.2-.22-.39-.28-.59,0-.05,0-.1,0-.15-.03-.02-.05-.05-.05-.05-.24-.21-.43-.43-.61-.65,0-.05,0-.1,0-.15-.3-.56-.29-.31-.04-.85,0-.05,0-.1,0-.15.22-.19.43-.38.68-.59,0,0,.05,0,.1,0,.02-.03.05-.05.07-.08.03.02.08.02.13.02.27-.09.57-.21.86-.32.03.02.08.02.13.02.02-.03.07-.03.12-.03.03.02.05.05.08.07,0,0,.05,0,.1,0,.18.17.4.36.61.55-.02.03-.02.08,0,.1.03.07.08.17.14.27-.02.03-.02.08,0,.1.03.02.05.05.08.07-.03.03-.02.08-.02.13.03.03.05.05.08.07-.02.03-.02.08,0,.1.03.12.06.25.14.37,0,.05,0,.1,0,.15,0,.05.03.13.08.17-.02.03-.02.08-.02.13,0,.05,0,.1.03.12.05.43.04.8.31,1.24,0,0,.05,0,.1,0,.12-.13.24-.26.36-.4,0-.05,0-.1.02-.13.07-.18.16-.39.27-.57-.05-.1-.11-.2-.14-.27-.03-.02-.03-.07,0-.1-.31-.61-.62-1.23-.9-1.87.11-.23.23-.46.34-.7-.03-.02-.03-.07-.03-.13.12-.08.24-.16.39-.27,0,0,.05,0,.1,0,.07-.03.2-.06.32-.09.03.02.08.02.13.02.02-.03.07-.03.12-.03.03.02.08.02.13.02.02-.03.07-.03.12-.03.03.02.08.02.13.02.18.07.38.11.59.15,0,0,.05,0,.1,0,.08.02.18.07.28.11,0,0,.05,0,.1,0,.03.02.05.05.08.07.02-.03.07-.03.12-.03.03.02.05.05.08.07,0,0,.05,0,.1,0,.03.02.08.07.13.12.05,0,.1,0,.15,0,.05.05.11.09.18.17.03.02.08.02.13.02.4.36.79.71,1.21,1.04.01.3.03.6.07.93-.07.03-.15.06-.17.08-.05,0-.1,0-.12.03-.1.11-.19.21-.28.32-.05,0-.1,0-.15,0-.13.31-.25.59-.33.9,0,.05,0,.1.03.12-.2.49-.35.97-.5,1.46,0,.05,0,.1,0,.15-.02.03-.05.05-.05.05-.02.03-.02.08-.02.13-.05.05-.1.1-.12.13,0,.05,0,.1.03.12-.05.05-.1.11-.12.13-.02.03-.02.08-.02.13-.02.03-.05.05-.05.05,0,.05,0,.1,0,.15-.1.11-.14.21-.19.31,0,.05,0,.1.03.12-.09.15-.16.33-.23.51-.02.03-.02.08-.02.13-.04.1-.04.2-.04.3,0,.05,0,.1,0,.15-.06.28-.12.56-.16.81-.08-.07-.13-.12-.18-.17-.05,0-.1,0-.13-.02-.14.26-.25.54-.33.8-.03.03-.02.08,0,.1-.02.03-.05.05-.07.08,0,.05,0,.1.03.12-.1.1-.14.21-.19.31,0,.05,0,.1,0,.15-.21.39-.41.78-.57,1.16h0ZM37.52,46.64c.19-.21.38-.42.6-.66,0-.05,0-.1,0-.15.36-.77.02-1.13-.46-1.66.15-.06.32-.14.49-.23.03.03.08.02.13.02.15.04.38,0,.57-.11,0,0,.02-.03.05-.05.02-.03.05-.05.07-.08,0,0,.02-.03.05-.05.02-.03.05-.05.07-.08.19-.21.38-.42.6-.66-.03-.02-.03-.07-.03-.12.02-.03.07-.08.12-.13,0-.05,0-.1.02-.13,0,0,.02-.03.05-.05,0-.05,0-.1,0-.15q.29-.79.57-1.16c0-.05.02-.13.07-.18.17-.19.33-.37.52-.58,0-.05,0-.1,0-.15.07-.08.14-.16.24-.26-.03-.02-.03-.07,0-.1.07-.18.13-.36.23-.51-.03-.02-.05-.05-.08-.07-.05-.05-.11-.1-.13-.12,0-.05,0-.1.02-.13-.21-.14-.42-.28-.6-.4-.05,0-.1,0-.13-.02-.17.08-.32.14-.44.22-.05,0-.1,0-.1,0-.08-.07-.16-.14-.21-.19-.05,0-.1,0-.12.03-.03-.02-.05-.05-.08-.07-.05-.05-.1-.09-.13-.12-.05,0-.1,0-.1,0-.03-.02-.05-.05-.08-.07-.05,0-.1,0-.12.03-.08-.02-.15-.04-.18-.07-.03-.02-.03-.07-.03-.12-.11-.19-.2-.42-.26-.62-.03-.02-.03-.07-.03-.12-.03-.07-.06-.15-.06-.2-.03-.02-.03-.07,0-.1-.03-.02-.05-.05-.08-.07,0-.05,0-.1.02-.13-.03-.02-.05-.05-.08-.07-.03-.02-.03-.07,0-.1-.08-.12-.11-.25-.14-.37,0-.05,0-.1,0-.15-.06-.15-.09-.27-.1-.42,0-.05,0-.1.02-.13-.18-.17-.34-.36-.48-.53-.05,0-.1,0-.13-.02-.1,0-.2,0-.25.01-.05,0-.1,0-.12.03-.03.03-.05.05-.05.05-.05,0-.1,0-.15,0-.54.23-.67.64-.89.88-.05,0-.1,0-.13-.02-.04.1-.09.21-.11.28-.02.03-.02.08,0,.1-.02.03-.05.05-.07.08-.05,0-.1,0-.1,0-.44.32-.38.37-.54.71,0,.05,0,.1,0,.15-.02.03-.05.05-.05.05-.02.03-.02.08-.02.13-.02.03-.05.05-.05.05,0,.05,0,.1,0,.15-.07.13-.11.28-.15.44-.02.03-.02.08-.02.13-.28.47-.31.44-.43.9-.02.03-.02.08-.02.13-.02.08-.04.15-.04.2-.02.03-.02.08,0,.1-.1.48-.18.99-.23,1.47-.02.03-.02.08-.02.13-.05.43-.08.88-.11,1.34-.02.03-.05.05-.05.05-.05.05-.09.11-.12.13-.05,0-.1,0-.15,0-.02.03-.05.05-.05.05-.05,0-.1,0-.13.03-.05,0-.1,0-.13-.02-.05,0-.1,0-.12.03-.47-.28-.33-.54-.39-.78q-.12.08-.41.88s-.02.08-.02.13c-.05,0-.1,0-.1,0-.02.03-.05.05-.07.08-.05,0-.1,0-.13-.02-.09.31-.06.33.03.65-.02.03-.02.08,0,.1.03.02.05.05.08.07-.02.03-.02.08-.02.13-.03.03-.05.05-.05.05,0,.05,0,.1,0,.15,0,0,.03.02.05.05.05,0,.1,0,.15,0-.03.03-.02.08-.02.13,0,.05,0,.1.03.12.06.1.11.19.19.32.05,0,.13.02.2.04,0,0,.03.02.05.05.03.02.05.05.08.07,0,0,.03.02.05.05.03.02.05.05.08.07.42.33.89.66,1.36.99.03.02.08.02.13.02.05.05.1.09.18.17.05,0,.1,0,.15,0,.05.05.13.07.23.11.05,0,.1,0,.15,0,0,0,.05,0,.1,0,.08.02.2.04.33.06.02-.03.07-.03.12-.03.13.07.28.11.46.18,0,0,.05,0,.1,0,.05,0,.1,0,.15,0,.15,0,.3-.02.5-.03,0,0,.05,0,.1,0,.05-.05.12-.13.19-.21.03.02.08.02.13.02h0ZM32.61,44.12s.05-.05.07-.08c-.03-.02-.05-.05-.08-.07-.02.03-.05.05-.07.08.03.02.05.05.08.07h0ZM35.64,43.26c.05.05.13.12.21.19.07-.18.13-.36.23-.52,0-.05,0-.1,0-.15,0-.15-.02-.3,0-.48.35-.5.47-.68.16-1.29-.03-.02-.03-.07,0-.1-.08-.07-.16-.14-.21-.19,0-.05,0-.1.02-.13-.05-.05-.11-.09-.13-.12-.03-.02-.03-.07-.03-.12-.18-.17-.34-.31-.5-.45,0,.15.04.27.07.4,0,.05,0,.1,0,.15-.02.03-.02.08,0,.1.02.35-.3,1.07-.44,1.28q.36.56.34.69s0,.1.03.12c.03.07.06.15.11.25,0,.05,0,.1.03.12.03.02.08.07.13.12-.02.03-.02.08-.02.13Z"/>
  <path class="f" d="M60.7,19.11s-.02-.07-.02-.07c-.07-.2-.14-.4-.21-.6q.39-.06.46.03s.09.04.13.06c0,0,.01.03.02.07.01.03.06.05.1.08.03.1.07.2.12.33,0,0,.01.03.02.07.1.19.21.38.31.57-.21.04-.39.06-.57.09-.15-.21-.26-.43-.37-.62h0ZM63.08,24.86c-.02.27.08.65.54,1.13.37-.13.74-.26,1.11-.39.02-.05.04-.09.08-.1.09-.18.19-.33.29-.48.02-.05.04-.09.07-.14-.02-.07-.05-.13-.06-.17-.01-.03.01-.08.04-.09-.02-.07-.05-.13-.06-.17.02-.05.04-.09.07-.14-.07-.31-.11-.64-.15-.96-.01-.03-.02-.07-.03-.1-.01-.03-.02-.07-.02-.07-.01-.03-.02-.07-.04-.1-.01-.03-.02-.07-.02-.07-.01-.03-.02-.07-.03-.1s-.02-.07-.02-.07c-.01-.03,0-.08.03-.12-.07-.2-.14-.4-.2-.57.02-.05.04-.09.07-.14-.03-.1-.06-.17-.08-.23-.05-.02-.09-.04-.14-.07.02-.04.04-.09.08-.1-.01-.03-.02-.07-.04-.1-.06-.06-.11-.11-.16-.13-.02-.07-.05-.13-.06-.17-.01-.03-.02-.07-.02-.07-.01-.03-.02-.07-.03-.1.02-.05.04-.09.08-.1-.01-.03-.02-.07-.03-.1-.01-.03-.02-.07-.02-.07-.1-.3-.2-.57-.29-.84-.03.01-.07.02-.1.03.08.35.17.7.28,1.03-.03.01-.06.06-.08.1-.07.02-.13.05-.17.06-.29-.84-.59-1.68-.88-2.52-.05-.02-.09-.04-.09-.04-.01-.03-.02-.07-.03-.1-.08-.23-.16-.47-.23-.67.13-.05.35-.08.46-.31q.34-.12.55-.04s.06.06.1.08c.07.09.14.18.22.3,0,0,.01.03.02.07-.02.04-.03.12-.04.2-.02.05-.04.09-.03.12.01.03.03.1.06.17-.03.01-.05.06-.08.1.01.03.02.07.04.1.03-.01.08.01.12.03.16.24.32.49.53.76.05.02.09.04.14.07.13.07.27.13.45.22,0,0,.05.02.09.04.11,0,.24.03.39.05.05.02.09.04.14.07.07-.02.13-.05.23-.08.02-.05.04-.09.07-.13-.01-.03,0-.08.04-.09.02-.05.04-.09.07-.14-.15-.44-.29-.84-.44-1.24-.05-.02-.09-.04-.13-.07-.07-.09-.13-.14-.15-.21-.04-.02-.09-.04-.14-.07-.08-.12-.15-.21-.18-.31-.05-.02-.09-.04-.13-.03-.12-.33-.22-.64-.33-.94-.03.01-.07.02-.07.02-.04.09-.07.21-.07.33-.03.01-.06.06-.08.1-.06.06-.11.11-.13.16-.05-.02-.09-.04-.1-.08-.57.09-1.07.18-1.29.07-.01-.03.01-.08.04-.09,0-.11,0-.22,0-.3-.01-.03,0-.08.04-.09-.02-.07-.05-.13-.06-.17.02-.05.04-.09.06-.14-.06-.17-.12-.33-.18-.5-.01-.03-.02-.07-.02-.07-.02-.07-.05-.13-.06-.17-.04-.02-.09-.04-.14-.07-.08-.12-.15-.21-.18-.31-.04-.02-.09-.04-.12-.03-.29-.09-.57-.14-.82-.2-.04-.02-.09-.04-.09-.04-.15.01-.26.01-.37.02.01.03.02.07.04.1.02.07.08.12.15.21.05.02.09.04.14.07.08.23.16.47.26.74.01.03.02.07.04.1,0,0,.01.03.02.07.01.03.02.07.03.1,0,0,.01.03.02.07.01.03.02.07.03.1.01.03.04.1.06.17,0,0,.01.03.02.07.01.03.02.07.04.1,0,0,.01.03.02.07.01.03.02.07.03.1,0,0,.01.03.02.07.01.03.02.07.04.1,0,0,.01.03.02.07-.02.04-.04.09-.07.13l.02.07s.1.08.16.13c.01.03.02.07.03.1-.02.05-.03.12-.04.2.18.5.35,1.01.53,1.51,0,0,.01.03.02.07.02.07.06.17.09.27-.03.01-.06.06-.04.09.13.37.27.77.41,1.18-.02.04-.04.09-.06.14.01.03.03.1.06.17-.03.01-.05.06-.04.09.02.07.06.17.09.27-.03.01-.06.06-.08.1.01.03.03.1.06.17-.02.05-.04.09-.03.13.01.03.03.1.06.17-.03.01-.06.06-.08.1.02.07.06.17.09.27-.03.01-.06.06-.04.09,0,.42.03.85.07,1.29-.02.04-.04.09-.07.14-.03.01-.05.06-.04.09-.02.05-.04.09-.07.14-.03.01-.05.06-.04.09-.01.08,0,.19,0,.3-.03.01-.06.06-.04.09h0ZM72.8,21.21s-.09-.04-.1-.08c-.11-.11-.21-.19-.28-.28-.05-.02-.09-.04-.12-.03-.3-.2-.59-.4-.85-.61q.48-.77.49-.96s.04-.09.06-.14c-.11-.3-.2-.57-.29-.84-.04-.02-.09-.04-.12-.03-.18-.5-.35-1.01-.53-1.51-.01-.03-.02-.07-.04-.1-.01-.03-.02-.07-.02-.07-.09-.15-.18-.31-.24-.48-.04-.02-.09-.04-.13-.06-.1.03-.19.1-.25.16,0,.08-.02.16,0,.22-.03.01-.05.06-.04.09,0,.08,0,.19,0,.3q-.22.12-.54.08s-.09-.04-.09-.04c-.03.01-.07.02-.1.03-.05-.02-.09-.04-.1-.08-.05-.02-.09-.04-.12-.03-.05-.02-.09-.04-.1-.08-.05-.02-.09-.04-.12-.03-.01-.03-.02-.07-.03-.1-.05-.02-.09-.04-.09-.04-.04-.1-.07-.2-.09-.27-.05-.02-.09-.04-.12-.03-.04-.1-.07-.2-.09-.27l-.09-.04c-.2-.15-.38-.32-.55-.49-.04-.02-.09-.04-.12-.03-.03.01-.06.06-.04.09-.17.06-.33.15-.45.23.05.25.13.48.21.72,0,0,.01.03.02.07.01.03.02.07.04.1,0,0,.01.03.02.07.01.03.02.07.03.1,0,0,.01.03.02.07.01.03.04.1.06.17.13.37.29.73.45,1.08,0,0,.01.03.02.07.01.03.02.07.04.1l.02.07s.02.07.03.1c.03-.01.08.01.12.03.07.2.15.44.23.67.01.03.02.07.04.1,0,0,.04.02.09.04.01.03.03.07.04.1-.03.01-.06.06-.04.09.01.03.02.07.04.1,0,0,.01.03.02.07.01.03.02.07.03.1.05.25.1.49.16.77-.02.05-.04.09-.03.12-.03.12-.06.25-.05.4-.03.01-.05.06-.08.1-.02.04-.04.09-.03.12-.13.05-.23.08-.33.12-.05-.02-.09-.04-.14-.07-.05-.02-.09-.04-.09-.04-.23-.11-.41-.2-.59-.28-.04-.02-.09-.04-.09-.04-.01-.03-.02-.07-.04-.1-.04-.02-.09-.04-.12-.03-.03-.1-.07-.2-.09-.27-.04-.02-.09-.04-.09-.04-.04-.1-.07-.2-.09-.27-.01-.03-.02-.07-.02-.07-.01-.03-.02-.07-.04-.1-.11-.3-.21-.6-.32-.91-.01-.03.01-.08.03-.12-.15-.44-.29-.84-.43-1.24.02-.04.04-.09.07-.13-.02-.07-.05-.13-.06-.17-.01-.03-.02-.07-.02-.07-.01-.03-.02-.07-.04-.1-.01-.03-.02-.07-.02-.07-.01-.03-.02-.07-.03-.1-.11-.3-.2-.57-.29-.84-.01-.03,0-.08.04-.09-.01-.03-.02-.07-.04-.1.02-.04.04-.09.08-.1-.12-.33-.22-.64-.33-.94-.01-.03-.02-.07-.02-.07-.08-.23-.16-.47-.23-.67-.02-.07-.05-.13-.06-.17-.06-.17-.11-.3-.15-.44-.05-.02-.09-.04-.12-.03-.01-.03-.02-.07-.04-.1-.04-.02-.09-.04-.09-.04-.03-.18,0-.34.01-.5-.01-.03.01-.08.04-.09.17-.17.37-.35.58-.5.05.02.09.04.14.07.17-.06.29.09.45.22,0,0,.05.02.09.04.01.03.02.07.04.1.03-.01.08.01.12.03.09.27.22.53.36.81.04.02.09.04.13.07,0,0,.01.03.02.07q-.1.04-.04.2s.07-.02.1-.04c.01.03.02.07.03.1-.03.01-.05.06-.08.1.05.02.09.04.14.07,0,.41.04.85.08,1.29.05-.06.11-.11.2-.18.02-.04.04-.09.08-.1.02-.05.08-.1.13-.16-.01-.03,0-.08.04-.09.22-.45.65-.41,1.02-.85.06-.25.13-.5.24-.72-.01-.03,0-.08.03-.12-.04-.1-.06-.17-.08-.23.02-.05.04-.09.07-.14-.02-.07-.05-.13-.06-.17-.01-.03,0-.08.04-.09-.06-.28-.09-.57-.1-.83.02-.05.04-.09.08-.1-.02-.07-.05-.13-.06-.17-.01-.03,0-.08.03-.12.02-.38.08-.74.14-1.1.37-.13.77-.5,1.45-.28.03-.01.08.01.13.03.15.1.3.2.49.32,0,0,.05.02.09.04.17.17.35.37.57.55.05.02.09.04.14.07.04.1.07.2.12.34,0,0,.05.02.09.04.23.67.47,1.34.7,2.01-.02.05-.04.09-.03.12,0,0,.01.03.02.07.01.03.02.07.03.1,0,0,.01.03.02.07.01.03.02.07.04.1,0,0,.04.02.09.04.01.03.02.07.04.1-.03.01-.06.06-.04.09.01.03.02.07.04.1,0,0,.01.03.02.07.01.03.02.07.04.1,0,0,.01.03.02.07.01.03.02.07.04.1.01.03.03.1.06.17,0,0,.01.03.02.07.01.03.02.07.03.1,0,0,.01.03.02.07.01.03.02.07.04.1,0,0,.05.02.09.04.04.1.07.2.12.34.01.03.03.07.04.1.03-.01.08.01.12.03.02.07.06.17.09.27,0,0,.01.03.02.07.01.03.02.07.03.1,0,0,.01.03.02.07.01.03.06.06.1.08,0,0,.01.03.02.07.01.03.02.07.04.1,0,0,.01.03.02.07.04.02.09.04.13.07,0,0,.01.03.02.07-.02.04-.04.09-.07.13,0,0,.01.03.02.07.05.13.09.27.15.44.03-.01.08,0,.12.03.07.2.15.44.23.67.01.03.06.05.1.08.06.17.13.37.2.57.01.03.02.07.04.1.07.2.15.43.23.67.03-.01.08.01.12.03.05.13.08.54-.03.77-.02.04-.04.09-.03.12,0,.08-.02.16-.02.27-.02.04-.04.09-.03.12-.1.03-.2.07-.27.09-.03.01-.06.06-.04.09-.02.05-.04.09-.07.14,0,0,.01.03.02.07.12.78-1.58.44-1.58.44-.23-.11-.45-.22-.63-.3Z"/>
  <path class="g" d="M90.3,154.49c-35.39,0-64.19-28.79-64.19-64.19S54.91,26.12,90.3,26.12s64.19,28.79,64.19,64.19-28.79,64.19-64.19,64.19ZM90.3,27.08c-34.86,0-63.22,28.36-63.22,63.23s28.36,63.22,63.22,63.22,63.22-28.36,63.22-63.22-28.36-63.23-63.22-63.23Z"/>
</svg>