<?xml version="1.0" encoding="UTF-8"?>
<svg id="a" data-name="word" xmlns="http://www.w3.org/2000/svg" viewBox="0 0 1141.79 543.05">
  <defs>
    <style>
      .c {
        fill: #3e3a39;
      }

      .c, .d {
        fill-rule: evenodd;
      }
    </style>
  </defs>
  <path class="d" d="M237.65,138.7v26.36h-6.42v-26.36h-10.34v-6.16h27.34v6.16h-10.58ZM265.96,163.6c-.76.37-1.52.72-2.29,1.03-.78.32-1.79.52-3.02.61-1.58.14-3.04-.03-4.38-.52-1.33-.48-2.36-1.21-3.08-2.2-.73-.99-1.06-2.17-.99-3.54.05-1.02.32-1.93.83-2.76.51-.82,1.16-1.52,1.94-2.09.79-.57,1.69-1.05,2.7-1.43,1.02-.39,1.87-.67,2.55-.86.67-.18,1.79-.47,3.34-.88l2.08-.54v-.78c0-.31-.17-.62-.49-.94-.32-.31-.77-.55-1.35-.7-.58-.16-1.19-.21-1.84-.16-.84.08-1.55.32-2.1.73-.56.4-.91.88-1.06,1.44l-.27.85h-5.73c.14-.68.3-1.33.49-1.96.18-.63.53-1.35,1.05-2.16.51-.8,1.17-1.48,1.97-2.03.8-.54,1.79-.96,2.97-1.25,1.17-.28,2.25-.43,3.22-.45,1.28-.02,2.53.16,3.75.52,1.23.36,2.22.82,2.95,1.39.74.56,1.27,1.18,1.58,1.85.31.67.47,1.29.49,1.86v10.71c0,.48.02,1.07.08,1.78.05.71.13,1.17.22,1.39l.39,1.08-5.64,1.64-.37-1.64h0ZM265.66,155.26c-.88.24-1.73.49-2.55.73-.82.25-1.67.55-2.55.91-.88.35-1.58.75-2.13,1.2-.54.45-.77.86-.68,1.24.09.38.37.69.87.92.49.24,1.12.32,1.89.22,1.02-.11,1.95-.39,2.79-.86.85-.46,1.45-1,1.81-1.62.35-.62.53-1.23.52-1.83,0-.59,0-.89.03-.91h0ZM277.01,143.21h5.59v21.87h-5.59v-21.87h0ZM277.01,132.45h5.59v5.77h-5.59v-5.77h0ZM295.54,159.47h11.85v5.59h-19.56v-5.59l10.67-10.68h-9.82v-5.59h17.53v5.59l-10.67,10.68h0ZM316.43,144.96c.54-.43,1.15-.86,1.84-1.28.68-.42,1.81-.69,3.38-.82,1.68-.1,3.16.13,4.46.71,1.29.57,2.3,1.38,3.04,2.41.73,1.03,1.14,1.93,1.24,2.69.1.76.15,1.66.15,2.7v13.72h-5.22v-13.24c0-.66-.1-1.29-.31-1.87-.21-.58-.59-1.08-1.16-1.48-.56-.39-1.4-.53-2.52-.39-.86.1-1.62.37-2.3.8-.67.42-1.23.93-1.65,1.53l-.95,1.28v13.37h-5.12v-32.55h5.12v12.43h0ZM354.79,154.73c-.05,1.54-.27,2.92-.63,4.14-.36,1.21-1,2.38-1.91,3.48-.91,1.11-2.07,1.94-3.48,2.48-1.42.54-3.03.75-4.83.61-1.99-.14-3.69-.66-5.08-1.57-1.39-.91-2.43-2.14-3.12-3.71-.69-1.56-1.07-3.24-1.14-5.05-.06-1.8.16-3.48.68-5.05.4-1.22.99-2.33,1.75-3.32.77-.99,1.77-1.83,2.98-2.51,1.22-.68,2.68-1.06,4.39-1.13,1.45-.05,2.84.18,4.17.68,1.33.5,2.52,1.32,3.56,2.44,1.05,1.13,1.77,2.38,2.15,3.77.39,1.39.55,2.97.5,4.73h0ZM340.03,154.2c-.03.95.06,1.88.27,2.76.21.88.66,1.67,1.32,2.36.68.69,1.66.99,2.96.94,1.55-.06,2.67-.6,3.39-1.61.71-1.01,1.08-2.25,1.1-3.72.01-1.47-.08-2.55-.28-3.24-.29-.88-.77-1.6-1.44-2.18-.67-.57-1.56-.86-2.66-.87-1.1,0-2.03.27-2.76.84-.76.59-1.26,1.32-1.51,2.18-.24.88-.38,1.71-.39,2.53h0ZM372.61,162.91c-.6.52-1.1.91-1.5,1.17-.39.25-.94.48-1.62.69-.69.21-1.54.31-2.55.31-1.36.02-2.6-.19-3.74-.62-1.14-.43-2.04-1.04-2.71-1.83-.67-.78-1.13-1.68-1.37-2.7-.24-1.02-.37-2.12-.37-3.3v-13.42h5.45v12.5c-.01.86.04,1.55.17,2.07.12.53.39,1.01.82,1.46.42.45,1.21.6,2.39.46.94-.09,1.84-.48,2.68-1.16.85-.69,1.45-1.47,1.81-2.33.36-.87.55-1.7.57-2.48v-10.51h5.57v21.87h-5.54l-.02-2.17h0ZM401.27,152.79v-20.35h6.08v20.35c0,1.47.13,2.61.4,3.43.27.83.73,1.53,1.4,2.11.66.59,1.44.95,2.33,1.1.88.14,1.89.21,3.04.19,1,0,1.84-.05,2.51-.16.67-.11,1.42-.4,2.25-.89.84-.48,1.48-1.23,1.96-2.23.46-1,.7-2.18.7-3.56v-20.35h6.23v19.84c0,1.8-.17,3.49-.53,5.05-.35,1.56-1,2.95-1.93,4.17-.93,1.21-2.28,2.18-4.03,2.87-1.76.7-3.93,1.07-6.54,1.1-2.39.03-4.42-.19-6.1-.65-1.68-.46-3.15-1.2-4.43-2.21-1.28-1.01-2.15-2.32-2.62-3.93-.47-1.61-.7-3.58-.7-5.91h0ZM437.77,144.83c.5-.32,1.05-.65,1.67-.98.62-.33,1.62-.55,3-.66,1.12-.08,2.25.02,3.38.29,1.13.27,2.14.75,3.03,1.44.88.69,1.52,1.43,1.9,2.2.39.78.62,1.43.69,1.96.08.54.12,1.18.12,1.96v14.02h-5.52v-12.75c0-.66-.06-1.25-.18-1.77-.13-.53-.5-1.02-1.14-1.47-.63-.46-1.39-.68-2.29-.66-.79.02-1.52.21-2.22.57-.69.37-1.17.75-1.44,1.14l-1.02,1.34v13.6h-5.45v-21.85h5.45v1.62h0ZM456.86,143.21h5.59v21.87h-5.59v-21.87h0ZM456.86,132.45h5.59v5.77h-5.59v-5.77h0ZM483.02,143.2l5.91-.02-7.16,21.88h-7.11l-7-21.86h5.98l4.6,15.69,4.78-15.69h0ZM498.16,155.59c.05.49.13,1.02.23,1.57.09.56.32,1.13.7,1.71.38.58.92,1.03,1.63,1.34.71.31,1.46.46,2.26.44.92,0,1.7-.2,2.34-.61.64-.41,1.03-.91,1.17-1.49l.24-.85h5.77c-.18.84-.43,1.76-.74,2.77-.31,1-.9,1.91-1.77,2.71-.88.81-1.92,1.4-3.11,1.78-1.2.38-2.54.55-4.04.52-2.38-.03-4.34-.54-5.85-1.51-1.52-.98-2.59-2.29-3.2-3.93-.62-1.64-.92-3.34-.92-5.09s.15-3.21.46-4.37c.31-1.14.86-2.29,1.66-3.44.79-1.16,1.89-2.11,3.3-2.88,1.4-.77,2.97-1.15,4.7-1.17,2.17,0,4.05.57,5.64,1.69,1.58,1.14,2.63,2.44,3.14,3.92.51,1.47.79,2.91.84,4.3l.09,2.59h-14.52ZM498.55,151.66h8.53c-.16-.65-.33-1.21-.54-1.69-.2-.49-.57-.96-1.13-1.44-.56-.47-1.24-.71-2.05-.73-.8-.02-1.51.11-2.1.38-.59.27-1.13.67-1.59,1.2-.47.54-.77,1.04-.89,1.51l-.24.77h0ZM516.79,143.21h5.5v2.14c.71-.42,1.35-.78,1.92-1.05.58-.27,1.36-.5,2.37-.7,1.01-.2,2-.31,2.97-.35l2.73-.07v5.61c-1.21-.06-2.33-.09-3.36-.07-1.02.02-2.07.2-3.13.58-1.06.37-1.87.83-2.41,1.36l-1.09,1.02v13.4h-5.5v-21.87h0ZM554.84,149.97h-5.75c-.2-.32-.41-.62-.62-.89-.22-.27-.57-.49-1.06-.65-.48-.17-1.15-.26-2-.26-1.08.02-1.9.2-2.47.54-.57.35-.84.71-.8,1.1.01.31.19.58.53.81.34.23.87.39,1.58.5.72.1,1.82.34,3.31.72,1.5.38,2.74.8,3.74,1.28,1,.48,1.86,1.18,2.58,2.11.71.92,1.03,2.16.95,3.72-.11,1.65-.64,2.98-1.61,3.96-.96.98-2.03,1.63-3.23,1.96-1.19.33-2.22.52-3.07.57-.86.05-1.69.05-2.48,0-.76-.03-1.49-.1-2.2-.21-.7-.1-1.44-.32-2.22-.65-.76-.32-1.43-.8-1.99-1.43-.55-.63-.97-1.33-1.25-2.11-.28-.77-.45-1.44-.5-2.03l-.17-1.18,5.76.05c.05.46.13.83.23,1.1.09.27.27.54.54.83.27.29.59.5.98.63.39.13.88.2,1.48.21.68.03,1.24,0,1.69-.08.44-.09.85-.26,1.23-.52.38-.26.61-.61.7-1.07.09-.46-.03-.88-.36-1.29-.24-.28-.73-.53-1.46-.76-.73-.24-1.39-.42-1.99-.58l-3.26-.67c-1.28-.28-2.33-.67-3.14-1.2-.82-.52-1.39-1.2-1.74-2.02-.34-.83-.48-1.76-.42-2.81.03-.73.18-1.43.44-2.14.26-.7.73-1.37,1.41-2,.68-.63,1.56-1.15,2.66-1.57,1.1-.42,2.51-.65,4.22-.69,1.29-.02,2.66.14,4.11.46,1.45.32,2.61.95,3.49,1.87.88.92,1.46,1.94,1.75,3.05l.37,1.34h0ZM560.34,143.21h5.59v21.87h-5.59v-21.87h0ZM560.34,132.45h5.59v5.77h-5.59v-5.77h0ZM581.93,142.59h5.43v5.42h-5.43v9.29c0,.47.04.87.13,1.17.09.3.25.53.5.68.24.16.75.25,1.51.29.75.04,1.16.05,1.22.03l2.08-.09-.04,5.71c-.99,0-1.93,0-2.83,0-.91,0-1.8-.02-2.68-.09-.88-.07-1.75-.28-2.58-.61-.84-.34-1.46-.81-1.85-1.4-.39-.59-.66-1.22-.82-1.89-.15-.66-.23-1.28-.23-1.87v-11.23h-5.12v-5.42h5.12v-6.47h5.61v6.47h0ZM602.65,156.28l4.37-13.1,5.89.02-8.92,24.74c-.38,1.05-.76,1.95-1.13,2.69-.37.75-.79,1.35-1.26,1.81-.46.46-1.03.77-1.69.94-.65.17-1.2.25-1.62.25h-4.87v-5.66h2.42c.53,0,.92-.02,1.21-.07.28-.05.5-.11.66-.2.17-.08.39-.29.66-.63.27-.34.53-.82.77-1.43l.72-1.87-8.45-20.56,6.12-.02,5.12,13.1Z"/>
  <path class="c" d="M365.32,40.18c3.44.13,5.24.69,7.78,2.18.01,4.29,1.58,4.88,2.49,7.46v16.8c.3.97.95,1.27,1.24,2.8.1.1.21.21.31.31-.1,2.7-.21,5.39-.31,8.09.76,2.58,3.5,12.82,2.49,15.55-.96,2.09-4.05,4.73-5.91,5.91-1.45.42-2.9.83-4.35,1.24-3.73-3.1-9.04-5.7-10.27-11.2,4.14-3.38,4.8-13.75,3.73-20.22-.21-.1-.41-.21-.62-.31-.41.1-.83.21-1.25.31-.9,2.15-1.66,3.13-3.42,4.35-7.13-1.41-3.58-13.09-9.02-9.64-1.23,7.26,3.74,16.13.93,23.33-1.04,1.14-2.07,2.28-3.11,3.42-.83-.1-1.66-.21-2.49-.31-1.14-.93-2.28-1.87-3.42-2.8v-25.51c.55-1.8,2.26-3.31,1.55-6.22-.54-2.2-2.44-3.04-2.8-5.91,1.55-1.45,3.11-2.9,4.67-4.36.93.1,1.87.21,2.8.31,4.42,3.64.8,11.02,3.42,14.93,1.96-1.11,3.87-1.98,6.22-3.11.52-2.2,2.16-2.37,2.8-4.04,2.44-6.4,1.11-9.78,6.53-13.38h0ZM447.48,18.14c1.45.83,2.9,1.66,4.35,2.49-.18,3.75,1.51,3.06,3.73,4.98v3.42c-1.68,1.07-2.64,2.08-3.73,3.73.1.41.21.83.31,1.24h1.24c2.87-2.89,5.71-7.62,10.58-7.46.41.93.83,1.87,1.24,2.8-1.46,2.56-4.52,14.26-1.87,16.18,8.19,2.26,12.38.02,19.91,5.91.03,6.76-5.61,11.56-9.95,14-5.67-2.36-6.88,1.82-10.58,3.11-8.08,2.82-8.09.25-12.44,7.15v1.24c.31.21.62.41.93.62,1.87-.93,3.73-1.87,5.6-2.8,2.15-.5,2.71,1.2,4.04,1.56,5.86,1.57,9.41-1.94,9.95,5.29-4.41,6.34-6.98,2.93-12.44,6.53-.36,12.96-4.31,18.76-16.48,16.48-1.07,1.14-1.59,2.03-3.42,2.49-1.76-3.32-3.53-6.64-5.29-9.95-.41-1.52.29-2.72-.31-4.04-.31-.1-.62-.21-.93-.31-2.17,1.21-4,3.67-6.22,2.8-.1-.21-.21-.41-.31-.62-.03-9.63,6.84-8.37,10.26-13.06,1.75-3.94,3.95-5.15,5.91-8.4-.31-.41-.62-.83-.93-1.24-2.69.93-5.39,1.87-8.09,2.8-.62-.21-1.24-.41-1.87-.62v-1.55c1.24-1.66,2.49-3.32,3.73-4.98,2.6-2.28,17.59-10.7,21.77-9.33,1.92.97,1.64,2.73,2.49,4.67h.93c3.57-4.66,10.77-5.62,14.62-9.96-.4-.93-.19-.7-.93-1.24-1.97-.62-3.94-1.25-5.91-1.87-6.27,5.35-18.46,4.36-26.13,8.4-9.1,4.79-18.12,12.84-21.15,23.64v9.02c-1.85,1.31-3.32,1.48-5.29,2.49.03,1.85-.06,2.27-.93,3.11-1.14-.41-2.28-.83-3.42-1.24-.12-8.18,1.2-13.49,3.11-18.66-.1-5.39-.21-10.78-.31-16.18,1.24-1.55,2.49-3.11,3.73-4.67,4.79-1.98,6.91,2.83,10.58,3.42.62-.73,1.24-1.45,1.87-2.18-.13-8.83-3.85-14.16.62-21.15.62.1,1.25.21,1.87.31,1.56,6.93-.48,12.48,2.8,17.73.73.1,1.45.21,2.18.31.1-.31.21-.62.31-.93-2.31-4.41-2.09-17.64-.93-23.64.62-.1,1.24-.21,1.87-.31.52.31,1.04.62,1.55.93.1,7.05.21,14.1.31,21.15.41.1.83.21,1.24.31,5.57-5.08-.24-14.71,2.49-22.71.93-.93,1.87-1.87,2.8-2.8,1-2.87-.55-6.06.31-8.09.21-.1.41-.21.62-.31h0ZM448.41,90.31c-.73.73-1.45,1.45-2.18,2.18.1.52.21,1.04.31,1.56.62.1,1.24.21,1.87.31.62-.52,1.24-1.03,1.87-1.55-.07-1.4-.22-1.68-.62-2.49h-1.24ZM271.72,67.16c4.31-.18,7.25.21,9.33,2.18,1.04,6.3-6.55,10.82-7.46,17.42,2.07.97,5.29,4.75,5.6,7.46-.41.83-.83,1.66-1.24,2.49-1.04.52-2.07,1.04-3.11,1.55h-7.46c-4.48,1.47-8.74,4.16-14.31,4.98-.49-1.1-.91-2.83-1.56-3.73h-1.55c-1.35,1.89-1.44,3.58-2.49,5.6-3.18,1.03-7.1.74-9.02,3.11-.31-.1-.62-.21-.93-.31-1.95-2.96-6.17-5.58-7.47-8.71v-9.02c-2.51-8.51-.34-11.72,8.71-13.38l.62.62c-.36,2.72-.39,4.1,1.55,5.29,1.63-1.21,2.25-3.82,3.73-4.98,1.66-.62,3.32-1.24,4.98-1.87,2.93-1.94,5.42-4.69,8.09-6.84,2.26.55,11.66.19,14-1.87h0ZM256.17,77.74c-2.47,3.57-11.99,6.68-9.64,12.44.31.1.62.21.93.31,2.9-1.87,5.81-3.73,8.71-5.6.06-2.7.8-4.03,1.55-6.22-.21-.31-.41-.62-.62-.93h-.93ZM249.64,25.79c-2.27,12.72-16.36,33.09-27.68,38.26-.1,2.28-.21,4.56-.31,6.84,1.14,1.35,2.28,2.69,3.42,4.04,6.77-.66,17.62-2.41,20.53-6.22,1.04.41,2.07.83,3.11,1.24,4.35-3.92,10.5-3.71,15.24-6.84,2.21-1.46,5.05-4.1,7.78-4.98h7.78c5.38-7.49-2.19-12.29-2.18-19.91-2-1.53-4.82-3.89-8.09-3.11-4.17,1.68-6.83,7.78-8.09,12.13-1.45.62-2.9,1.24-4.36,1.87-.5-.61-.42-.42-.62-1.55,3.11-4.09,6.81-8.79,7.46-15.24-1.72-1.93-5.09-3.98-5.91-6.53-2.33-.14-2.84-.16-3.42,1.56-2.16-.59-1.69-1.48-4.67-1.56h0ZM526.35,39.3c1.87.21,3.73.41,5.6.62.21,1.55.41,3.11.62,4.67-.97,2.57-2.9,4.14-4.67,5.91.2,5.1,1.83,5.97,2.8,9.02,1.3,4.09-1.55,5.44-2.49,7.15-1.77,3.24-1.18,7.37-5.29,4.67-.1-1.14-.21-2.28-.31-3.42h-.31c-.41.1-.83.21-1.24.31-.41.73-.83,1.45-1.25,2.18.52,2.59,1.04,5.19,1.56,7.78-.22,1.02-1.64,1.34-1.24,3.11,1.24,5.56,2.79,12.84,2.8,19.29-2.18,1.55-4.36,3.11-6.53,4.66-.52-.1-1.04-.21-1.56-.31-.75-1.48-1.48-3.06-3.11-3.73v-18.04c.62-.31,1.24-.62,1.87-.93-.1-5.29-.21-10.58-.31-15.86.52-.62,1.04-1.25,1.55-1.87v-5.29c1.56-1.45,3.11-2.9,4.67-4.35,1.14.31,2.28.62,3.42.93.52-.83,1.04-1.66,1.55-2.49-.37-1.15-.29-1.56-1.24-2.17-.31-.11-.62-.21-.93-.31-.75,1.37-.63,1.75-2.8,1.87-1.68-.66-3.11-2.27-1.87-4.67,1.77-3.69,5.85-6.02,8.71-8.71h0ZM585.45,67.6c2.94,1.51,2.38,4.99,3.73,8.09,2.84-.45,3.39-.7,3.11,3.11-.77.63-1.16,18.84-4.67,23.02-6.84,8.14-24.1,2.4-32.66,4.98-1.17-2.32-4-4.54-4.67-6.53-2.85-8.51,8.87-26.44,12.44-29.55.41.1.83.21,1.24.31.21.31.42.62.62.93.3,6.67-4.03,8.64-5.29,13.69-.57,2.29-.08,3.87-.93,5.91,1.07.87,1.78,1.49,3.42,1.87.41-.62.83-1.24,1.24-1.87,3.02,1.08,14.16,1.76,13.38-2.49,1.18-3.21,3.03-5.16,4.04-7.78,2.45-6.28.09-9.11,4.98-13.69h0ZM523.24,57.65c-.31.31-.62.62-.93.93v1.24c.78.73.59.84,1.87,1.24v-.62c.65-1.47.48-2.27-.93-2.8h0ZM557.77,32.76c-1.73,1.62-4.81,2.78-5.91,4.97-1.23,3.19,1.15,5.3.93,8.71-3.06,1.76-5.63,3.15-7.15,6.53-.41.1-.83.21-1.24.31h-.31c-.74-1.38-1.28-4.86-2.49-5.91h-2.49c-3.51,1.93-4.31,18.37-5.91,23.02.43.59.29.51.93.93.73.1,1.45.21,2.18.31,5.88-4.54,7.15-12.27,11.82-18.04,3.11-3.84,8.16-3.3,12.75-5.91,2.49-1.42,6.86-5.82,10.89-4.35.86.49.74.45,1.25,1.24-1.4,2.56-5.16,6.24-7.78,7.47-2.37,1-4.1-.43-5.91-.93-8.91,4.53-6.64,5.47-10.27,14.62-2.61,6.6-8.33,3.23-8.09,16.8.21.21.41.41.62.62h1.24c1.14-1.14,2.28-2.28,3.42-3.42h1.55c.1.1.21.21.31.31v.93c-5.78,5.88-20.82,15.42-19.91,25.82.93.1,1.87.21,2.8.31,1.56-2.18,3.11-4.35,4.67-6.53,3.91-5.1,9.84-9.03,13.69-14.31,2.28-3.73,4.56-7.47,6.84-11.2,1.09-1.27,2.22-3.1,3.42-4.35,2.41-2.53,7.01-1.93,8.71-5.29.1-.83.21-1.66.31-2.49-.62-.52-1.24-1.04-1.87-1.55h-2.18c-4.92,2.43-8.36,8.47-14.62,9.33-.31-.21-.62-.41-.93-.62v-1.24c3.15-3.22,12.11-9.41,13.38-13.38,1.47-.72,2.45-.5,4.04,0,.31.83.62,1.66.93,2.49.41.1.83.21,1.24.31,3.96-2.1,7.97-3.73,11.51-6.22,1.04-1.45,2.07-2.9,3.11-4.36-.65-2.37-1.61-3.02-1.56-6.53-6.44-4.83-8.97-2.99-15.24,0-3.83-2.56-3.17-6.96-8.71-8.4h0ZM329.86,63.51c1.97.1,3.94.21,5.91.31v.31c-1.56,4.07.74,7.37,1.56,11.51-.62,1.14-1.24,2.28-1.87,3.42-1.14-.1-2.28-.21-3.42-.31-3.27-1.51-5.07-10.3-2.8-14.93.21-.1.41-.21.62-.31h0ZM311.82,63.51c1.99.28,2.21.94,3.42,1.87.02,2.77.39,6.28-.62,8.4h-.31c-.41-.1-.83-.21-1.24-.31-.62-.52-1.24-1.04-1.87-1.55-.08-2.8-.26-6.55.62-8.4h0ZM321.46,50.44c-.21.1-.41.21-.62.31-3.15,4.44,2.39,17.73-.31,26.13-1.2,3.74-1.36,9.27-2.49,12.75-1.46,4.49-5.43,7.17-5.6,13.06.31.21.62.42.93.62,1.35,1.58,5.27.87,7.78-.31,3.03-1.42,2.05-2.61,3.11-5.29,2.65-6.66,3-15.02,1.55-23.64-.1-2.8-.21-5.6-.31-8.4.46-1.5,2.48-5.18,2.8-6.84.37-1.95-1.5-2.84-.93-5.29-1.11-1.35-4.1-2.64-5.91-3.11Z"/>
</svg>